<ttFont>
<head>
    <!-- Most of this table will be recalculated by the compiler -->
    <tableVersion value="1.0"/>
    <fontRevision value="1.0"/>
    <checkSumAdjustment value="0xbab751ad"/>
    <magicNumber value="0x5f0f3cf5"/>
    <flags value="00000000 00001001"/>
    <unitsPerEm value="1000"/>
    <created value="Fri Mar  2 03:17:19 2018"/>
    <modified value="Fri Mar  2 06:30:40 2018"/>
    <xMin value="-349"/>
    <yMin value="-527"/>
    <xMax value="1039"/>
    <yMax value="931"/>
    <macStyle value="00000000 00000000"/>
    <lowestRecPPEM value="9"/>
    <fontDirectionHint value="2"/>
    <indexToLocFormat value="0"/>
    <glyphDataFormat value="0"/>
  </head>
    <TTGlyph name="A" xMin="-26" yMin="-86" xMax="685" yMax="729">
      <contour>
        <pt x="608" y="340" on="1"/>
        <pt x="631" y="337" on="0"/>
        <pt x="675" y="323" on="0"/>
        <pt x="681" y="299" on="1"/>
        <pt x="685" y="283" on="0"/>
        <pt x="669" y="272" on="1"/>
        <pt x="651" y="263" on="0"/>
        <pt x="614" y="257" on="0"/>
        <pt x="594" y="254" on="1"/>
        <pt x="593" y="254" on="0"/>
        <pt x="589" y="250" on="0"/>
        <pt x="589" y="248" on="1"/>
        <pt x="566" y="172" on="0"/>
        <pt x="538" y="7" on="0"/>
        <pt x="521" y="-71" on="1"/>
        <pt x="519" y="-76" on="0"/>
        <pt x="513" y="-86" on="0"/>
        <pt x="508" y="-86" on="1"/>
        <pt x="501" y="-86" on="0"/>
        <pt x="495" y="-78" on="0"/>
        <pt x="493" y="-73" on="1"/>
        <pt x="474" y="15" on="0"/>
        <pt x="474" y="103" on="1"/>
        <pt x="476" y="139" on="0"/>
        <pt x="484" y="209" on="0"/>
        <pt x="492" y="243" on="1"/>
        <pt x="492" y="246" on="1"/>
        <pt x="487" y="248" on="0"/>
        <pt x="445" y="249" on="0"/>
        <pt x="395" y="248" on="0"/>
        <pt x="350" y="247" on="0"/>
        <pt x="341" y="247" on="1"/>
        <pt x="335" y="247" on="0"/>
        <pt x="318" y="237" on="1"/>
        <pt x="277" y="209" on="0"/>
        <pt x="206" y="142" on="0"/>
        <pt x="134" y="80" on="0"/>
        <pt x="54" y="31" on="0"/>
        <pt x="5" y="21" on="1"/>
        <pt x="-9" y="19" on="0"/>
        <pt x="-21" y="31" on="1"/>
        <pt x="-26" y="36" on="0"/>
        <pt x="-15" y="51" on="0"/>
        <pt x="-7" y="57" on="1"/>
        <pt x="53" y="100" on="0"/>
        <pt x="165" y="197" on="0"/>
        <pt x="219" y="246" on="1"/>
        <pt x="221" y="248" on="0"/>
        <pt x="225" y="251" on="0"/>
        <pt x="230" y="255" on="1"/>
        <pt x="186" y="261" on="0"/>
        <pt x="105" y="282" on="0"/>
        <pt x="63" y="290" on="1"/>
        <pt x="49" y="295" on="0"/>
        <pt x="21" y="303" on="0"/>
        <pt x="8" y="310" on="1"/>
        <pt x="1" y="318" on="0"/>
        <pt x="16" y="321" on="0"/>
        <pt x="21" y="321" on="1"/>
        <pt x="36" y="323" on="0"/>
        <pt x="63" y="326" on="0"/>
        <pt x="78" y="328" on="1"/>
        <pt x="142" y="329" on="0"/>
        <pt x="249" y="335" on="0"/>
        <pt x="302" y="335" on="1"/>
        <pt x="307" y="335" on="0"/>
        <pt x="314" y="339" on="0"/>
        <pt x="318" y="341" on="1"/>
        <pt x="363" y="383" on="0"/>
        <pt x="440" y="471" on="0"/>
        <pt x="511" y="563" on="0"/>
        <pt x="577" y="658" on="0"/>
        <pt x="611" y="706" on="1"/>
        <pt x="627" y="729" on="0"/>
        <pt x="655" y="722" on="1"/>
        <pt x="663" y="719" on="0"/>
        <pt x="677" y="700" on="0"/>
        <pt x="677" y="689" on="1"/>
        <pt x="669" y="599" on="0"/>
        <pt x="626" y="432" on="0"/>
        <pt x="609" y="348" on="1"/>
        <pt x="609" y="346" on="0"/>
        <pt x="608" y="341" on="0"/>
      </contour>
      <contour>
        <pt x="541" y="467" on="1"/>
        <pt x="529" y="453" on="0"/>
        <pt x="495" y="419" on="0"/>
        <pt x="459" y="383" on="0"/>
        <pt x="426" y="348" on="0"/>
        <pt x="415" y="335" on="1"/>
        <pt x="416" y="335" on="1"/>
        <pt x="433" y="335" on="0"/>
        <pt x="489" y="338" on="0"/>
        <pt x="506" y="338" on="1"/>
        <pt x="507" y="338" on="0"/>
        <pt x="508" y="339" on="1"/>
        <pt x="510" y="341" on="0"/>
        <pt x="510" y="341" on="1"/>
        <pt x="521" y="373" on="0"/>
        <pt x="533" y="436" on="0"/>
      </contour>
    </TTGlyph>
    <TTGlyph name="AE" xMin="-25" yMin="-17" xMax="1039" yMax="748">
      <contour>
        <pt x="524" y="-4" on="1"/>
        <pt x="510" y="1" on="0"/>
        <pt x="486" y="16" on="0"/>
        <pt x="477" y="27" on="1"/>
        <pt x="463" y="39" on="0"/>
        <pt x="449" y="68" on="0"/>
        <pt x="442" y="82" on="1"/>
        <pt x="436" y="99" on="0"/>
        <pt x="434" y="133" on="0"/>
        <pt x="436" y="151" on="1"/>
        <pt x="439" y="171" on="0"/>
        <pt x="453" y="207" on="0"/>
        <pt x="462" y="224" on="1"/>
        <pt x="466" y="230" on="0"/>
        <pt x="473" y="242" on="0"/>
        <pt x="478" y="248" on="1"/>
        <pt x="465" y="249" on="0"/>
        <pt x="425" y="249" on="0"/>
        <pt x="384" y="248" on="0"/>
        <pt x="349" y="247" on="0"/>
        <pt x="342" y="247" on="1"/>
        <pt x="336" y="247" on="0"/>
        <pt x="319" y="237" on="1"/>
        <pt x="278" y="209" on="0"/>
        <pt x="207" y="142" on="0"/>
        <pt x="135" y="80" on="0"/>
        <pt x="55" y="31" on="0"/>
        <pt x="6" y="21" on="1"/>
        <pt x="-8" y="19" on="0"/>
        <pt x="-20" y="31" on="1"/>
        <pt x="-25" y="36" on="0"/>
        <pt x="-14" y="51" on="0"/>
        <pt x="-6" y="57" on="1"/>
        <pt x="54" y="100" on="0"/>
        <pt x="166" y="197" on="0"/>
        <pt x="220" y="246" on="1"/>
        <pt x="222" y="248" on="0"/>
        <pt x="226" y="251" on="0"/>
        <pt x="231" y="255" on="1"/>
        <pt x="187" y="261" on="0"/>
        <pt x="106" y="282" on="0"/>
        <pt x="64" y="290" on="1"/>
        <pt x="50" y="295" on="0"/>
        <pt x="22" y="303" on="0"/>
        <pt x="9" y="310" on="1"/>
        <pt x="2" y="318" on="0"/>
        <pt x="17" y="321" on="0"/>
        <pt x="22" y="321" on="1"/>
        <pt x="37" y="323" on="0"/>
        <pt x="64" y="326" on="0"/>
        <pt x="79" y="328" on="1"/>
        <pt x="143" y="329" on="0"/>
        <pt x="250" y="335" on="0"/>
        <pt x="303" y="335" on="1"/>
        <pt x="308" y="335" on="0"/>
        <pt x="315" y="339" on="0"/>
        <pt x="319" y="341" on="1"/>
        <pt x="378" y="404" on="0"/>
        <pt x="486" y="523" on="0"/>
        <pt x="534" y="589" on="1"/>
        <pt x="556" y="621" on="0"/>
        <pt x="592" y="678" on="0"/>
        <pt x="612" y="706" on="1"/>
        <pt x="628" y="729" on="0"/>
        <pt x="656" y="722" on="1"/>
        <pt x="664" y="719" on="0"/>
        <pt x="678" y="700" on="0"/>
        <pt x="678" y="689" on="1"/>
        <pt x="675" y="658" on="0"/>
        <pt x="670" y="613" on="0"/>
        <pt x="666" y="591" on="1"/>
        <pt x="698" y="622" on="0"/>
        <pt x="773" y="676" on="0"/>
        <pt x="848" y="717" on="0"/>
        <pt x="919" y="743" on="0"/>
        <pt x="947" y="745" on="1"/>
        <pt x="979" y="748" on="0"/>
        <pt x="1001" y="734" on="1"/>
        <pt x="1015" y="727" on="0"/>
        <pt x="1039" y="708" on="0"/>
        <pt x="1037" y="691" on="1"/>
        <pt x="1029" y="640" on="0"/>
        <pt x="1023" y="543" on="0"/>
        <pt x="1023" y="493" on="1"/>
        <pt x="1021" y="487" on="0"/>
        <pt x="1021" y="477" on="0"/>
        <pt x="1014" y="475" on="1"/>
        <pt x="999" y="470" on="0"/>
        <pt x="985" y="484" on="1"/>
        <pt x="965" y="503" on="0"/>
        <pt x="947" y="546" on="0"/>
        <pt x="943" y="591" on="0"/>
        <pt x="951" y="637" on="0"/>
        <pt x="958" y="660" on="1"/>
        <pt x="956" y="665" on="0"/>
        <pt x="938" y="662" on="1"/>
        <pt x="915" y="658" on="0"/>
        <pt x="858" y="632" on="0"/>
        <pt x="795" y="595" on="0"/>
        <pt x="734" y="550" on="0"/>
        <pt x="681" y="503" on="0"/>
        <pt x="642" y="456" on="0"/>
        <pt x="634" y="437" on="1"/>
        <pt x="628" y="423" on="0"/>
        <pt x="637" y="403" on="0"/>
        <pt x="659" y="403" on="1"/>
        <pt x="680" y="403" on="0"/>
        <pt x="722" y="412" on="0"/>
        <pt x="773" y="430" on="0"/>
        <pt x="838" y="458" on="0"/>
        <pt x="882" y="478" on="1"/>
        <pt x="897" y="482" on="0"/>
        <pt x="900" y="462" on="0"/>
        <pt x="892" y="435" on="0"/>
        <pt x="878" y="410" on="0"/>
        <pt x="875" y="407" on="1"/>
        <pt x="859" y="394" on="0"/>
        <pt x="817" y="373" on="0"/>
        <pt x="772" y="353" on="0"/>
        <pt x="729" y="332" on="0"/>
        <pt x="712" y="320" on="1"/>
        <pt x="695" y="308" on="0"/>
        <pt x="647" y="274" on="0"/>
        <pt x="596" y="234" on="0"/>
        <pt x="549" y="188" on="0"/>
        <pt x="517" y="141" on="0"/>
        <pt x="508" y="94" on="0"/>
        <pt x="520" y="72" on="1"/>
        <pt x="527" y="59" on="0"/>
        <pt x="562" y="51" on="0"/>
        <pt x="608" y="56" on="0"/>
        <pt x="663" y="71" on="0"/>
        <pt x="691" y="82" on="1"/>
        <pt x="766" y="111" on="0"/>
        <pt x="895" y="178" on="0"/>
        <pt x="952" y="219" on="1"/>
        <pt x="962" y="226" on="0"/>
        <pt x="970" y="234" on="1"/>
        <pt x="972" y="237" on="0"/>
        <pt x="978" y="227" on="0"/>
        <pt x="982" y="210" on="0"/>
        <pt x="985" y="189" on="0"/>
        <pt x="985" y="179" on="1"/>
        <pt x="982" y="145" on="0"/>
        <pt x="932" y="93" on="0"/>
        <pt x="896" y="73" on="1"/>
        <pt x="854" y="49" on="0"/>
        <pt x="762" y="10" on="0"/>
        <pt x="667" y="-14" on="0"/>
        <pt x="570" y="-17" on="0"/>
      </contour>
      <contour>
        <pt x="542" y="467" on="1"/>
        <pt x="530" y="453" on="0"/>
        <pt x="496" y="419" on="0"/>
        <pt x="460" y="383" on="0"/>
        <pt x="427" y="348" on="0"/>
        <pt x="416" y="335" on="1"/>
        <pt x="417" y="335" on="1"/>
        <pt x="434" y="335" on="0"/>
        <pt x="490" y="338" on="0"/>
        <pt x="507" y="338" on="1"/>
        <pt x="508" y="338" on="0"/>
        <pt x="509" y="339" on="1"/>
        <pt x="511" y="341" on="0"/>
        <pt x="511" y="341" on="1"/>
        <pt x="522" y="373" on="0"/>
        <pt x="534" y="436" on="0"/>
      </contour>
    </TTGlyph>
    <TTGlyph name="Aacute" xMin="-26" yMin="-86" xMax="758" yMax="913">
      <component glyphName="A" x="0" y="0" flags="0x204"/>
      <component glyphName="acute" x="532" y="179" flags="0x4"/>
    </TTGlyph>
    <TTGlyph name="Acircumflex" xMin="-26" yMin="-86" xMax="765" yMax="917">
      <component glyphName="A" x="0" y="0" flags="0x204"/>
      <component glyphName="circumflex" x="524" y="207" flags="0x4"/>
    </TTGlyph>
    <TTGlyph name="Adieresis" xMin="-26" yMin="-86" xMax="768" yMax="862">
      <component glyphName="A" x="0" y="0" flags="0x204"/>
      <component glyphName="dieresis" x="473" y="175" flags="0x4"/>
    </TTGlyph>
    <TTGlyph name="Agrave" xMin="-26" yMin="-86" xMax="709" yMax="914">
      <component glyphName="A" x="0" y="0" flags="0x204"/>
      <component glyphName="grave" x="503" y="180" flags="0x4"/>
    </TTGlyph>
    <TTGlyph name="Aring" xMin="-26" yMin="-86" xMax="756" yMax="931">
      <component glyphName="A" x="0" y="0" flags="0x204"/>
      <component glyphName="ring" x="528" y="201" flags="0x4"/>
    </TTGlyph>
    <TTGlyph name="Atilde" xMin="-26" yMin="-86" xMax="808" yMax="880">
      <component glyphName="A" x="0" y="0" flags="0x204"/>
      <component glyphName="tilde" x="511" y="186" flags="0x4"/>
    </TTGlyph>
    <TTGlyph name="B" xMin="20" yMin="-87" xMax="669" yMax="729">
      <contour>
        <pt x="372" y="412" on="1"/>
        <pt x="378" y="412" on="0"/>
        <pt x="388" y="415" on="0"/>
        <pt x="394" y="415" on="1"/>
        <pt x="424" y="415" on="0"/>
        <pt x="499" y="447" on="0"/>
        <pt x="562" y="495" on="0"/>
        <pt x="601" y="553" on="0"/>
        <pt x="596" y="580" on="1"/>
        <pt x="582" y="611" on="0"/>
        <pt x="525" y="643" on="0"/>
        <pt x="449" y="652" on="0"/>
        <pt x="364" y="641" on="0"/>
        <pt x="281" y="618" on="0"/>
        <pt x="208" y="585" on="0"/>
        <pt x="184" y="567" on="1"/>
        <pt x="173" y="563" on="0"/>
        <pt x="170" y="582" on="0"/>
        <pt x="177" y="609" on="0"/>
        <pt x="190" y="636" on="0"/>
        <pt x="195" y="642" on="1"/>
        <pt x="208" y="668" on="0"/>
        <pt x="248" y="698" on="0"/>
        <pt x="272" y="707" on="1"/>
        <pt x="311" y="721" on="0"/>
        <pt x="429" y="729" on="0"/>
        <pt x="547" y="710" on="0"/>
        <pt x="642" y="662" on="0"/>
        <pt x="659" y="620" on="1"/>
        <pt x="669" y="587" on="0"/>
        <pt x="660" y="524" on="0"/>
        <pt x="631" y="470" on="0"/>
        <pt x="585" y="424" on="0"/>
        <pt x="558" y="407" on="1"/>
        <pt x="556" y="405" on="0"/>
        <pt x="552" y="403" on="0"/>
        <pt x="548" y="401" on="1"/>
        <pt x="565" y="394" on="0"/>
        <pt x="595" y="381" on="0"/>
        <pt x="609" y="370" on="1"/>
        <pt x="626" y="357" on="0"/>
        <pt x="650" y="320" on="0"/>
        <pt x="654" y="301" on="1"/>
        <pt x="664" y="268" on="0"/>
        <pt x="652" y="203" on="0"/>
        <pt x="641" y="176" on="1"/>
        <pt x="626" y="146" on="0"/>
        <pt x="585" y="89" on="0"/>
        <pt x="561" y="69" on="1"/>
        <pt x="499" y="0" on="0"/>
        <pt x="342" y="-75" on="0"/>
        <pt x="254" y="-86" on="1"/>
        <pt x="224" y="-87" on="0"/>
        <pt x="172" y="-83" on="0"/>
        <pt x="128" y="-65" on="0"/>
        <pt x="92" y="-31" on="0"/>
        <pt x="78" y="-2" on="1"/>
        <pt x="58" y="28" on="0"/>
        <pt x="29" y="91" on="0"/>
        <pt x="20" y="153" on="0"/>
        <pt x="38" y="207" on="0"/>
        <pt x="65" y="228" on="1"/>
        <pt x="84" y="245" on="0"/>
        <pt x="125" y="272" on="0"/>
        <pt x="151" y="277" on="1"/>
        <pt x="156" y="279" on="0"/>
        <pt x="163" y="282" on="0"/>
        <pt x="168" y="282" on="1"/>
        <pt x="171" y="282" on="1"/>
        <pt x="166" y="277" on="0"/>
        <pt x="160" y="267" on="0"/>
        <pt x="157" y="264" on="1"/>
        <pt x="140" y="243" on="0"/>
        <pt x="108" y="191" on="0"/>
        <pt x="91" y="135" on="0"/>
        <pt x="93" y="79" on="0"/>
        <pt x="109" y="56" on="1"/>
        <pt x="123" y="36" on="0"/>
        <pt x="162" y="15" on="0"/>
        <pt x="207" y="8" on="0"/>
        <pt x="253" y="11" on="0"/>
        <pt x="274" y="14" on="1"/>
        <pt x="342" y="27" on="0"/>
        <pt x="453" y="93" on="0"/>
        <pt x="500" y="140" on="1"/>
        <pt x="512" y="154" on="0"/>
        <pt x="539" y="189" on="0"/>
        <pt x="562" y="226" on="0"/>
        <pt x="579" y="265" on="0"/>
        <pt x="582" y="283" on="1"/>
        <pt x="577" y="311" on="0"/>
        <pt x="550" y="340" on="0"/>
        <pt x="504" y="350" on="0"/>
        <pt x="439" y="347" on="0"/>
        <pt x="397" y="343" on="1"/>
        <pt x="383" y="341" on="0"/>
        <pt x="353" y="340" on="0"/>
        <pt x="338" y="338" on="1"/>
        <pt x="337" y="338" on="0"/>
        <pt x="335" y="336" on="1"/>
        <pt x="334" y="335" on="0"/>
        <pt x="333" y="335" on="1"/>
        <pt x="301" y="275" on="0"/>
        <pt x="243" y="151" on="0"/>
        <pt x="201" y="98" on="1"/>
        <pt x="199" y="95" on="0"/>
        <pt x="184" y="74" on="0"/>
        <pt x="167" y="57" on="0"/>
        <pt x="151" y="54" on="0"/>
        <pt x="149" y="69" on="1"/>
        <pt x="144" y="79" on="0"/>
        <pt x="146" y="112" on="0"/>
        <pt x="154" y="148" on="0"/>
        <pt x="165" y="181" on="0"/>
        <pt x="168" y="190" on="1"/>
        <pt x="173" y="208" on="0"/>
        <pt x="183" y="243" on="0"/>
        <pt x="190" y="260" on="1"/>
        <pt x="212" y="304" on="0"/>
        <pt x="251" y="390" on="0"/>
        <pt x="274" y="432" on="1"/>
        <pt x="286" y="458" on="0"/>
        <pt x="311" y="508" on="0"/>
        <pt x="324" y="532" on="1"/>
        <pt x="333" y="546" on="0"/>
        <pt x="361" y="547" on="0"/>
        <pt x="386" y="530" on="0"/>
        <pt x="403" y="501" on="0"/>
        <pt x="401" y="484" on="1"/>
        <pt x="396" y="464" on="0"/>
        <pt x="380" y="429" on="0"/>
      </contour>
    </TTGlyph>
    <TTGlyph name="C" xMin="-2" yMin="-42" xMax="575" yMax="744">
      <contour>
        <pt x="490" y="659" on="1"/>
        <pt x="488" y="659" on="0"/>
        <pt x="478" y="653" on="0"/>
        <pt x="466" y="646" on="0"/>
        <pt x="456" y="640" on="0"/>
        <pt x="455" y="640" on="1"/>
        <pt x="441" y="632" on="0"/>
        <pt x="414" y="618" on="0"/>
        <pt x="402" y="610" on="1"/>
        <pt x="344" y="573" on="0"/>
        <pt x="243" y="489" on="0"/>
        <pt x="201" y="440" on="1"/>
        <pt x="173" y="408" on="0"/>
        <pt x="125" y="335" on="0"/>
        <pt x="90" y="256" on="0"/>
        <pt x="71" y="174" on="0"/>
        <pt x="72" y="133" on="1"/>
        <pt x="73" y="103" on="0"/>
        <pt x="85" y="50" on="0"/>
        <pt x="99" y="36" on="1"/>
        <pt x="121" y="15" on="0"/>
        <pt x="182" y="18" on="0"/>
        <pt x="253" y="51" on="0"/>
        <pt x="331" y="109" on="0"/>
        <pt x="406" y="178" on="0"/>
        <pt x="475" y="253" on="0"/>
        <pt x="503" y="287" on="1"/>
        <pt x="510" y="293" on="0"/>
        <pt x="523" y="315" on="0"/>
        <pt x="531" y="322" on="1"/>
        <pt x="539" y="327" on="0"/>
        <pt x="550" y="311" on="0"/>
        <pt x="550" y="303" on="1"/>
        <pt x="548" y="260" on="0"/>
        <pt x="515" y="189" on="0"/>
        <pt x="492" y="159" on="1"/>
        <pt x="464" y="123" on="0"/>
        <pt x="388" y="52" on="0"/>
        <pt x="302" y="-6" on="0"/>
        <pt x="210" y="-42" on="0"/>
        <pt x="167" y="-42" on="1"/>
        <pt x="129" y="-42" on="0"/>
        <pt x="74" y="-16" on="0"/>
        <pt x="35" y="27" on="0"/>
        <pt x="10" y="83" on="0"/>
        <pt x="3" y="114" on="1"/>
        <pt x="1" y="123" on="0"/>
        <pt x="-2" y="146" on="0"/>
        <pt x="-2" y="157" on="1"/>
        <pt x="-2" y="209" on="0"/>
        <pt x="19" y="298" on="0"/>
        <pt x="34" y="340" on="1"/>
        <pt x="40" y="359" on="0"/>
        <pt x="50" y="377" on="1"/>
        <pt x="79" y="438" on="0"/>
        <pt x="170" y="551" on="0"/>
        <pt x="281" y="644" on="0"/>
        <pt x="405" y="714" on="0"/>
        <pt x="468" y="732" on="1"/>
        <pt x="485" y="738" on="0"/>
        <pt x="501" y="732" on="1"/>
        <pt x="506" y="730" on="0"/>
        <pt x="516" y="730" on="0"/>
        <pt x="522" y="735" on="1"/>
        <pt x="537" y="744" on="0"/>
        <pt x="570" y="728" on="0"/>
        <pt x="572" y="708" on="1"/>
        <pt x="575" y="680" on="0"/>
        <pt x="565" y="653" on="1"/>
        <pt x="558" y="629" on="0"/>
        <pt x="543" y="587" on="0"/>
        <pt x="527" y="544" on="0"/>
        <pt x="513" y="494" on="0"/>
        <pt x="508" y="462" on="1"/>
        <pt x="507" y="457" on="0"/>
        <pt x="502" y="444" on="0"/>
        <pt x="499" y="442" on="1"/>
        <pt x="494" y="433" on="0"/>
        <pt x="477" y="430" on="0"/>
        <pt x="470" y="438" on="1"/>
        <pt x="468" y="441" on="0"/>
        <pt x="463" y="447" on="0"/>
        <pt x="461" y="451" on="1"/>
        <pt x="451" y="474" on="0"/>
        <pt x="446" y="532" on="0"/>
        <pt x="453" y="591" on="0"/>
        <pt x="474" y="642" on="0"/>
      </contour>
    </TTGlyph>
    <TTGlyph name="Ccedilla" xMin="-2" yMin="-217" xMax="575" yMax="744">
      <contour>
        <pt x="117" y="-157" on="1"/>
        <pt x="146" y="-154" on="0"/>
        <pt x="202" y="-133" on="0"/>
        <pt x="213" y="-106" on="1"/>
        <pt x="196" y="-105" on="0"/>
        <pt x="167" y="-104" on="0"/>
        <pt x="153" y="-106" on="1"/>
        <pt x="142" y="-106" on="0"/>
        <pt x="129" y="-90" on="0"/>
        <pt x="131" y="-80" on="1"/>
        <pt x="133" y="-70" on="0"/>
        <pt x="138" y="-50" on="0"/>
        <pt x="141" y="-40" on="1"/>
        <pt x="110" y="-36" on="0"/>
        <pt x="64" y="-8" on="0"/>
        <pt x="31" y="34" on="0"/>
        <pt x="9" y="85" on="0"/>
        <pt x="3" y="114" on="1"/>
        <pt x="1" y="123" on="0"/>
        <pt x="-2" y="146" on="0"/>
        <pt x="-2" y="157" on="1"/>
        <pt x="-2" y="209" on="0"/>
        <pt x="19" y="298" on="0"/>
        <pt x="34" y="340" on="1"/>
        <pt x="40" y="359" on="0"/>
        <pt x="50" y="377" on="1"/>
        <pt x="79" y="438" on="0"/>
        <pt x="170" y="551" on="0"/>
        <pt x="281" y="644" on="0"/>
        <pt x="405" y="714" on="0"/>
        <pt x="468" y="732" on="1"/>
        <pt x="485" y="738" on="0"/>
        <pt x="501" y="732" on="1"/>
        <pt x="506" y="730" on="0"/>
        <pt x="516" y="730" on="0"/>
        <pt x="522" y="735" on="1"/>
        <pt x="537" y="744" on="0"/>
        <pt x="570" y="728" on="0"/>
        <pt x="572" y="708" on="1"/>
        <pt x="575" y="680" on="0"/>
        <pt x="565" y="653" on="1"/>
        <pt x="558" y="629" on="0"/>
        <pt x="543" y="587" on="0"/>
        <pt x="527" y="544" on="0"/>
        <pt x="513" y="494" on="0"/>
        <pt x="508" y="462" on="1"/>
        <pt x="507" y="457" on="0"/>
        <pt x="502" y="444" on="0"/>
        <pt x="499" y="442" on="1"/>
        <pt x="494" y="433" on="0"/>
        <pt x="477" y="430" on="0"/>
        <pt x="470" y="438" on="1"/>
        <pt x="468" y="441" on="0"/>
        <pt x="463" y="447" on="0"/>
        <pt x="461" y="451" on="1"/>
        <pt x="451" y="474" on="0"/>
        <pt x="446" y="532" on="0"/>
        <pt x="453" y="591" on="0"/>
        <pt x="474" y="642" on="0"/>
        <pt x="490" y="659" on="1"/>
        <pt x="488" y="659" on="0"/>
        <pt x="478" y="653" on="0"/>
        <pt x="466" y="646" on="0"/>
        <pt x="456" y="640" on="0"/>
        <pt x="455" y="640" on="1"/>
        <pt x="441" y="632" on="0"/>
        <pt x="414" y="618" on="0"/>
        <pt x="402" y="610" on="1"/>
        <pt x="344" y="573" on="0"/>
        <pt x="243" y="489" on="0"/>
        <pt x="201" y="440" on="1"/>
        <pt x="173" y="408" on="0"/>
        <pt x="125" y="335" on="0"/>
        <pt x="90" y="256" on="0"/>
        <pt x="71" y="174" on="0"/>
        <pt x="72" y="133" on="1"/>
        <pt x="73" y="103" on="0"/>
        <pt x="85" y="50" on="0"/>
        <pt x="99" y="36" on="1"/>
        <pt x="121" y="15" on="0"/>
        <pt x="182" y="18" on="0"/>
        <pt x="253" y="51" on="0"/>
        <pt x="331" y="109" on="0"/>
        <pt x="406" y="178" on="0"/>
        <pt x="475" y="253" on="0"/>
        <pt x="503" y="287" on="1"/>
        <pt x="510" y="293" on="0"/>
        <pt x="523" y="315" on="0"/>
        <pt x="531" y="322" on="1"/>
        <pt x="539" y="327" on="0"/>
        <pt x="550" y="311" on="0"/>
        <pt x="550" y="303" on="1"/>
        <pt x="548" y="260" on="0"/>
        <pt x="515" y="189" on="0"/>
        <pt x="492" y="159" on="1"/>
        <pt x="464" y="123" on="0"/>
        <pt x="388" y="52" on="0"/>
        <pt x="302" y="-6" on="0"/>
        <pt x="210" y="-42" on="0"/>
        <pt x="167" y="-42" on="1"/>
        <pt x="167" y="-47" on="1"/>
        <pt x="167" y="-52" on="0"/>
        <pt x="166" y="-64" on="0"/>
        <pt x="166" y="-71" on="1"/>
        <pt x="178" y="-71" on="0"/>
        <pt x="210" y="-71" on="0"/>
        <pt x="237" y="-78" on="0"/>
        <pt x="254" y="-95" on="0"/>
        <pt x="253" y="-112" on="1"/>
        <pt x="251" y="-132" on="0"/>
        <pt x="230" y="-164" on="0"/>
        <pt x="214" y="-176" on="1"/>
        <pt x="162" y="-217" on="0"/>
        <pt x="107" y="-180" on="1"/>
        <pt x="95" y="-173" on="0"/>
        <pt x="90" y="-164" on="0"/>
        <pt x="96" y="-159" on="0"/>
        <pt x="109" y="-157" on="0"/>
      </contour>
    </TTGlyph>
    <TTGlyph name="D" xMin="2" yMin="-10" xMax="740" yMax="721">
      <contour>
        <pt x="203" y="92" on="1"/>
        <pt x="200" y="92" on="0"/>
        <pt x="200" y="94" on="1"/>
        <pt x="185" y="109" on="0"/>
        <pt x="178" y="153" on="0"/>
        <pt x="185" y="203" on="0"/>
        <pt x="203" y="255" on="0"/>
        <pt x="212" y="278" on="1"/>
        <pt x="248" y="366" on="0"/>
        <pt x="316" y="550" on="0"/>
        <pt x="343" y="629" on="1"/>
        <pt x="298" y="618" on="0"/>
        <pt x="218" y="582" on="0"/>
        <pt x="189" y="550" on="1"/>
        <pt x="182" y="543" on="0"/>
        <pt x="161" y="517" on="0"/>
        <pt x="143" y="488" on="0"/>
        <pt x="132" y="459" on="0"/>
        <pt x="134" y="450" on="1"/>
        <pt x="132" y="441" on="0"/>
        <pt x="117" y="451" on="0"/>
        <pt x="101" y="475" on="0"/>
        <pt x="90" y="506" on="0"/>
        <pt x="93" y="519" on="1"/>
        <pt x="104" y="566" on="0"/>
        <pt x="159" y="633" on="0"/>
        <pt x="233" y="679" on="0"/>
        <pt x="317" y="705" on="0"/>
        <pt x="357" y="711" on="1"/>
        <pt x="389" y="717" on="0"/>
        <pt x="468" y="721" on="0"/>
        <pt x="547" y="713" on="0"/>
        <pt x="618" y="690" on="0"/>
        <pt x="643" y="669" on="1"/>
        <pt x="698" y="634" on="0"/>
        <pt x="740" y="529" on="0"/>
        <pt x="735" y="471" on="1"/>
        <pt x="720" y="406" on="0"/>
        <pt x="643" y="281" on="0"/>
        <pt x="541" y="173" on="0"/>
        <pt x="423" y="86" on="0"/>
        <pt x="368" y="58" on="1"/>
        <pt x="361" y="53" on="0"/>
        <pt x="346" y="46" on="0"/>
        <pt x="337" y="41" on="1"/>
        <pt x="293" y="20" on="0"/>
        <pt x="215" y="-3" on="0"/>
        <pt x="138" y="-10" on="0"/>
        <pt x="58" y="0" on="0"/>
        <pt x="13" y="14" on="1"/>
        <pt x="2" y="20" on="0"/>
        <pt x="2" y="28" on="0"/>
        <pt x="12" y="35" on="1"/>
        <pt x="22" y="40" on="0"/>
        <pt x="42" y="46" on="0"/>
        <pt x="52" y="47" on="1"/>
        <pt x="91" y="58" on="0"/>
        <pt x="168" y="73" on="0"/>
        <pt x="203" y="89" on="1"/>
      </contour>
      <contour>
        <pt x="225" y="99" on="1"/>
        <pt x="240" y="100" on="0"/>
        <pt x="280" y="116" on="0"/>
        <pt x="322" y="138" on="0"/>
        <pt x="360" y="161" on="0"/>
        <pt x="372" y="169" on="1"/>
        <pt x="457" y="229" on="0"/>
        <pt x="604" y="372" on="0"/>
        <pt x="648" y="465" on="1"/>
        <pt x="654" y="478" on="0"/>
        <pt x="664" y="505" on="0"/>
        <pt x="666" y="519" on="1"/>
        <pt x="671" y="550" on="0"/>
        <pt x="651" y="593" on="0"/>
        <pt x="613" y="622" on="0"/>
        <pt x="561" y="638" on="0"/>
        <pt x="507" y="645" on="0"/>
        <pt x="456" y="644" on="0"/>
        <pt x="438" y="642" on="1"/>
        <pt x="435" y="642" on="0"/>
        <pt x="435" y="635" on="1"/>
        <pt x="435" y="623" on="1"/>
        <pt x="393" y="486" on="0"/>
        <pt x="294" y="223" on="0"/>
      </contour>
    </TTGlyph>
    <TTGlyph name="E" xMin="3" yMin="-17" xMax="608" yMax="748">
      <contour>
        <pt x="93" y="-4" on="1"/>
        <pt x="79" y="1" on="0"/>
        <pt x="55" y="16" on="0"/>
        <pt x="46" y="27" on="1"/>
        <pt x="32" y="39" on="0"/>
        <pt x="18" y="68" on="0"/>
        <pt x="11" y="82" on="1"/>
        <pt x="5" y="99" on="0"/>
        <pt x="3" y="133" on="0"/>
        <pt x="5" y="151" on="1"/>
        <pt x="8" y="171" on="0"/>
        <pt x="22" y="207" on="0"/>
        <pt x="31" y="224" on="1"/>
        <pt x="55" y="264" on="0"/>
        <pt x="126" y="327" on="0"/>
        <pt x="165" y="349" on="1"/>
        <pt x="167" y="351" on="0"/>
        <pt x="169" y="352" on="0"/>
        <pt x="171" y="354" on="1"/>
        <pt x="165" y="359" on="0"/>
        <pt x="156" y="367" on="0"/>
        <pt x="151" y="372" on="1"/>
        <pt x="151" y="374" on="0"/>
        <pt x="148" y="377" on="0"/>
        <pt x="146" y="379" on="1"/>
        <pt x="135" y="397" on="0"/>
        <pt x="134" y="436" on="0"/>
        <pt x="141" y="456" on="1"/>
        <pt x="153" y="491" on="0"/>
        <pt x="202" y="559" on="0"/>
        <pt x="267" y="622" on="0"/>
        <pt x="342" y="676" on="0"/>
        <pt x="417" y="717" on="0"/>
        <pt x="488" y="743" on="0"/>
        <pt x="516" y="745" on="1"/>
        <pt x="548" y="748" on="0"/>
        <pt x="570" y="734" on="1"/>
        <pt x="584" y="727" on="0"/>
        <pt x="608" y="708" on="0"/>
        <pt x="606" y="691" on="1"/>
        <pt x="598" y="640" on="0"/>
        <pt x="592" y="543" on="0"/>
        <pt x="592" y="493" on="1"/>
        <pt x="590" y="487" on="0"/>
        <pt x="590" y="477" on="0"/>
        <pt x="583" y="475" on="1"/>
        <pt x="568" y="470" on="0"/>
        <pt x="554" y="484" on="1"/>
        <pt x="534" y="503" on="0"/>
        <pt x="516" y="546" on="0"/>
        <pt x="512" y="591" on="0"/>
        <pt x="520" y="637" on="0"/>
        <pt x="527" y="660" on="1"/>
        <pt x="525" y="665" on="0"/>
        <pt x="507" y="662" on="1"/>
        <pt x="484" y="658" on="0"/>
        <pt x="427" y="632" on="0"/>
        <pt x="364" y="595" on="0"/>
        <pt x="303" y="550" on="0"/>
        <pt x="250" y="503" on="0"/>
        <pt x="211" y="456" on="0"/>
        <pt x="203" y="437" on="1"/>
        <pt x="197" y="423" on="0"/>
        <pt x="206" y="403" on="0"/>
        <pt x="228" y="403" on="1"/>
        <pt x="249" y="403" on="0"/>
        <pt x="291" y="412" on="0"/>
        <pt x="342" y="430" on="0"/>
        <pt x="407" y="458" on="0"/>
        <pt x="451" y="478" on="1"/>
        <pt x="466" y="482" on="0"/>
        <pt x="469" y="462" on="0"/>
        <pt x="461" y="435" on="0"/>
        <pt x="447" y="410" on="0"/>
        <pt x="444" y="407" on="1"/>
        <pt x="428" y="394" on="0"/>
        <pt x="386" y="373" on="0"/>
        <pt x="341" y="353" on="0"/>
        <pt x="298" y="332" on="0"/>
        <pt x="281" y="320" on="1"/>
        <pt x="264" y="308" on="0"/>
        <pt x="216" y="274" on="0"/>
        <pt x="165" y="234" on="0"/>
        <pt x="118" y="188" on="0"/>
        <pt x="86" y="141" on="0"/>
        <pt x="77" y="94" on="0"/>
        <pt x="89" y="72" on="1"/>
        <pt x="96" y="59" on="0"/>
        <pt x="131" y="51" on="0"/>
        <pt x="177" y="56" on="0"/>
        <pt x="232" y="71" on="0"/>
        <pt x="260" y="82" on="1"/>
        <pt x="335" y="111" on="0"/>
        <pt x="464" y="178" on="0"/>
        <pt x="521" y="219" on="1"/>
        <pt x="531" y="226" on="0"/>
        <pt x="539" y="234" on="1"/>
        <pt x="541" y="237" on="0"/>
        <pt x="547" y="227" on="0"/>
        <pt x="551" y="210" on="0"/>
        <pt x="554" y="189" on="0"/>
        <pt x="554" y="179" on="1"/>
        <pt x="551" y="145" on="0"/>
        <pt x="501" y="93" on="0"/>
        <pt x="465" y="73" on="1"/>
        <pt x="423" y="49" on="0"/>
        <pt x="331" y="10" on="0"/>
        <pt x="236" y="-14" on="0"/>
        <pt x="139" y="-17" on="0"/>
      </contour>
    </TTGlyph>
    <TTGlyph name="Eacute" xMin="3" yMin="-17" xMax="608" yMax="914">
      <component glyphName="E" x="0" y="0" flags="0x204"/>
      <component glyphName="acute" x="291" y="180" flags="0x4"/>
    </TTGlyph>
    <TTGlyph name="Ecircumflex" xMin="3" yMin="-17" xMax="608" yMax="916">
      <component glyphName="E" x="0" y="0" flags="0x204"/>
      <component glyphName="circumflex" x="288" y="206" flags="0x4"/>
    </TTGlyph>
    <TTGlyph name="Edieresis" xMin="3" yMin="-17" xMax="608" yMax="864">
      <component glyphName="E" x="0" y="0" flags="0x204"/>
      <component glyphName="dieresis" x="266" y="177" flags="0x4"/>
    </TTGlyph>
    <TTGlyph name="Egrave" xMin="3" yMin="-17" xMax="608" yMax="918">
      <component glyphName="E" x="0" y="0" flags="0x204"/>
      <component glyphName="grave" x="268" y="184" flags="0x4"/>
    </TTGlyph>
    <TTGlyph name="Euro" xMin="-3" yMin="-5" xMax="407" yMax="550">
      <contour>
        <pt x="81" y="292" on="1"/>
        <pt x="63" y="290" on="0"/>
        <pt x="34" y="288" on="0"/>
        <pt x="20" y="288" on="1"/>
        <pt x="10" y="288" on="0"/>
        <pt x="-1" y="298" on="0"/>
        <pt x="-3" y="312" on="0"/>
        <pt x="4" y="323" on="0"/>
        <pt x="13" y="325" on="1"/>
        <pt x="30" y="327" on="0"/>
        <pt x="71" y="328" on="0"/>
        <pt x="88" y="329" on="1"/>
        <pt x="94" y="330" on="0"/>
        <pt x="101" y="332" on="0"/>
        <pt x="104" y="338" on="1"/>
        <pt x="120" y="369" on="0"/>
        <pt x="173" y="443" on="0"/>
        <pt x="239" y="507" on="0"/>
        <pt x="315" y="550" on="0"/>
        <pt x="354" y="550" on="1"/>
        <pt x="373" y="550" on="0"/>
        <pt x="401" y="534" on="0"/>
        <pt x="406" y="517" on="1"/>
        <pt x="407" y="513" on="0"/>
        <pt x="404" y="501" on="0"/>
        <pt x="397" y="492" on="0"/>
        <pt x="388" y="489" on="0"/>
        <pt x="384" y="494" on="1"/>
        <pt x="381" y="497" on="0"/>
        <pt x="381" y="497" on="1"/>
        <pt x="377" y="504" on="0"/>
        <pt x="367" y="507" on="0"/>
        <pt x="360" y="505" on="1"/>
        <pt x="325" y="497" on="0"/>
        <pt x="269" y="458" on="0"/>
        <pt x="223" y="408" on="0"/>
        <pt x="184" y="353" on="0"/>
        <pt x="168" y="329" on="1"/>
        <pt x="190" y="328" on="0"/>
        <pt x="229" y="323" on="0"/>
        <pt x="248" y="321" on="1"/>
        <pt x="259" y="319" on="0"/>
        <pt x="257" y="308" on="0"/>
        <pt x="247" y="307" on="1"/>
        <pt x="228" y="304" on="0"/>
        <pt x="186" y="303" on="0"/>
        <pt x="162" y="298" on="1"/>
        <pt x="154" y="296" on="0"/>
        <pt x="150" y="292" on="1"/>
        <pt x="144" y="285" on="0"/>
        <pt x="132" y="249" on="0"/>
        <pt x="130" y="238" on="1"/>
        <pt x="155" y="235" on="0"/>
        <pt x="203" y="232" on="0"/>
        <pt x="227" y="227" on="1"/>
        <pt x="231" y="226" on="0"/>
        <pt x="250" y="222" on="0"/>
        <pt x="262" y="218" on="0"/>
        <pt x="261" y="213" on="0"/>
        <pt x="246" y="212" on="1"/>
        <pt x="214" y="209" on="0"/>
        <pt x="151" y="203" on="0"/>
        <pt x="119" y="201" on="1"/>
        <pt x="111" y="151" on="0"/>
        <pt x="127" y="88" on="0"/>
        <pt x="172" y="58" on="0"/>
        <pt x="243" y="58" on="0"/>
        <pt x="291" y="71" on="1"/>
        <pt x="312" y="77" on="0"/>
        <pt x="329" y="84" on="1"/>
        <pt x="348" y="93" on="0"/>
        <pt x="354" y="87" on="0"/>
        <pt x="345" y="73" on="0"/>
        <pt x="327" y="56" on="0"/>
        <pt x="323" y="53" on="1"/>
        <pt x="281" y="21" on="0"/>
        <pt x="201" y="-5" on="0"/>
        <pt x="153" y="5" on="1"/>
        <pt x="117" y="11" on="0"/>
        <pt x="73" y="54" on="0"/>
        <pt x="52" y="112" on="0"/>
        <pt x="49" y="174" on="0"/>
        <pt x="54" y="200" on="1"/>
        <pt x="45" y="202" on="0"/>
        <pt x="26" y="201" on="0"/>
        <pt x="18" y="201" on="1"/>
        <pt x="11" y="201" on="0"/>
        <pt x="4" y="209" on="0"/>
        <pt x="3" y="220" on="0"/>
        <pt x="9" y="229" on="0"/>
        <pt x="15" y="231" on="1"/>
        <pt x="26" y="234" on="0"/>
        <pt x="51" y="234" on="0"/>
        <pt x="62" y="234" on="1"/>
        <pt x="67" y="248" on="0"/>
        <pt x="76" y="276" on="0"/>
      </contour>
    </TTGlyph>
    <TTGlyph name="F" xMin="-12" yMin="-63" xMax="586" yMax="783">
      <contour>
        <pt x="16" y="324" on="1"/>
        <pt x="7" y="327" on="0"/>
        <pt x="4" y="343" on="0"/>
        <pt x="10" y="348" on="1"/>
        <pt x="27" y="365" on="0"/>
        <pt x="80" y="391" on="0"/>
        <pt x="103" y="391" on="1"/>
        <pt x="109" y="397" on="1"/>
        <pt x="131" y="445" on="0"/>
        <pt x="168" y="538" on="0"/>
        <pt x="195" y="580" on="1"/>
        <pt x="171" y="586" on="0"/>
        <pt x="121" y="601" on="0"/>
        <pt x="72" y="619" on="0"/>
        <pt x="27" y="642" on="0"/>
        <pt x="8" y="658" on="1"/>
        <pt x="7" y="658" on="0"/>
        <pt x="-4" y="667" on="0"/>
        <pt x="-12" y="677" on="0"/>
        <pt x="-12" y="684" on="0"/>
        <pt x="-1" y="683" on="1"/>
        <pt x="13" y="681" on="0"/>
        <pt x="40" y="673" on="0"/>
        <pt x="53" y="670" on="1"/>
        <pt x="109" y="657" on="0"/>
        <pt x="234" y="650" on="0"/>
        <pt x="356" y="665" on="0"/>
        <pt x="468" y="705" on="0"/>
        <pt x="512" y="741" on="1"/>
        <pt x="525" y="751" on="0"/>
        <pt x="531" y="767" on="1"/>
        <pt x="536" y="783" on="0"/>
        <pt x="558" y="779" on="0"/>
        <pt x="577" y="754" on="0"/>
        <pt x="586" y="714" on="0"/>
        <pt x="579" y="694" on="1"/>
        <pt x="567" y="662" on="0"/>
        <pt x="520" y="621" on="0"/>
        <pt x="462" y="596" on="0"/>
        <pt x="399" y="583" on="0"/>
        <pt x="369" y="580" on="1"/>
        <pt x="342" y="577" on="0"/>
        <pt x="311" y="574" on="0"/>
        <pt x="294" y="572" on="0"/>
        <pt x="287" y="572" on="0"/>
        <pt x="285" y="572" on="1"/>
        <pt x="280" y="572" on="0"/>
        <pt x="278" y="568" on="1"/>
        <pt x="270" y="550" on="0"/>
        <pt x="254" y="514" on="0"/>
        <pt x="246" y="498" on="1"/>
        <pt x="235" y="472" on="0"/>
        <pt x="214" y="422" on="0"/>
        <pt x="202" y="397" on="1"/>
        <pt x="212" y="397" on="1"/>
        <pt x="281" y="397" on="0"/>
        <pt x="371" y="402" on="0"/>
        <pt x="430" y="407" on="0"/>
        <pt x="465" y="408" on="0"/>
        <pt x="478" y="405" on="1"/>
        <pt x="487" y="402" on="0"/>
        <pt x="485" y="374" on="0"/>
        <pt x="470" y="343" on="0"/>
        <pt x="447" y="318" on="0"/>
        <pt x="437" y="318" on="1"/>
        <pt x="370" y="315" on="0"/>
        <pt x="241" y="315" on="0"/>
        <pt x="178" y="315" on="1"/>
        <pt x="171" y="315" on="0"/>
        <pt x="171" y="307" on="1"/>
        <pt x="160" y="280" on="0"/>
        <pt x="150" y="248" on="1"/>
        <pt x="145" y="232" on="0"/>
        <pt x="134" y="196" on="0"/>
        <pt x="120" y="134" on="0"/>
        <pt x="104" y="35" on="0"/>
        <pt x="94" y="-44" on="1"/>
        <pt x="94" y="-50" on="0"/>
        <pt x="92" y="-53" on="1"/>
        <pt x="86" y="-63" on="0"/>
        <pt x="75" y="-58" on="1"/>
        <pt x="63" y="-53" on="0"/>
        <pt x="46" y="-23" on="0"/>
        <pt x="36" y="16" on="0"/>
        <pt x="31" y="61" on="0"/>
        <pt x="31" y="82" on="1"/>
        <pt x="28" y="142" on="0"/>
        <pt x="59" y="258" on="0"/>
        <pt x="75" y="311" on="1"/>
        <pt x="65" y="312" on="0"/>
        <pt x="31" y="316" on="0"/>
      </contour>
    </TTGlyph>
    <TTGlyph name="G" xMin="-8" yMin="-42" xMax="586" yMax="752">
      <contour>
        <pt x="279" y="166" on="1"/>
        <pt x="325" y="200" on="0"/>
        <pt x="400" y="260" on="0"/>
        <pt x="439" y="299" on="1"/>
        <pt x="442" y="302" on="1"/>
        <pt x="416" y="298" on="0"/>
        <pt x="363" y="288" on="0"/>
        <pt x="337" y="284" on="1"/>
        <pt x="329" y="283" on="0"/>
        <pt x="308" y="288" on="0"/>
        <pt x="288" y="302" on="0"/>
        <pt x="274" y="324" on="0"/>
        <pt x="273" y="341" on="1"/>
        <pt x="273" y="352" on="0"/>
        <pt x="283" y="358" on="0"/>
        <pt x="294" y="358" on="1"/>
        <pt x="334" y="356" on="0"/>
        <pt x="413" y="367" on="0"/>
        <pt x="451" y="375" on="1"/>
        <pt x="462" y="377" on="0"/>
        <pt x="496" y="386" on="0"/>
        <pt x="531" y="394" on="0"/>
        <pt x="562" y="399" on="0"/>
        <pt x="571" y="398" on="1"/>
        <pt x="586" y="396" on="0"/>
        <pt x="586" y="367" on="0"/>
        <pt x="584" y="350" on="1"/>
        <pt x="584" y="343" on="0"/>
        <pt x="579" y="331" on="0"/>
        <pt x="576" y="326" on="1"/>
        <pt x="540" y="289" on="0"/>
        <pt x="491" y="223" on="0"/>
        <pt x="452" y="147" on="0"/>
        <pt x="416" y="53" on="0"/>
        <pt x="393" y="-11" on="1"/>
        <pt x="391" y="-16" on="0"/>
        <pt x="388" y="-29" on="0"/>
        <pt x="385" y="-34" on="1"/>
        <pt x="382" y="-39" on="0"/>
        <pt x="373" y="-42" on="0"/>
        <pt x="364" y="-41" on="0"/>
        <pt x="356" y="-35" on="0"/>
        <pt x="355" y="-31" on="1"/>
        <pt x="343" y="5" on="0"/>
        <pt x="342" y="71" on="0"/>
        <pt x="345" y="106" on="1"/>
        <pt x="272" y="59" on="0"/>
        <pt x="150" y="33" on="0"/>
        <pt x="93" y="59" on="1"/>
        <pt x="51" y="81" on="0"/>
        <pt x="25" y="125" on="1"/>
        <pt x="3" y="160" on="0"/>
        <pt x="-8" y="239" on="0"/>
        <pt x="-5" y="278" on="1"/>
        <pt x="1" y="343" on="0"/>
        <pt x="65" y="451" on="0"/>
        <pt x="101" y="498" on="1"/>
        <pt x="157" y="558" on="0"/>
        <pt x="276" y="657" on="0"/>
        <pt x="345" y="694" on="1"/>
        <pt x="380" y="712" on="0"/>
        <pt x="418" y="722" on="1"/>
        <pt x="424" y="724" on="0"/>
        <pt x="436" y="735" on="0"/>
        <pt x="443" y="740" on="1"/>
        <pt x="457" y="752" on="0"/>
        <pt x="473" y="747" on="1"/>
        <pt x="490" y="742" on="0"/>
        <pt x="509" y="715" on="0"/>
        <pt x="499" y="697" on="1"/>
        <pt x="480" y="658" on="0"/>
        <pt x="439" y="575" on="0"/>
        <pt x="419" y="536" on="1"/>
        <pt x="414" y="524" on="0"/>
        <pt x="401" y="497" on="0"/>
        <pt x="395" y="488" on="1"/>
        <pt x="384" y="477" on="0"/>
        <pt x="366" y="495" on="0"/>
        <pt x="362" y="507" on="1"/>
        <pt x="357" y="517" on="0"/>
        <pt x="353" y="545" on="0"/>
        <pt x="353" y="574" on="0"/>
        <pt x="358" y="601" on="0"/>
        <pt x="363" y="611" on="1"/>
        <pt x="298" y="565" on="0"/>
        <pt x="181" y="462" on="0"/>
        <pt x="100" y="346" on="0"/>
        <pt x="68" y="218" on="0"/>
        <pt x="88" y="147" on="1"/>
        <pt x="98" y="120" on="0"/>
        <pt x="147" y="110" on="0"/>
        <pt x="204" y="124" on="0"/>
        <pt x="260" y="153" on="0"/>
      </contour>
    </TTGlyph>
    <TTGlyph name="H" xMin="-1" yMin="-100" xMax="647" yMax="754">
      <contour>
        <pt x="423" y="359" on="1"/>
        <pt x="363" y="349" on="0"/>
        <pt x="262" y="328" on="0"/>
        <pt x="211" y="317" on="1"/>
        <pt x="208" y="317" on="0"/>
        <pt x="203" y="314" on="0"/>
        <pt x="204" y="311" on="1"/>
        <pt x="187" y="278" on="0"/>
        <pt x="153" y="195" on="0"/>
        <pt x="121" y="108" on="0"/>
        <pt x="92" y="24" on="0"/>
        <pt x="79" y="-10" on="1"/>
        <pt x="75" y="-19" on="0"/>
        <pt x="65" y="-50" on="0"/>
        <pt x="55" y="-80" on="0"/>
        <pt x="45" y="-100" on="0"/>
        <pt x="42" y="-97" on="1"/>
        <pt x="33" y="-98" on="0"/>
        <pt x="19" y="-82" on="0"/>
        <pt x="14" y="-69" on="1"/>
        <pt x="0" y="-32" on="0"/>
        <pt x="11" y="58" on="0"/>
        <pt x="41" y="153" on="0"/>
        <pt x="80" y="247" on="0"/>
        <pt x="94" y="286" on="1"/>
        <pt x="66" y="282" on="1"/>
        <pt x="54" y="277" on="0"/>
        <pt x="25" y="294" on="0"/>
        <pt x="5" y="320" on="0"/>
        <pt x="-1" y="347" on="0"/>
        <pt x="10" y="353" on="1"/>
        <pt x="8" y="351" on="0"/>
        <pt x="34" y="358" on="0"/>
        <pt x="73" y="368" on="0"/>
        <pt x="117" y="380" on="0"/>
        <pt x="133" y="385" on="1"/>
        <pt x="141" y="387" on="0"/>
        <pt x="147" y="399" on="0"/>
        <pt x="152" y="407" on="1"/>
        <pt x="160" y="420" on="0"/>
        <pt x="188" y="473" on="0"/>
        <pt x="220" y="537" on="0"/>
        <pt x="251" y="603" on="0"/>
        <pt x="276" y="658" on="0"/>
        <pt x="290" y="693" on="0"/>
        <pt x="289" y="693" on="1"/>
        <pt x="281" y="692" on="1"/>
        <pt x="270" y="688" on="0"/>
        <pt x="233" y="670" on="0"/>
        <pt x="189" y="644" on="0"/>
        <pt x="143" y="613" on="0"/>
        <pt x="104" y="583" on="0"/>
        <pt x="75" y="555" on="0"/>
        <pt x="70" y="545" on="1"/>
        <pt x="49" y="552" on="0"/>
        <pt x="50" y="588" on="0"/>
        <pt x="69" y="627" on="0"/>
        <pt x="95" y="660" on="0"/>
        <pt x="101" y="665" on="1"/>
        <pt x="118" y="679" on="0"/>
        <pt x="167" y="712" on="0"/>
        <pt x="220" y="738" on="0"/>
        <pt x="273" y="754" on="0"/>
        <pt x="295" y="751" on="1"/>
        <pt x="297" y="751" on="1"/>
        <pt x="318" y="751" on="0"/>
        <pt x="354" y="716" on="0"/>
        <pt x="358" y="697" on="1"/>
        <pt x="363" y="677" on="0"/>
        <pt x="355" y="639" on="0"/>
        <pt x="348" y="619" on="1"/>
        <pt x="328" y="577" on="0"/>
        <pt x="300" y="515" on="0"/>
        <pt x="279" y="469" on="0"/>
        <pt x="262" y="432" on="0"/>
        <pt x="253" y="416" on="1"/>
        <pt x="255" y="416" on="1"/>
        <pt x="288" y="423" on="0"/>
        <pt x="338" y="432" on="0"/>
        <pt x="385" y="438" on="0"/>
        <pt x="435" y="443" on="0"/>
        <pt x="468" y="446" on="1"/>
        <pt x="479" y="446" on="0"/>
        <pt x="481" y="455" on="1"/>
        <pt x="501" y="508" on="0"/>
        <pt x="544" y="604" on="0"/>
        <pt x="567" y="652" on="1"/>
        <pt x="579" y="680" on="1"/>
        <pt x="586" y="695" on="0"/>
        <pt x="610" y="694" on="0"/>
        <pt x="632" y="677" on="0"/>
        <pt x="647" y="652" on="0"/>
        <pt x="646" y="642" on="1"/>
        <pt x="643" y="628" on="0"/>
        <pt x="634" y="617" on="0"/>
        <pt x="631" y="604" on="1"/>
        <pt x="614" y="559" on="0"/>
        <pt x="582" y="479" on="0"/>
        <pt x="563" y="441" on="1"/>
        <pt x="565" y="441" on="0"/>
        <pt x="569" y="440" on="0"/>
        <pt x="571" y="440" on="1"/>
        <pt x="577" y="439" on="0"/>
        <pt x="613" y="431" on="0"/>
        <pt x="628" y="426" on="1"/>
        <pt x="637" y="422" on="0"/>
        <pt x="644" y="407" on="0"/>
        <pt x="641" y="393" on="0"/>
        <pt x="630" y="382" on="0"/>
        <pt x="621" y="382" on="1"/>
        <pt x="604" y="381" on="0"/>
        <pt x="585" y="379" on="0"/>
        <pt x="570" y="377" on="0"/>
        <pt x="554" y="374" on="0"/>
        <pt x="539" y="372" on="1"/>
        <pt x="531" y="368" on="0"/>
        <pt x="531" y="365" on="1"/>
        <pt x="512" y="319" on="0"/>
        <pt x="472" y="213" on="0"/>
        <pt x="433" y="104" on="0"/>
        <pt x="397" y="-1" on="0"/>
        <pt x="381" y="-47" on="1"/>
        <pt x="376" y="-59" on="0"/>
        <pt x="356" y="-53" on="0"/>
        <pt x="348" y="-42" on="1"/>
        <pt x="338" y="-30" on="0"/>
        <pt x="340" y="31" on="0"/>
        <pt x="352" y="100" on="0"/>
        <pt x="368" y="162" on="0"/>
        <pt x="372" y="176" on="1"/>
        <pt x="387" y="233" on="0"/>
        <pt x="426" y="328" on="0"/>
        <pt x="440" y="361" on="1"/>
        <pt x="436" y="361" on="0"/>
        <pt x="428" y="360" on="0"/>
      </contour>
    </TTGlyph>
    <TTGlyph name="I" xMin="1" yMin="-75" xMax="607" yMax="731">
      <contour>
        <pt x="301" y="625" on="1"/>
        <pt x="253" y="609" on="0"/>
        <pt x="175" y="582" on="0"/>
        <pt x="134" y="562" on="1"/>
        <pt x="117" y="553" on="0"/>
        <pt x="108" y="565" on="1"/>
        <pt x="100" y="585" on="0"/>
        <pt x="115" y="625" on="0"/>
        <pt x="132" y="639" on="1"/>
        <pt x="169" y="667" on="0"/>
        <pt x="289" y="709" on="0"/>
        <pt x="418" y="731" on="0"/>
        <pt x="541" y="730" on="0"/>
        <pt x="581" y="715" on="1"/>
        <pt x="596" y="710" on="0"/>
        <pt x="607" y="680" on="0"/>
        <pt x="602" y="665" on="1"/>
        <pt x="600" y="657" on="0"/>
        <pt x="585" y="643" on="0"/>
        <pt x="567" y="635" on="0"/>
        <pt x="547" y="635" on="0"/>
        <pt x="539" y="641" on="1"/>
        <pt x="534" y="645" on="0"/>
        <pt x="518" y="647" on="0"/>
        <pt x="511" y="648" on="1"/>
        <pt x="487" y="649" on="0"/>
        <pt x="420" y="647" on="0"/>
        <pt x="391" y="642" on="1"/>
        <pt x="377" y="604" on="0"/>
        <pt x="350" y="531" on="0"/>
        <pt x="336" y="495" on="1"/>
        <pt x="314" y="439" on="0"/>
        <pt x="275" y="327" on="0"/>
        <pt x="246" y="214" on="0"/>
        <pt x="229" y="100" on="0"/>
        <pt x="229" y="41" on="1"/>
        <pt x="258" y="42" on="0"/>
        <pt x="314" y="42" on="0"/>
        <pt x="340" y="36" on="1"/>
        <pt x="388" y="24" on="0"/>
        <pt x="429" y="-9" on="1"/>
        <pt x="435" y="-15" on="0"/>
        <pt x="443" y="-35" on="0"/>
        <pt x="432" y="-38" on="1"/>
        <pt x="427" y="-39" on="0"/>
        <pt x="415" y="-39" on="0"/>
        <pt x="410" y="-39" on="1"/>
        <pt x="321" y="-33" on="0"/>
        <pt x="154" y="-35" on="0"/>
        <pt x="69" y="-57" on="1"/>
        <pt x="61" y="-59" on="0"/>
        <pt x="48" y="-64" on="0"/>
        <pt x="40" y="-67" on="1"/>
        <pt x="21" y="-75" on="0"/>
        <pt x="1" y="-52" on="0"/>
        <pt x="4" y="-35" on="1"/>
        <pt x="6" y="-19" on="0"/>
        <pt x="26" y="-4" on="0"/>
        <pt x="37" y="1" on="1"/>
        <pt x="69" y="15" on="0"/>
        <pt x="131" y="26" on="0"/>
        <pt x="162" y="34" on="1"/>
        <pt x="146" y="96" on="0"/>
        <pt x="156" y="223" on="0"/>
        <pt x="191" y="348" on="0"/>
        <pt x="239" y="470" on="0"/>
        <pt x="261" y="527" on="1"/>
        <pt x="273" y="556" on="0"/>
        <pt x="293" y="602" on="0"/>
      </contour>
    </TTGlyph>
    <TTGlyph name="Iacute" xMin="1" yMin="-75" xMax="607" yMax="906">
      <component glyphName="I" x="0" y="0" flags="0x204"/>
      <component glyphName="acute" x="245" y="172" flags="0x4"/>
    </TTGlyph>
    <TTGlyph name="Icircumflex" xMin="1" yMin="-75" xMax="607" yMax="912">
      <component glyphName="I" x="0" y="0" flags="0x204"/>
      <component glyphName="circumflex" x="236" y="202" flags="0x4"/>
    </TTGlyph>
    <TTGlyph name="Idieresis" xMin="1" yMin="-75" xMax="607" yMax="862">
      <component glyphName="I" x="0" y="0" flags="0x204"/>
      <component glyphName="dieresis" x="197" y="175" flags="0x4"/>
    </TTGlyph>
    <TTGlyph name="Igrave" xMin="1" yMin="-75" xMax="607" yMax="909">
      <component glyphName="I" x="0" y="0" flags="0x204"/>
      <component glyphName="grave" x="204" y="175" flags="0x4"/>
    </TTGlyph>
    <TTGlyph name="J" xMin="-2" yMin="-72" xMax="758" yMax="704">
      <contour>
        <pt x="531" y="613" on="1"/>
        <pt x="520" y="613" on="0"/>
        <pt x="501" y="614" on="0"/>
        <pt x="492" y="616" on="1"/>
        <pt x="426" y="618" on="0"/>
        <pt x="298" y="620" on="0"/>
        <pt x="234" y="622" on="1"/>
        <pt x="220" y="622" on="0"/>
        <pt x="202" y="627" on="1"/>
        <pt x="188" y="633" on="0"/>
        <pt x="187" y="651" on="1"/>
        <pt x="186" y="659" on="0"/>
        <pt x="194" y="672" on="0"/>
        <pt x="200" y="677" on="1"/>
        <pt x="213" y="686" on="0"/>
        <pt x="240" y="692" on="0"/>
        <pt x="254" y="693" on="1"/>
        <pt x="314" y="700" on="0"/>
        <pt x="431" y="704" on="0"/>
        <pt x="547" y="701" on="0"/>
        <pt x="662" y="696" on="0"/>
        <pt x="720" y="695" on="1"/>
        <pt x="737" y="693" on="0"/>
        <pt x="758" y="666" on="0"/>
        <pt x="756" y="649" on="1"/>
        <pt x="754" y="629" on="0"/>
        <pt x="726" y="604" on="0"/>
        <pt x="708" y="605" on="1"/>
        <pt x="706" y="605" on="0"/>
        <pt x="703" y="604" on="0"/>
        <pt x="701" y="605" on="1"/>
        <pt x="689" y="606" on="0"/>
        <pt x="656" y="600" on="0"/>
        <pt x="626" y="587" on="0"/>
        <pt x="605" y="568" on="0"/>
        <pt x="605" y="557" on="1"/>
        <pt x="618" y="489" on="0"/>
        <pt x="616" y="384" on="0"/>
        <pt x="601" y="330" on="1"/>
        <pt x="577" y="252" on="0"/>
        <pt x="470" y="107" on="0"/>
        <pt x="334" y="-5" on="0"/>
        <pt x="182" y="-72" on="0"/>
        <pt x="113" y="-71" on="1"/>
        <pt x="68" y="-63" on="0"/>
        <pt x="14" y="7" on="0"/>
        <pt x="3" y="57" on="1"/>
        <pt x="-2" y="81" on="0"/>
        <pt x="4" y="132" on="0"/>
        <pt x="20" y="182" on="0"/>
        <pt x="43" y="229" on="0"/>
        <pt x="56" y="248" on="1"/>
        <pt x="110" y="325" on="0"/>
        <pt x="246" y="425" on="0"/>
        <pt x="321" y="457" on="1"/>
        <pt x="364" y="474" on="0"/>
        <pt x="453" y="479" on="0"/>
        <pt x="493" y="465" on="1"/>
        <pt x="500" y="463" on="0"/>
        <pt x="510" y="456" on="1"/>
        <pt x="522" y="442" on="0"/>
        <pt x="505" y="431" on="1"/>
        <pt x="501" y="427" on="0"/>
        <pt x="493" y="425" on="0"/>
        <pt x="488" y="423" on="1"/>
        <pt x="436" y="405" on="0"/>
        <pt x="332" y="368" on="0"/>
        <pt x="236" y="317" on="0"/>
        <pt x="152" y="246" on="0"/>
        <pt x="119" y="194" on="1"/>
        <pt x="108" y="179" on="0"/>
        <pt x="87" y="141" on="0"/>
        <pt x="71" y="100" on="0"/>
        <pt x="63" y="59" on="0"/>
        <pt x="65" y="42" on="1"/>
        <pt x="66" y="22" on="0"/>
        <pt x="102" y="12" on="0"/>
        <pt x="148" y="17" on="0"/>
        <pt x="193" y="30" on="0"/>
        <pt x="204" y="33" on="1"/>
        <pt x="270" y="58" on="0"/>
        <pt x="400" y="151" on="0"/>
        <pt x="498" y="272" on="0"/>
        <pt x="550" y="418" on="0"/>
        <pt x="539" y="496" on="1"/>
        <pt x="538" y="507" on="0"/>
        <pt x="528" y="524" on="0"/>
        <pt x="523" y="531" on="1"/>
        <pt x="509" y="548" on="0"/>
        <pt x="512" y="589" on="0"/>
        <pt x="528" y="609" on="1"/>
        <pt x="528" y="609" on="0"/>
      </contour>
    </TTGlyph>
    <TTGlyph name="K" xMin="-5" yMin="-77" xMax="708" yMax="729">
      <contour>
        <pt x="306" y="306" on="1"/>
        <pt x="321" y="259" on="0"/>
        <pt x="368" y="151" on="0"/>
        <pt x="432" y="55" on="0"/>
        <pt x="514" y="-15" on="0"/>
        <pt x="564" y="-23" on="1"/>
        <pt x="579" y="-25" on="0"/>
        <pt x="607" y="-24" on="0"/>
        <pt x="615" y="-18" on="1"/>
        <pt x="618" y="-16" on="0"/>
        <pt x="623" y="-18" on="0"/>
        <pt x="622" y="-24" on="0"/>
        <pt x="613" y="-35" on="0"/>
        <pt x="601" y="-43" on="1"/>
        <pt x="551" y="-77" on="0"/>
        <pt x="468" y="-77" on="0"/>
        <pt x="397" y="-33" on="0"/>
        <pt x="338" y="44" on="0"/>
        <pt x="290" y="133" on="0"/>
        <pt x="251" y="223" on="0"/>
        <pt x="235" y="256" on="1"/>
        <pt x="217" y="241" on="0"/>
        <pt x="156" y="173" on="0"/>
        <pt x="96" y="88" on="0"/>
        <pt x="51" y="-4" on="0"/>
        <pt x="48" y="-42" on="1"/>
        <pt x="46" y="-58" on="0"/>
        <pt x="25" y="-40" on="0"/>
        <pt x="4" y="6" on="0"/>
        <pt x="-5" y="71" on="0"/>
        <pt x="5" y="102" on="1"/>
        <pt x="27" y="169" on="0"/>
        <pt x="86" y="296" on="0"/>
        <pt x="152" y="417" on="0"/>
        <pt x="220" y="535" on="0"/>
        <pt x="251" y="595" on="1"/>
        <pt x="258" y="609" on="0"/>
        <pt x="276" y="641" on="0"/>
        <pt x="275" y="653" on="1"/>
        <pt x="275" y="658" on="0"/>
        <pt x="248" y="652" on="0"/>
        <pt x="208" y="633" on="0"/>
        <pt x="158" y="605" on="0"/>
        <pt x="110" y="570" on="0"/>
        <pt x="71" y="530" on="0"/>
        <pt x="61" y="509" on="1"/>
        <pt x="34" y="513" on="0"/>
        <pt x="14" y="545" on="0"/>
        <pt x="19" y="586" on="0"/>
        <pt x="46" y="627" on="0"/>
        <pt x="66" y="641" on="1"/>
        <pt x="94" y="660" on="0"/>
        <pt x="147" y="686" on="0"/>
        <pt x="185" y="702" on="1"/>
        <pt x="216" y="714" on="0"/>
        <pt x="280" y="729" on="0"/>
        <pt x="300" y="720" on="1"/>
        <pt x="320" y="712" on="0"/>
        <pt x="343" y="675" on="0"/>
        <pt x="355" y="649" on="1"/>
        <pt x="361" y="637" on="0"/>
        <pt x="359" y="610" on="0"/>
        <pt x="351" y="583" on="0"/>
        <pt x="338" y="556" on="0"/>
        <pt x="332" y="544" on="1"/>
        <pt x="200" y="319" on="1"/>
        <pt x="226" y="344" on="0"/>
        <pt x="294" y="407" on="0"/>
        <pt x="371" y="471" on="0"/>
        <pt x="454" y="530" on="0"/>
        <pt x="539" y="572" on="0"/>
        <pt x="622" y="592" on="0"/>
        <pt x="661" y="585" on="1"/>
        <pt x="668" y="584" on="0"/>
        <pt x="689" y="572" on="0"/>
        <pt x="705" y="558" on="0"/>
        <pt x="708" y="546" on="0"/>
        <pt x="697" y="545" on="1"/>
        <pt x="693" y="545" on="0"/>
        <pt x="683" y="543" on="1"/>
        <pt x="637" y="534" on="0"/>
        <pt x="529" y="483" on="0"/>
        <pt x="425" y="416" on="0"/>
        <pt x="335" y="340" on="0"/>
      </contour>
    </TTGlyph>
    <TTGlyph name="L" xMin="-13" yMin="-77" xMax="711" yMax="723">
      <contour>
        <pt x="311" y="609" on="1"/>
        <pt x="305" y="606" on="0"/>
        <pt x="277" y="598" on="0"/>
        <pt x="245" y="592" on="0"/>
        <pt x="215" y="590" on="0"/>
        <pt x="199" y="596" on="0"/>
        <pt x="204" y="612" on="0"/>
        <pt x="222" y="627" on="1"/>
        <pt x="263" y="655" on="0"/>
        <pt x="340" y="703" on="0"/>
        <pt x="382" y="717" on="1"/>
        <pt x="400" y="723" on="0"/>
        <pt x="432" y="709" on="0"/>
        <pt x="455" y="680" on="0"/>
        <pt x="467" y="641" on="0"/>
        <pt x="464" y="623" on="1"/>
        <pt x="463" y="619" on="0"/>
        <pt x="458" y="614" on="0"/>
        <pt x="456" y="610" on="1"/>
        <pt x="424" y="554" on="0"/>
        <pt x="350" y="420" on="0"/>
        <pt x="278" y="275" on="0"/>
        <pt x="213" y="127" on="0"/>
        <pt x="191" y="57" on="1"/>
        <pt x="188" y="41" on="1"/>
        <pt x="246" y="52" on="0"/>
        <pt x="382" y="76" on="0"/>
        <pt x="519" y="82" on="0"/>
        <pt x="646" y="59" on="0"/>
        <pt x="695" y="23" on="1"/>
        <pt x="699" y="20" on="0"/>
        <pt x="707" y="9" on="0"/>
        <pt x="711" y="-4" on="0"/>
        <pt x="708" y="-14" on="0"/>
        <pt x="701" y="-15" on="1"/>
        <pt x="621" y="1" on="0"/>
        <pt x="458" y="4" on="0"/>
        <pt x="296" y="-13" on="0"/>
        <pt x="139" y="-49" on="0"/>
        <pt x="67" y="-72" on="1"/>
        <pt x="58" y="-75" on="0"/>
        <pt x="35" y="-77" on="0"/>
        <pt x="13" y="-72" on="0"/>
        <pt x="-5" y="-60" on="0"/>
        <pt x="-8" y="-50" on="1"/>
        <pt x="-13" y="-36" on="0"/>
        <pt x="1" y="-9" on="0"/>
        <pt x="15" y="-4" on="1"/>
        <pt x="37" y="4" on="0"/>
        <pt x="81" y="18" on="0"/>
        <pt x="102" y="24" on="1"/>
        <pt x="113" y="27" on="0"/>
        <pt x="114" y="37" on="1"/>
        <pt x="128" y="121" on="0"/>
        <pt x="189" y="293" on="0"/>
        <pt x="262" y="452" on="0"/>
        <pt x="336" y="588" on="0"/>
        <pt x="365" y="635" on="1"/>
        <pt x="351" y="629" on="0"/>
        <pt x="325" y="615" on="0"/>
      </contour>
    </TTGlyph>
    <TTGlyph name="M" xMin="-12" yMin="-71" xMax="904" yMax="736">
      <contour>
        <pt x="345" y="291" on="1"/>
        <pt x="355" y="328" on="0"/>
        <pt x="386" y="407" on="0"/>
        <pt x="421" y="485" on="0"/>
        <pt x="457" y="559" on="0"/>
        <pt x="473" y="592" on="1"/>
        <pt x="426" y="563" on="0"/>
        <pt x="331" y="481" on="0"/>
        <pt x="241" y="381" on="0"/>
        <pt x="161" y="265" on="0"/>
        <pt x="98" y="140" on="0"/>
        <pt x="58" y="8" on="0"/>
        <pt x="53" y="-59" on="1"/>
        <pt x="48" y="-70" on="0"/>
        <pt x="34" y="-71" on="0"/>
        <pt x="25" y="-69" on="1"/>
        <pt x="2" y="-63" on="0"/>
        <pt x="-12" y="-8" on="0"/>
        <pt x="-6" y="65" on="0"/>
        <pt x="13" y="143" on="0"/>
        <pt x="22" y="173" on="1"/>
        <pt x="47" y="253" on="0"/>
        <pt x="106" y="391" on="0"/>
        <pt x="170" y="523" on="0"/>
        <pt x="235" y="655" on="0"/>
        <pt x="266" y="730" on="1"/>
        <pt x="272" y="736" on="0"/>
        <pt x="301" y="727" on="0"/>
        <pt x="331" y="707" on="0"/>
        <pt x="355" y="680" on="0"/>
        <pt x="355" y="668" on="1"/>
        <pt x="355" y="655" on="0"/>
        <pt x="331" y="604" on="0"/>
        <pt x="298" y="543" on="0"/>
        <pt x="263" y="478" on="0"/>
        <pt x="252" y="451" on="1"/>
        <pt x="313" y="517" on="0"/>
        <pt x="437" y="637" on="0"/>
        <pt x="509" y="682" on="1"/>
        <pt x="526" y="691" on="0"/>
        <pt x="557" y="681" on="0"/>
        <pt x="577" y="654" on="0"/>
        <pt x="585" y="617" on="0"/>
        <pt x="579" y="600" on="1"/>
        <pt x="571" y="581" on="0"/>
        <pt x="547" y="522" on="0"/>
        <pt x="521" y="458" on="0"/>
        <pt x="497" y="398" on="0"/>
        <pt x="490" y="380" on="1"/>
        <pt x="521" y="420" on="0"/>
        <pt x="613" y="510" on="0"/>
        <pt x="709" y="593" on="0"/>
        <pt x="797" y="662" on="0"/>
        <pt x="826" y="682" on="1"/>
        <pt x="840" y="692" on="0"/>
        <pt x="873" y="668" on="0"/>
        <pt x="897" y="629" on="0"/>
        <pt x="904" y="589" on="0"/>
        <pt x="894" y="583" on="1"/>
        <pt x="846" y="501" on="0"/>
        <pt x="773" y="361" on="0"/>
        <pt x="722" y="221" on="0"/>
        <pt x="697" y="73" on="0"/>
        <pt x="697" y="-16" on="1"/>
        <pt x="697" y="-21" on="0"/>
        <pt x="687" y="-24" on="0"/>
        <pt x="684" y="-24" on="1"/>
        <pt x="667" y="-23" on="0"/>
        <pt x="644" y="-15" on="0"/>
        <pt x="635" y="-8" on="1"/>
        <pt x="605" y="16" on="0"/>
        <pt x="596" y="112" on="0"/>
        <pt x="621" y="230" on="0"/>
        <pt x="669" y="360" on="0"/>
        <pt x="724" y="477" on="0"/>
        <pt x="776" y="569" on="0"/>
        <pt x="791" y="591" on="1"/>
        <pt x="746" y="564" on="0"/>
        <pt x="645" y="473" on="0"/>
        <pt x="546" y="369" on="0"/>
        <pt x="457" y="261" on="0"/>
        <pt x="426" y="218" on="1"/>
        <pt x="416" y="214" on="0"/>
        <pt x="387" y="221" on="0"/>
        <pt x="360" y="241" on="0"/>
        <pt x="343" y="271" on="0"/>
      </contour>
    </TTGlyph>
    <TTGlyph name="N" xMin="0" yMin="-125" xMax="736" yMax="715">
      <contour>
        <pt x="624" y="591" on="1"/>
        <pt x="540" y="543" on="0"/>
        <pt x="386" y="417" on="0"/>
        <pt x="248" y="277" on="0"/>
        <pt x="128" y="129" on="0"/>
        <pt x="78" y="59" on="1"/>
        <pt x="68" y="45" on="0"/>
        <pt x="57" y="18" on="0"/>
        <pt x="50" y="6" on="1"/>
        <pt x="44" y="-5" on="0"/>
        <pt x="27" y="3" on="0"/>
        <pt x="11" y="28" on="0"/>
        <pt x="0" y="62" on="0"/>
        <pt x="0" y="77" on="1"/>
        <pt x="4" y="169" on="0"/>
        <pt x="31" y="324" on="0"/>
        <pt x="71" y="469" on="0"/>
        <pt x="121" y="612" on="0"/>
        <pt x="147" y="693" on="1"/>
        <pt x="152" y="709" on="0"/>
        <pt x="172" y="715" on="0"/>
        <pt x="195" y="705" on="0"/>
        <pt x="219" y="682" on="0"/>
        <pt x="237" y="654" on="0"/>
        <pt x="246" y="626" on="0"/>
        <pt x="244" y="616" on="1"/>
        <pt x="234" y="577" on="0"/>
        <pt x="200" y="497" on="0"/>
        <pt x="156" y="392" on="0"/>
        <pt x="106" y="249" on="0"/>
        <pt x="79" y="148" on="1"/>
        <pt x="130" y="206" on="0"/>
        <pt x="254" y="354" on="0"/>
        <pt x="401" y="500" on="0"/>
        <pt x="571" y="630" on="0"/>
        <pt x="668" y="671" on="1"/>
        <pt x="683" y="678" on="0"/>
        <pt x="709" y="661" on="0"/>
        <pt x="720" y="650" on="1"/>
        <pt x="736" y="636" on="0"/>
        <pt x="733" y="597" on="0"/>
        <pt x="726" y="583" on="1"/>
        <pt x="685" y="515" on="0"/>
        <pt x="614" y="355" on="0"/>
        <pt x="557" y="187" on="0"/>
        <pt x="515" y="21" on="0"/>
        <pt x="504" y="-52" on="1"/>
        <pt x="502" y="-68" on="0"/>
        <pt x="500" y="-93" on="0"/>
        <pt x="500" y="-112" on="1"/>
        <pt x="500" y="-125" on="0"/>
        <pt x="491" y="-125" on="1"/>
        <pt x="485" y="-125" on="0"/>
        <pt x="473" y="-110" on="0"/>
        <pt x="469" y="-100" on="1"/>
        <pt x="452" y="-55" on="0"/>
        <pt x="449" y="58" on="0"/>
        <pt x="466" y="180" on="0"/>
        <pt x="502" y="308" on="0"/>
        <pt x="547" y="432" on="0"/>
        <pt x="599" y="545" on="0"/>
      </contour>
    </TTGlyph>
    <TTGlyph name="Ntilde" xMin="0" yMin="-125" xMax="736" yMax="875">
      <component glyphName="N" x="0" y="0" flags="0x204"/>
      <component glyphName="tilde" x="335" y="181" flags="0x4"/>
    </TTGlyph>
    <TTGlyph name="O" xMin="1" yMin="-20" xMax="570" yMax="730">
      <contour>
        <pt x="445" y="284" on="1"/>
        <pt x="477" y="281" on="0"/>
        <pt x="518" y="283" on="0"/>
        <pt x="548" y="286" on="1"/>
        <pt x="570" y="289" on="0"/>
        <pt x="570" y="276" on="0"/>
        <pt x="551" y="258" on="0"/>
        <pt x="525" y="241" on="0"/>
        <pt x="521" y="240" on="1"/>
        <pt x="504" y="232" on="0"/>
        <pt x="478" y="221" on="0"/>
        <pt x="452" y="214" on="0"/>
        <pt x="426" y="212" on="0"/>
        <pt x="410" y="212" on="1"/>
        <pt x="392" y="180" on="0"/>
        <pt x="338" y="99" on="0"/>
        <pt x="271" y="28" on="0"/>
        <pt x="192" y="-20" on="0"/>
        <pt x="150" y="-20" on="1"/>
        <pt x="102" y="-19" on="0"/>
        <pt x="43" y="23" on="0"/>
        <pt x="11" y="85" on="0"/>
        <pt x="1" y="155" on="0"/>
        <pt x="1" y="184" on="1"/>
        <pt x="1" y="226" on="0"/>
        <pt x="9" y="306" on="0"/>
        <pt x="17" y="346" on="1"/>
        <pt x="22" y="372" on="0"/>
        <pt x="34" y="424" on="0"/>
        <pt x="40" y="451" on="1"/>
        <pt x="47" y="478" on="0"/>
        <pt x="83" y="488" on="0"/>
        <pt x="117" y="473" on="0"/>
        <pt x="139" y="441" on="0"/>
        <pt x="132" y="426" on="1"/>
        <pt x="121" y="400" on="0"/>
        <pt x="99" y="313" on="0"/>
        <pt x="84" y="215" on="0"/>
        <pt x="78" y="120" on="0"/>
        <pt x="84" y="87" on="1"/>
        <pt x="88" y="64" on="0"/>
        <pt x="109" y="27" on="0"/>
        <pt x="124" y="29" on="1"/>
        <pt x="142" y="27" on="0"/>
        <pt x="199" y="70" on="0"/>
        <pt x="257" y="132" on="0"/>
        <pt x="307" y="202" on="0"/>
        <pt x="318" y="227" on="1"/>
        <pt x="279" y="242" on="0"/>
        <pt x="217" y="302" on="0"/>
        <pt x="173" y="380" on="0"/>
        <pt x="150" y="469" on="0"/>
        <pt x="153" y="558" on="0"/>
        <pt x="183" y="639" on="0"/>
        <pt x="214" y="670" on="1"/>
        <pt x="255" y="710" on="0"/>
        <pt x="346" y="730" on="0"/>
        <pt x="391" y="713" on="1"/>
        <pt x="429" y="699" on="0"/>
        <pt x="471" y="641" on="0"/>
        <pt x="488" y="565" on="0"/>
        <pt x="486" y="478" on="0"/>
        <pt x="472" y="391" on="0"/>
        <pt x="453" y="313" on="0"/>
      </contour>
      <contour>
        <pt x="336" y="677" on="1"/>
        <pt x="298" y="663" on="0"/>
        <pt x="253" y="605" on="0"/>
        <pt x="234" y="532" on="0"/>
        <pt x="239" y="450" on="0"/>
        <pt x="267" y="375" on="0"/>
        <pt x="315" y="313" on="0"/>
        <pt x="348" y="296" on="1"/>
        <pt x="364" y="326" on="0"/>
        <pt x="390" y="401" on="0"/>
        <pt x="404" y="481" on="0"/>
        <pt x="406" y="559" on="0"/>
        <pt x="393" y="624" on="0"/>
        <pt x="362" y="669" on="0"/>
      </contour>
    </TTGlyph>
    <TTGlyph name="OE" xMin="-2" yMin="-20" xMax="895" yMax="748">
      <contour>
        <pt x="380" y="-4" on="1"/>
        <pt x="366" y="1" on="0"/>
        <pt x="342" y="16" on="0"/>
        <pt x="333" y="27" on="1"/>
        <pt x="322" y="36" on="0"/>
        <pt x="309" y="56" on="0"/>
        <pt x="304" y="67" on="1"/>
        <pt x="269" y="30" on="0"/>
        <pt x="190" y="-20" on="0"/>
        <pt x="147" y="-20" on="1"/>
        <pt x="99" y="-19" on="0"/>
        <pt x="40" y="23" on="0"/>
        <pt x="8" y="85" on="0"/>
        <pt x="-2" y="155" on="0"/>
        <pt x="-2" y="184" on="1"/>
        <pt x="-2" y="226" on="0"/>
        <pt x="6" y="306" on="0"/>
        <pt x="14" y="346" on="1"/>
        <pt x="37" y="451" on="1"/>
        <pt x="44" y="478" on="0"/>
        <pt x="80" y="488" on="0"/>
        <pt x="114" y="473" on="0"/>
        <pt x="136" y="441" on="0"/>
        <pt x="129" y="426" on="1"/>
        <pt x="118" y="400" on="0"/>
        <pt x="96" y="313" on="0"/>
        <pt x="81" y="215" on="0"/>
        <pt x="75" y="120" on="0"/>
        <pt x="81" y="87" on="1"/>
        <pt x="85" y="64" on="0"/>
        <pt x="106" y="27" on="0"/>
        <pt x="121" y="29" on="1"/>
        <pt x="139" y="27" on="0"/>
        <pt x="196" y="70" on="0"/>
        <pt x="254" y="132" on="0"/>
        <pt x="304" y="202" on="0"/>
        <pt x="315" y="227" on="1"/>
        <pt x="276" y="242" on="0"/>
        <pt x="214" y="302" on="0"/>
        <pt x="170" y="380" on="0"/>
        <pt x="147" y="469" on="0"/>
        <pt x="150" y="558" on="0"/>
        <pt x="180" y="639" on="0"/>
        <pt x="211" y="670" on="1"/>
        <pt x="252" y="710" on="0"/>
        <pt x="343" y="730" on="0"/>
        <pt x="388" y="713" on="1"/>
        <pt x="438" y="695" on="0"/>
        <pt x="481" y="605" on="0"/>
        <pt x="483" y="549" on="1"/>
        <pt x="515" y="588" on="0"/>
        <pt x="598" y="657" on="0"/>
        <pt x="686" y="709" on="0"/>
        <pt x="770" y="742" on="0"/>
        <pt x="803" y="745" on="1"/>
        <pt x="835" y="748" on="0"/>
        <pt x="857" y="734" on="1"/>
        <pt x="871" y="727" on="0"/>
        <pt x="895" y="708" on="0"/>
        <pt x="893" y="691" on="1"/>
        <pt x="885" y="640" on="0"/>
        <pt x="879" y="543" on="0"/>
        <pt x="879" y="493" on="1"/>
        <pt x="877" y="487" on="0"/>
        <pt x="877" y="477" on="0"/>
        <pt x="870" y="475" on="1"/>
        <pt x="855" y="470" on="0"/>
        <pt x="841" y="484" on="1"/>
        <pt x="821" y="503" on="0"/>
        <pt x="803" y="546" on="0"/>
        <pt x="799" y="591" on="0"/>
        <pt x="807" y="637" on="0"/>
        <pt x="814" y="660" on="1"/>
        <pt x="812" y="665" on="0"/>
        <pt x="794" y="662" on="1"/>
        <pt x="771" y="658" on="0"/>
        <pt x="714" y="632" on="0"/>
        <pt x="651" y="595" on="0"/>
        <pt x="590" y="550" on="0"/>
        <pt x="537" y="503" on="0"/>
        <pt x="498" y="456" on="0"/>
        <pt x="490" y="437" on="1"/>
        <pt x="484" y="423" on="0"/>
        <pt x="493" y="403" on="0"/>
        <pt x="515" y="403" on="1"/>
        <pt x="536" y="403" on="0"/>
        <pt x="578" y="412" on="0"/>
        <pt x="629" y="430" on="0"/>
        <pt x="694" y="458" on="0"/>
        <pt x="738" y="478" on="1"/>
        <pt x="753" y="482" on="0"/>
        <pt x="756" y="462" on="0"/>
        <pt x="748" y="435" on="0"/>
        <pt x="734" y="410" on="0"/>
        <pt x="731" y="407" on="1"/>
        <pt x="715" y="394" on="0"/>
        <pt x="673" y="373" on="0"/>
        <pt x="628" y="353" on="0"/>
        <pt x="585" y="332" on="0"/>
        <pt x="568" y="320" on="1"/>
        <pt x="551" y="308" on="0"/>
        <pt x="503" y="274" on="0"/>
        <pt x="452" y="234" on="0"/>
        <pt x="405" y="188" on="0"/>
        <pt x="373" y="141" on="0"/>
        <pt x="364" y="94" on="0"/>
        <pt x="376" y="72" on="1"/>
        <pt x="383" y="59" on="0"/>
        <pt x="418" y="51" on="0"/>
        <pt x="464" y="56" on="0"/>
        <pt x="519" y="71" on="0"/>
        <pt x="547" y="82" on="1"/>
        <pt x="622" y="111" on="0"/>
        <pt x="751" y="178" on="0"/>
        <pt x="808" y="219" on="1"/>
        <pt x="818" y="226" on="0"/>
        <pt x="826" y="234" on="1"/>
        <pt x="828" y="237" on="0"/>
        <pt x="834" y="227" on="0"/>
        <pt x="838" y="210" on="0"/>
        <pt x="841" y="189" on="0"/>
        <pt x="841" y="179" on="1"/>
        <pt x="838" y="145" on="0"/>
        <pt x="788" y="93" on="0"/>
        <pt x="752" y="73" on="1"/>
        <pt x="710" y="49" on="0"/>
        <pt x="618" y="10" on="0"/>
        <pt x="523" y="-14" on="0"/>
        <pt x="426" y="-17" on="0"/>
      </contour>
      <contour>
        <pt x="333" y="677" on="1"/>
        <pt x="295" y="663" on="0"/>
        <pt x="250" y="605" on="0"/>
        <pt x="231" y="532" on="0"/>
        <pt x="236" y="450" on="0"/>
        <pt x="264" y="375" on="0"/>
        <pt x="312" y="313" on="0"/>
        <pt x="345" y="296" on="1"/>
        <pt x="361" y="326" on="0"/>
        <pt x="387" y="401" on="0"/>
        <pt x="401" y="481" on="0"/>
        <pt x="403" y="559" on="0"/>
        <pt x="390" y="624" on="0"/>
        <pt x="359" y="669" on="0"/>
      </contour>
    </TTGlyph>
    <TTGlyph name="Oacute" xMin="1" yMin="-20" xMax="570" yMax="911">
      <component glyphName="O" x="0" y="0" flags="0x204"/>
      <component glyphName="acute" x="186" y="177" flags="0x4"/>
    </TTGlyph>
    <TTGlyph name="Ocircumflex" xMin="1" yMin="-20" xMax="570" yMax="914">
      <component glyphName="O" x="0" y="0" flags="0x204"/>
      <component glyphName="circumflex" x="190" y="204" flags="0x4"/>
    </TTGlyph>
    <TTGlyph name="Odieresis" xMin="1" yMin="-20" xMax="570" yMax="860">
      <component glyphName="O" x="0" y="0" flags="0x204"/>
      <component glyphName="dieresis" x="168" y="173" flags="0x4"/>
    </TTGlyph>
    <TTGlyph name="Ograve" xMin="1" yMin="-20" xMax="570" yMax="911">
      <component glyphName="O" x="0" y="0" flags="0x204"/>
      <component glyphName="grave" x="199" y="177" flags="0x4"/>
    </TTGlyph>
    <TTGlyph name="Oslash" xMin="1" yMin="-68" xMax="570" yMax="761">
      <contour>
        <pt x="20" y="-38" on="1"/>
        <pt x="25" y="-19" on="0"/>
        <pt x="34" y="16" on="0"/>
        <pt x="39" y="33" on="1"/>
        <pt x="16" y="66" on="0"/>
        <pt x="1" y="150" on="0"/>
        <pt x="1" y="184" on="1"/>
        <pt x="1" y="226" on="0"/>
        <pt x="9" y="306" on="0"/>
        <pt x="17" y="346" on="1"/>
        <pt x="40" y="451" on="1"/>
        <pt x="47" y="478" on="0"/>
        <pt x="83" y="488" on="0"/>
        <pt x="117" y="473" on="0"/>
        <pt x="139" y="441" on="0"/>
        <pt x="132" y="426" on="1"/>
        <pt x="123" y="405" on="0"/>
        <pt x="104" y="336" on="0"/>
        <pt x="89" y="257" on="0"/>
        <pt x="80" y="174" on="0"/>
        <pt x="80" y="139" on="1"/>
        <pt x="103" y="193" on="0"/>
        <pt x="154" y="305" on="0"/>
        <pt x="183" y="362" on="1"/>
        <pt x="165" y="400" on="0"/>
        <pt x="149" y="484" on="0"/>
        <pt x="155" y="566" on="0"/>
        <pt x="185" y="641" on="0"/>
        <pt x="214" y="670" on="1"/>
        <pt x="255" y="710" on="0"/>
        <pt x="346" y="730" on="0"/>
        <pt x="391" y="713" on="1"/>
        <pt x="391" y="712" on="0"/>
        <pt x="393" y="712" on="1"/>
        <pt x="401" y="723" on="1"/>
        <pt x="408" y="732" on="0"/>
        <pt x="424" y="749" on="0"/>
        <pt x="435" y="755" on="1"/>
        <pt x="446" y="761" on="0"/>
        <pt x="459" y="759" on="0"/>
        <pt x="465" y="750" on="0"/>
        <pt x="466" y="738" on="0"/>
        <pt x="465" y="732" on="1"/>
        <pt x="463" y="726" on="0"/>
        <pt x="460" y="717" on="0"/>
        <pt x="458" y="712" on="1"/>
        <pt x="442" y="680" on="1"/>
        <pt x="473" y="646" on="0"/>
        <pt x="489" y="542" on="0"/>
        <pt x="480" y="429" on="0"/>
        <pt x="455" y="321" on="0"/>
        <pt x="445" y="284" on="1"/>
        <pt x="477" y="281" on="0"/>
        <pt x="518" y="283" on="0"/>
        <pt x="548" y="286" on="1"/>
        <pt x="570" y="289" on="0"/>
        <pt x="570" y="276" on="0"/>
        <pt x="551" y="258" on="0"/>
        <pt x="525" y="241" on="0"/>
        <pt x="521" y="240" on="1"/>
        <pt x="504" y="232" on="0"/>
        <pt x="478" y="221" on="0"/>
        <pt x="452" y="214" on="0"/>
        <pt x="426" y="212" on="0"/>
        <pt x="410" y="212" on="1"/>
        <pt x="392" y="180" on="0"/>
        <pt x="338" y="99" on="0"/>
        <pt x="271" y="28" on="0"/>
        <pt x="192" y="-20" on="0"/>
        <pt x="150" y="-20" on="1"/>
        <pt x="109" y="-19" on="0"/>
        <pt x="81" y="-3" on="1"/>
        <pt x="73" y="-16" on="0"/>
        <pt x="55" y="-39" on="0"/>
        <pt x="46" y="-50" on="1"/>
        <pt x="32" y="-68" on="0"/>
        <pt x="12" y="-60" on="0"/>
      </contour>
      <contour>
        <pt x="124" y="29" on="1"/>
        <pt x="142" y="27" on="0"/>
        <pt x="199" y="70" on="0"/>
        <pt x="257" y="132" on="0"/>
        <pt x="307" y="202" on="0"/>
        <pt x="318" y="227" on="1"/>
        <pt x="295" y="235" on="0"/>
        <pt x="256" y="263" on="0"/>
        <pt x="239" y="281" on="1"/>
        <pt x="204" y="215" on="0"/>
        <pt x="137" y="92" on="0"/>
        <pt x="105" y="37" on="1"/>
        <pt x="114" y="28" on="0"/>
      </contour>
      <contour>
        <pt x="348" y="296" on="1"/>
        <pt x="364" y="326" on="0"/>
        <pt x="390" y="402" on="0"/>
        <pt x="404" y="483" on="0"/>
        <pt x="406" y="561" on="0"/>
        <pt x="399" y="594" on="1"/>
        <pt x="280" y="359" on="1"/>
        <pt x="294" y="339" on="0"/>
        <pt x="327" y="307" on="0"/>
      </contour>
      <contour>
        <pt x="336" y="677" on="1"/>
        <pt x="305" y="666" on="0"/>
        <pt x="264" y="622" on="0"/>
        <pt x="240" y="566" on="0"/>
        <pt x="234" y="501" on="0"/>
        <pt x="239" y="468" on="1"/>
        <pt x="268" y="521" on="0"/>
        <pt x="329" y="620" on="0"/>
        <pt x="359" y="665" on="1"/>
        <pt x="348" y="673" on="0"/>
      </contour>
    </TTGlyph>
    <TTGlyph name="Otilde" xMin="1" yMin="-20" xMax="570" yMax="880">
      <component glyphName="O" x="0" y="0" flags="0x204"/>
      <component glyphName="tilde" x="166" y="186" flags="0x4"/>
    </TTGlyph>
    <TTGlyph name="P" xMin="-4" yMin="-100" xMax="865" yMax="720">
      <contour>
        <pt x="-4" y="420" on="1"/>
        <pt x="-3" y="475" on="0"/>
        <pt x="45" y="563" on="0"/>
        <pt x="124" y="630" on="0"/>
        <pt x="225" y="677" on="0"/>
        <pt x="333" y="706" on="0"/>
        <pt x="439" y="720" on="0"/>
        <pt x="483" y="720" on="1"/>
        <pt x="529" y="720" on="0"/>
        <pt x="629" y="706" on="0"/>
        <pt x="721" y="677" on="0"/>
        <pt x="800" y="630" on="0"/>
        <pt x="850" y="563" on="0"/>
        <pt x="865" y="474" on="0"/>
        <pt x="848" y="417" on="1"/>
        <pt x="831" y="363" on="0"/>
        <pt x="749" y="275" on="0"/>
        <pt x="641" y="210" on="0"/>
        <pt x="518" y="168" on="0"/>
        <pt x="401" y="154" on="0"/>
        <pt x="301" y="167" on="0"/>
        <pt x="271" y="189" on="1"/>
        <pt x="259" y="163" on="0"/>
        <pt x="233" y="109" on="0"/>
        <pt x="208" y="46" on="0"/>
        <pt x="183" y="-28" on="0"/>
        <pt x="172" y="-73" on="1"/>
        <pt x="170" y="-79" on="0"/>
        <pt x="166" y="-92" on="0"/>
        <pt x="160" y="-100" on="0"/>
        <pt x="152" y="-99" on="0"/>
        <pt x="148" y="-90" on="1"/>
        <pt x="134" y="-64" on="0"/>
        <pt x="130" y="18" on="0"/>
        <pt x="143" y="108" on="0"/>
        <pt x="169" y="194" on="0"/>
        <pt x="185" y="226" on="1"/>
        <pt x="189" y="232" on="0"/>
        <pt x="193" y="244" on="0"/>
        <pt x="187" y="249" on="1"/>
        <pt x="150" y="246" on="0"/>
        <pt x="84" y="272" on="0"/>
        <pt x="32" y="320" on="0"/>
        <pt x="-1" y="385" on="0"/>
      </contour>
      <contour>
        <pt x="682" y="365" on="1"/>
        <pt x="736" y="412" on="0"/>
        <pt x="778" y="493" on="0"/>
        <pt x="769" y="559" on="0"/>
        <pt x="717" y="610" on="0"/>
        <pt x="640" y="644" on="0"/>
        <pt x="543" y="659" on="0"/>
        <pt x="494" y="657" on="1"/>
        <pt x="431" y="654" on="0"/>
        <pt x="302" y="625" on="0"/>
        <pt x="195" y="574" on="0"/>
        <pt x="120" y="499" on="0"/>
        <pt x="111" y="450" on="1"/>
        <pt x="103" y="408" on="0"/>
        <pt x="146" y="322" on="0"/>
        <pt x="205" y="289" on="1"/>
        <pt x="230" y="347" on="0"/>
        <pt x="262" y="416" on="0"/>
        <pt x="280" y="455" on="0"/>
        <pt x="289" y="473" on="0"/>
        <pt x="293" y="480" on="1"/>
        <pt x="302" y="493" on="0"/>
        <pt x="335" y="485" on="0"/>
        <pt x="364" y="458" on="0"/>
        <pt x="380" y="419" on="0"/>
        <pt x="372" y="401" on="1"/>
        <pt x="361" y="377" on="0"/>
        <pt x="341" y="338" on="0"/>
        <pt x="323" y="301" on="0"/>
        <pt x="303" y="262" on="0"/>
        <pt x="292" y="238" on="1"/>
        <pt x="332" y="239" on="0"/>
        <pt x="437" y="255" on="0"/>
        <pt x="545" y="286" on="0"/>
        <pt x="645" y="333" on="0"/>
      </contour>
    </TTGlyph>
    <TTGlyph name="Q" xMin="1" yMin="-83" xMax="570" yMax="727">
      <contour>
        <pt x="443" y="286" on="1"/>
        <pt x="475" y="283" on="0"/>
        <pt x="518" y="283" on="0"/>
        <pt x="548" y="286" on="1"/>
        <pt x="570" y="289" on="0"/>
        <pt x="570" y="276" on="0"/>
        <pt x="551" y="258" on="0"/>
        <pt x="525" y="241" on="0"/>
        <pt x="521" y="240" on="1"/>
        <pt x="488" y="223" on="0"/>
        <pt x="440" y="213" on="0"/>
        <pt x="408" y="214" on="1"/>
        <pt x="396" y="192" on="0"/>
        <pt x="364" y="138" on="0"/>
        <pt x="325" y="83" on="0"/>
        <pt x="278" y="33" on="0"/>
        <pt x="251" y="15" on="1"/>
        <pt x="302" y="17" on="0"/>
        <pt x="379" y="15" on="0"/>
        <pt x="387" y="14" on="1"/>
        <pt x="408" y="10" on="0"/>
        <pt x="450" y="2" on="0"/>
        <pt x="470" y="-6" on="1"/>
        <pt x="482" y="-9" on="0"/>
        <pt x="486" y="-15" on="0"/>
        <pt x="480" y="-20" on="0"/>
        <pt x="466" y="-24" on="0"/>
        <pt x="460" y="-25" on="1"/>
        <pt x="357" y="-36" on="0"/>
        <pt x="165" y="-59" on="0"/>
        <pt x="69" y="-81" on="1"/>
        <pt x="68" y="-82" on="0"/>
        <pt x="65" y="-82" on="0"/>
        <pt x="63" y="-83" on="1"/>
        <pt x="47" y="-83" on="0"/>
        <pt x="41" y="-70" on="1"/>
        <pt x="29" y="-47" on="0"/>
        <pt x="58" y="-17" on="0"/>
        <pt x="88" y="-7" on="1"/>
        <pt x="60" y="6" on="0"/>
        <pt x="26" y="51" on="0"/>
        <pt x="7" y="104" on="0"/>
        <pt x="1" y="160" on="0"/>
        <pt x="1" y="184" on="1"/>
        <pt x="1" y="226" on="0"/>
        <pt x="9" y="306" on="0"/>
        <pt x="17" y="346" on="1"/>
        <pt x="40" y="451" on="1"/>
        <pt x="47" y="478" on="0"/>
        <pt x="83" y="488" on="0"/>
        <pt x="117" y="473" on="0"/>
        <pt x="139" y="441" on="0"/>
        <pt x="132" y="426" on="1"/>
        <pt x="121" y="400" on="0"/>
        <pt x="99" y="313" on="0"/>
        <pt x="84" y="215" on="0"/>
        <pt x="78" y="120" on="0"/>
        <pt x="84" y="87" on="1"/>
        <pt x="88" y="64" on="0"/>
        <pt x="107" y="37" on="0"/>
        <pt x="122" y="39" on="1"/>
        <pt x="140" y="37" on="0"/>
        <pt x="198" y="77" on="0"/>
        <pt x="256" y="135" on="0"/>
        <pt x="307" y="202" on="0"/>
        <pt x="318" y="227" on="1"/>
        <pt x="279" y="242" on="0"/>
        <pt x="217" y="302" on="0"/>
        <pt x="173" y="380" on="0"/>
        <pt x="150" y="469" on="0"/>
        <pt x="153" y="558" on="0"/>
        <pt x="183" y="639" on="0"/>
        <pt x="214" y="670" on="1"/>
        <pt x="266" y="721" on="0"/>
        <pt x="385" y="727" on="0"/>
        <pt x="441" y="685" on="1"/>
        <pt x="463" y="669" on="0"/>
        <pt x="483" y="608" on="0"/>
        <pt x="488" y="533" on="0"/>
        <pt x="480" y="450" on="0"/>
        <pt x="466" y="372" on="0"/>
        <pt x="449" y="306" on="0"/>
      </contour>
      <contour>
        <pt x="325" y="687" on="1"/>
        <pt x="285" y="674" on="0"/>
        <pt x="239" y="615" on="0"/>
        <pt x="222" y="539" on="0"/>
        <pt x="232" y="454" on="0"/>
        <pt x="264" y="376" on="0"/>
        <pt x="315" y="313" on="0"/>
        <pt x="348" y="296" on="1"/>
        <pt x="364" y="326" on="0"/>
        <pt x="389" y="405" on="0"/>
        <pt x="402" y="491" on="0"/>
        <pt x="402" y="574" on="0"/>
        <pt x="386" y="641" on="0"/>
        <pt x="352" y="684" on="0"/>
      </contour>
    </TTGlyph>
    <TTGlyph name="R" xMin="2" yMin="-159" xMax="760" yMax="743">
      <contour>
        <pt x="2" y="327" on="1"/>
        <pt x="7" y="335" on="0"/>
        <pt x="24" y="339" on="0"/>
        <pt x="33" y="341" on="1"/>
        <pt x="46" y="343" on="0"/>
        <pt x="72" y="346" on="0"/>
        <pt x="86" y="348" on="1"/>
        <pt x="96" y="348" on="0"/>
        <pt x="99" y="358" on="1"/>
        <pt x="108" y="372" on="0"/>
        <pt x="138" y="422" on="0"/>
        <pt x="176" y="479" on="0"/>
        <pt x="221" y="535" on="0"/>
        <pt x="269" y="575" on="0"/>
        <pt x="319" y="591" on="0"/>
        <pt x="343" y="580" on="1"/>
        <pt x="363" y="570" on="0"/>
        <pt x="383" y="541" on="0"/>
        <pt x="370" y="533" on="1"/>
        <pt x="356" y="525" on="0"/>
        <pt x="323" y="512" on="0"/>
        <pt x="312" y="501" on="1"/>
        <pt x="286" y="475" on="0"/>
        <pt x="248" y="407" on="0"/>
        <pt x="226" y="380" on="1"/>
        <pt x="254" y="384" on="0"/>
        <pt x="335" y="421" on="0"/>
        <pt x="422" y="474" on="0"/>
        <pt x="503" y="537" on="0"/>
        <pt x="556" y="594" on="0"/>
        <pt x="573" y="641" on="0"/>
        <pt x="552" y="651" on="1"/>
        <pt x="532" y="661" on="0"/>
        <pt x="483" y="670" on="0"/>
        <pt x="430" y="670" on="0"/>
        <pt x="377" y="663" on="0"/>
        <pt x="353" y="657" on="1"/>
        <pt x="330" y="652" on="0"/>
        <pt x="263" y="626" on="0"/>
        <pt x="197" y="592" on="0"/>
        <pt x="141" y="552" on="0"/>
        <pt x="129" y="533" on="1"/>
        <pt x="115" y="560" on="0"/>
        <pt x="128" y="608" on="0"/>
        <pt x="166" y="649" on="0"/>
        <pt x="221" y="683" on="0"/>
        <pt x="280" y="708" on="0"/>
        <pt x="334" y="725" on="0"/>
        <pt x="352" y="729" on="1"/>
        <pt x="414" y="743" on="0"/>
        <pt x="518" y="739" on="0"/>
        <pt x="567" y="714" on="1"/>
        <pt x="589" y="704" on="0"/>
        <pt x="620" y="670" on="0"/>
        <pt x="636" y="629" on="0"/>
        <pt x="637" y="585" on="0"/>
        <pt x="628" y="566" on="1"/>
        <pt x="605" y="516" on="0"/>
        <pt x="534" y="434" on="0"/>
        <pt x="446" y="370" on="0"/>
        <pt x="347" y="322" on="0"/>
        <pt x="298" y="307" on="1"/>
        <pt x="295" y="305" on="0"/>
        <pt x="288" y="304" on="0"/>
        <pt x="285" y="302" on="1"/>
        <pt x="283" y="302" on="0"/>
        <pt x="283" y="298" on="0"/>
        <pt x="283" y="296" on="1"/>
        <pt x="283" y="263" on="0"/>
        <pt x="304" y="184" on="0"/>
        <pt x="339" y="106" on="0"/>
        <pt x="383" y="38" on="0"/>
        <pt x="406" y="15" on="1"/>
        <pt x="440" y="-18" on="0"/>
        <pt x="526" y="-63" on="0"/>
        <pt x="620" y="-84" on="0"/>
        <pt x="715" y="-79" on="0"/>
        <pt x="757" y="-62" on="1"/>
        <pt x="758" y="-62" on="0"/>
        <pt x="758" y="-64" on="1"/>
        <pt x="760" y="-68" on="0"/>
        <pt x="759" y="-72" on="1"/>
        <pt x="753" y="-97" on="0"/>
        <pt x="708" y="-132" on="0"/>
        <pt x="649" y="-152" on="0"/>
        <pt x="582" y="-159" on="0"/>
        <pt x="554" y="-155" on="1"/>
        <pt x="479" y="-145" on="0"/>
        <pt x="351" y="-61" on="0"/>
        <pt x="256" y="61" on="0"/>
        <pt x="198" y="208" on="0"/>
        <pt x="193" y="282" on="1"/>
        <pt x="170" y="282" on="1"/>
        <pt x="162" y="282" on="0"/>
        <pt x="162" y="278" on="1"/>
        <pt x="145" y="251" on="0"/>
        <pt x="123" y="192" on="0"/>
        <pt x="104" y="133" on="0"/>
        <pt x="84" y="74" on="0"/>
        <pt x="70" y="46" on="1"/>
        <pt x="60" y="27" on="0"/>
        <pt x="49" y="46" on="1"/>
        <pt x="38" y="62" on="0"/>
        <pt x="35" y="87" on="1"/>
        <pt x="29" y="147" on="0"/>
        <pt x="43" y="245" on="0"/>
        <pt x="66" y="294" on="1"/>
        <pt x="57" y="297" on="0"/>
        <pt x="40" y="303" on="0"/>
        <pt x="31" y="305" on="1"/>
        <pt x="22" y="308" on="0"/>
        <pt x="7" y="318" on="0"/>
      </contour>
    </TTGlyph>
    <TTGlyph name="S" xMin="-7" yMin="-50" xMax="476" yMax="721">
      <contour>
        <pt x="194" y="270" on="1"/>
        <pt x="157" y="244" on="0"/>
        <pt x="93" y="169" on="0"/>
        <pt x="53" y="94" on="0"/>
        <pt x="46" y="32" on="0"/>
        <pt x="67" y="19" on="1"/>
        <pt x="84" y="8" on="0"/>
        <pt x="146" y="27" on="0"/>
        <pt x="218" y="72" on="0"/>
        <pt x="293" y="135" on="0"/>
        <pt x="355" y="201" on="0"/>
        <pt x="395" y="262" on="0"/>
        <pt x="397" y="283" on="1"/>
        <pt x="400" y="305" on="0"/>
        <pt x="376" y="336" on="0"/>
        <pt x="333" y="359" on="0"/>
        <pt x="279" y="376" on="0"/>
        <pt x="224" y="391" on="0"/>
        <pt x="174" y="407" on="0"/>
        <pt x="157" y="418" on="1"/>
        <pt x="138" y="430" on="0"/>
        <pt x="116" y="463" on="0"/>
        <pt x="106" y="499" on="0"/>
        <pt x="107" y="537" on="0"/>
        <pt x="112" y="554" on="1"/>
        <pt x="120" y="587" on="0"/>
        <pt x="177" y="649" on="0"/>
        <pt x="251" y="696" on="0"/>
        <pt x="331" y="721" on="0"/>
        <pt x="363" y="717" on="1"/>
        <pt x="393" y="712" on="0"/>
        <pt x="433" y="688" on="0"/>
        <pt x="443" y="659" on="1"/>
        <pt x="450" y="635" on="0"/>
        <pt x="436" y="581" on="0"/>
        <pt x="407" y="532" on="0"/>
        <pt x="369" y="491" on="0"/>
        <pt x="352" y="480" on="1"/>
        <pt x="344" y="474" on="0"/>
        <pt x="326" y="468" on="0"/>
        <pt x="310" y="466" on="0"/>
        <pt x="301" y="470" on="0"/>
        <pt x="303" y="474" on="1"/>
        <pt x="315" y="495" on="0"/>
        <pt x="342" y="547" on="0"/>
        <pt x="366" y="598" on="0"/>
        <pt x="382" y="642" on="0"/>
        <pt x="384" y="655" on="1"/>
        <pt x="386" y="666" on="0"/>
        <pt x="371" y="668" on="0"/>
        <pt x="360" y="665" on="1"/>
        <pt x="341" y="659" on="0"/>
        <pt x="288" y="633" on="0"/>
        <pt x="237" y="600" on="0"/>
        <pt x="198" y="563" on="0"/>
        <pt x="194" y="547" on="1"/>
        <pt x="189" y="537" on="0"/>
        <pt x="194" y="519" on="0"/>
        <pt x="205" y="504" on="0"/>
        <pt x="220" y="493" on="0"/>
        <pt x="226" y="489" on="1"/>
        <pt x="253" y="472" on="0"/>
        <pt x="307" y="447" on="0"/>
        <pt x="358" y="420" on="0"/>
        <pt x="406" y="389" on="0"/>
        <pt x="427" y="367" on="1"/>
        <pt x="459" y="333" on="0"/>
        <pt x="476" y="251" on="0"/>
        <pt x="462" y="211" on="1"/>
        <pt x="446" y="161" on="0"/>
        <pt x="371" y="64" on="0"/>
        <pt x="273" y="-10" on="0"/>
        <pt x="166" y="-50" on="0"/>
        <pt x="119" y="-44" on="1"/>
        <pt x="71" y="-37" on="0"/>
        <pt x="11" y="13" on="0"/>
        <pt x="1" y="58" on="1"/>
        <pt x="-7" y="98" on="0"/>
        <pt x="11" y="170" on="0"/>
        <pt x="53" y="230" on="0"/>
        <pt x="111" y="278" on="0"/>
        <pt x="143" y="293" on="1"/>
        <pt x="162" y="303" on="0"/>
        <pt x="202" y="314" on="0"/>
        <pt x="222" y="317" on="1"/>
        <pt x="241" y="321" on="0"/>
        <pt x="241" y="310" on="0"/>
        <pt x="223" y="292" on="0"/>
        <pt x="198" y="273" on="0"/>
      </contour>
    </TTGlyph>
    <TTGlyph name="T" xMin="33" yMin="-54" xMax="839" yMax="717">
      <contour>
        <pt x="413" y="622" on="1"/>
        <pt x="411" y="617" on="0"/>
        <pt x="419" y="605" on="0"/>
        <pt x="427" y="591" on="0"/>
        <pt x="430" y="576" on="0"/>
        <pt x="425" y="569" on="1"/>
        <pt x="367" y="461" on="0"/>
        <pt x="273" y="206" on="0"/>
        <pt x="225" y="43" on="1"/>
        <pt x="222" y="32" on="0"/>
        <pt x="217" y="14" on="0"/>
        <pt x="211" y="-4" on="0"/>
        <pt x="204" y="-26" on="0"/>
        <pt x="200" y="-41" on="1"/>
        <pt x="194" y="-54" on="0"/>
        <pt x="184" y="-49" on="1"/>
        <pt x="170" y="-43" on="0"/>
        <pt x="160" y="4" on="0"/>
        <pt x="158" y="60" on="0"/>
        <pt x="162" y="111" on="0"/>
        <pt x="164" y="121" on="1"/>
        <pt x="173" y="178" on="0"/>
        <pt x="207" y="309" on="0"/>
        <pt x="255" y="439" on="0"/>
        <pt x="314" y="560" on="0"/>
        <pt x="349" y="609" on="1"/>
        <pt x="354" y="614" on="0"/>
        <pt x="355" y="616" on="1"/>
        <pt x="348" y="619" on="0"/>
        <pt x="294" y="616" on="0"/>
        <pt x="229" y="609" on="0"/>
        <pt x="166" y="598" on="0"/>
        <pt x="150" y="593" on="1"/>
        <pt x="154" y="588" on="0"/>
        <pt x="180" y="566" on="0"/>
        <pt x="203" y="544" on="0"/>
        <pt x="208" y="527" on="0"/>
        <pt x="191" y="527" on="1"/>
        <pt x="168" y="527" on="0"/>
        <pt x="125" y="538" on="0"/>
        <pt x="106" y="548" on="1"/>
        <pt x="96" y="553" on="0"/>
        <pt x="71" y="566" on="0"/>
        <pt x="49" y="581" on="0"/>
        <pt x="33" y="599" on="0"/>
        <pt x="33" y="610" on="1"/>
        <pt x="33" y="638" on="0"/>
        <pt x="60" y="652" on="1"/>
        <pt x="118" y="680" on="0"/>
        <pt x="288" y="710" on="0"/>
        <pt x="479" y="717" on="0"/>
        <pt x="674" y="703" on="0"/>
        <pt x="756" y="688" on="1"/>
        <pt x="761" y="687" on="0"/>
        <pt x="782" y="679" on="0"/>
        <pt x="806" y="667" on="0"/>
        <pt x="828" y="654" on="0"/>
        <pt x="839" y="641" on="0"/>
        <pt x="834" y="631" on="0"/>
        <pt x="820" y="629" on="1"/>
        <pt x="806" y="627" on="0"/>
        <pt x="778" y="627" on="0"/>
        <pt x="764" y="627" on="1"/>
        <pt x="676" y="627" on="0"/>
        <pt x="499" y="627" on="0"/>
      </contour>
    </TTGlyph>
    <TTGlyph name="U" xMin="-3" yMin="-66" xMax="629" yMax="729">
      <contour>
        <pt x="67" y="483" on="1"/>
        <pt x="61" y="480" on="0"/>
        <pt x="41" y="490" on="0"/>
        <pt x="22" y="510" on="0"/>
        <pt x="10" y="535" on="0"/>
        <pt x="12" y="546" on="1"/>
        <pt x="19" y="586" on="0"/>
        <pt x="70" y="647" on="0"/>
        <pt x="135" y="689" on="0"/>
        <pt x="202" y="714" on="0"/>
        <pt x="224" y="717" on="1"/>
        <pt x="245" y="721" on="0"/>
        <pt x="277" y="711" on="0"/>
        <pt x="297" y="688" on="0"/>
        <pt x="303" y="657" on="0"/>
        <pt x="299" y="641" on="1"/>
        <pt x="296" y="617" on="0"/>
        <pt x="255" y="524" on="0"/>
        <pt x="196" y="407" on="0"/>
        <pt x="132" y="279" on="0"/>
        <pt x="81" y="164" on="0"/>
        <pt x="53" y="74" on="0"/>
        <pt x="62" y="53" on="1"/>
        <pt x="66" y="44" on="0"/>
        <pt x="80" y="52" on="0"/>
        <pt x="89" y="56" on="1"/>
        <pt x="129" y="73" on="0"/>
        <pt x="218" y="168" on="0"/>
        <pt x="308" y="295" on="0"/>
        <pt x="396" y="440" on="0"/>
        <pt x="473" y="575" on="0"/>
        <pt x="536" y="685" on="0"/>
        <pt x="556" y="714" on="1"/>
        <pt x="569" y="729" on="0"/>
        <pt x="599" y="725" on="0"/>
        <pt x="621" y="700" on="0"/>
        <pt x="629" y="663" on="0"/>
        <pt x="620" y="645" on="1"/>
        <pt x="599" y="607" on="0"/>
        <pt x="559" y="532" on="0"/>
        <pt x="544" y="493" on="1"/>
        <pt x="522" y="435" on="0"/>
        <pt x="483" y="308" on="0"/>
        <pt x="455" y="177" on="0"/>
        <pt x="442" y="46" on="0"/>
        <pt x="447" y="-15" on="1"/>
        <pt x="449" y="-50" on="0"/>
        <pt x="432" y="-66" on="0"/>
        <pt x="409" y="-43" on="1"/>
        <pt x="388" y="-22" on="0"/>
        <pt x="367" y="29" on="0"/>
        <pt x="361" y="86" on="0"/>
        <pt x="367" y="148" on="0"/>
        <pt x="373" y="181" on="1"/>
        <pt x="384" y="242" on="0"/>
        <pt x="415" y="360" on="0"/>
        <pt x="431" y="421" on="1"/>
        <pt x="421" y="403" on="0"/>
        <pt x="385" y="328" on="0"/>
        <pt x="336" y="236" on="0"/>
        <pt x="276" y="136" on="0"/>
        <pt x="208" y="52" on="0"/>
        <pt x="135" y="-7" on="0"/>
        <pt x="97" y="-13" on="1"/>
        <pt x="75" y="-19" on="0"/>
        <pt x="37" y="10" on="0"/>
        <pt x="10" y="54" on="0"/>
        <pt x="-3" y="104" on="0"/>
        <pt x="0" y="119" on="1"/>
        <pt x="13" y="182" on="0"/>
        <pt x="55" y="318" on="0"/>
        <pt x="108" y="451" on="0"/>
        <pt x="168" y="578" on="0"/>
        <pt x="199" y="632" on="1"/>
        <pt x="175" y="617" on="0"/>
        <pt x="138" y="588" on="0"/>
        <pt x="107" y="555" on="0"/>
        <pt x="80" y="512" on="0"/>
      </contour>
    </TTGlyph>
    <TTGlyph name="Uacute" xMin="-3" yMin="-66" xMax="629" yMax="913">
      <component glyphName="U" x="0" y="0" flags="0x204"/>
      <component glyphName="acute" x="290" y="179" flags="0x4"/>
    </TTGlyph>
    <TTGlyph name="Ucircumflex" xMin="-3" yMin="-66" xMax="629" yMax="910">
      <component glyphName="U" x="0" y="0" flags="0x204"/>
      <component glyphName="circumflex" x="287" y="200" flags="0x4"/>
    </TTGlyph>
    <TTGlyph name="Udieresis" xMin="-3" yMin="-66" xMax="629" yMax="859">
      <component glyphName="U" x="0" y="0" flags="0x204"/>
      <component glyphName="dieresis" x="245" y="172" flags="0x4"/>
    </TTGlyph>
    <TTGlyph name="Ugrave" xMin="-3" yMin="-66" xMax="629" yMax="911">
      <component glyphName="U" x="0" y="0" flags="0x204"/>
      <component glyphName="grave" x="260" y="177" flags="0x4"/>
    </TTGlyph>
    <TTGlyph name="V" xMin="-10" yMin="-34" xMax="481" yMax="734">
      <contour>
        <pt x="58" y="3" on="1"/>
        <pt x="41" y="26" on="0"/>
        <pt x="15" y="82" on="0"/>
        <pt x="7" y="111" on="1"/>
        <pt x="-10" y="239" on="0"/>
        <pt x="22" y="480" on="0"/>
        <pt x="58" y="597" on="1"/>
        <pt x="64" y="610" on="0"/>
        <pt x="104" y="610" on="0"/>
        <pt x="144" y="592" on="0"/>
        <pt x="170" y="562" on="0"/>
        <pt x="163" y="546" on="1"/>
        <pt x="152" y="522" on="0"/>
        <pt x="130" y="441" on="0"/>
        <pt x="110" y="343" on="0"/>
        <pt x="95" y="236" on="0"/>
        <pt x="88" y="138" on="0"/>
        <pt x="92" y="59" on="0"/>
        <pt x="102" y="36" on="1"/>
        <pt x="149" y="99" on="0"/>
        <pt x="227" y="234" on="0"/>
        <pt x="296" y="373" on="0"/>
        <pt x="358" y="515" on="0"/>
        <pt x="388" y="584" on="1"/>
        <pt x="403" y="619" on="0"/>
        <pt x="432" y="697" on="0"/>
        <pt x="456" y="725" on="1"/>
        <pt x="466" y="734" on="0"/>
        <pt x="477" y="728" on="0"/>
        <pt x="481" y="711" on="0"/>
        <pt x="481" y="692" on="0"/>
        <pt x="481" y="687" on="1"/>
        <pt x="474" y="641" on="0"/>
        <pt x="464" y="551" on="0"/>
        <pt x="448" y="509" on="1"/>
        <pt x="422" y="443" on="0"/>
        <pt x="367" y="313" on="0"/>
        <pt x="304" y="187" on="0"/>
        <pt x="231" y="68" on="0"/>
        <pt x="188" y="14" on="1"/>
        <pt x="154" y="-29" on="0"/>
        <pt x="87" y="-34" on="0"/>
      </contour>
    </TTGlyph>
    <TTGlyph name="W" xMin="-16" yMin="-73" xMax="695" yMax="705">
      <contour>
        <pt x="291" y="305" on="1"/>
        <pt x="280" y="290" on="0"/>
        <pt x="254" y="226" on="0"/>
        <pt x="225" y="146" on="0"/>
        <pt x="191" y="60" on="0"/>
        <pt x="155" y="-14" on="0"/>
        <pt x="116" y="-66" on="0"/>
        <pt x="95" y="-71" on="1"/>
        <pt x="86" y="-73" on="0"/>
        <pt x="66" y="-70" on="0"/>
        <pt x="47" y="-61" on="0"/>
        <pt x="30" y="-49" on="0"/>
        <pt x="25" y="-43" on="1"/>
        <pt x="1" y="-13" on="0"/>
        <pt x="-16" y="84" on="0"/>
        <pt x="-12" y="198" on="0"/>
        <pt x="9" y="323" on="0"/>
        <pt x="34" y="440" on="0"/>
        <pt x="60" y="540" on="0"/>
        <pt x="68" y="574" on="1"/>
        <pt x="73" y="593" on="0"/>
        <pt x="106" y="597" on="0"/>
        <pt x="139" y="580" on="0"/>
        <pt x="163" y="548" on="0"/>
        <pt x="159" y="530" on="1"/>
        <pt x="154" y="509" on="0"/>
        <pt x="134" y="431" on="0"/>
        <pt x="109" y="335" on="0"/>
        <pt x="83" y="228" on="0"/>
        <pt x="63" y="128" on="0"/>
        <pt x="54" y="44" on="0"/>
        <pt x="58" y="19" on="1"/>
        <pt x="59" y="13" on="0"/>
        <pt x="67" y="-7" on="0"/>
        <pt x="78" y="-22" on="0"/>
        <pt x="92" y="-26" on="0"/>
        <pt x="100" y="-15" on="1"/>
        <pt x="112" y="2" on="0"/>
        <pt x="147" y="88" on="0"/>
        <pt x="188" y="196" on="0"/>
        <pt x="231" y="310" on="0"/>
        <pt x="251" y="354" on="1"/>
        <pt x="269" y="394" on="0"/>
        <pt x="311" y="462" on="0"/>
        <pt x="339" y="488" on="1"/>
        <pt x="343" y="492" on="0"/>
        <pt x="354" y="495" on="0"/>
        <pt x="359" y="492" on="1"/>
        <pt x="373" y="484" on="0"/>
        <pt x="400" y="458" on="0"/>
        <pt x="398" y="435" on="1"/>
        <pt x="395" y="410" on="0"/>
        <pt x="386" y="342" on="0"/>
        <pt x="377" y="264" on="0"/>
        <pt x="370" y="182" on="0"/>
        <pt x="367" y="107" on="0"/>
        <pt x="371" y="43" on="0"/>
        <pt x="378" y="23" on="1"/>
        <pt x="381" y="11" on="0"/>
        <pt x="392" y="7" on="0"/>
        <pt x="399" y="11" on="1"/>
        <pt x="410" y="19" on="0"/>
        <pt x="430" y="48" on="0"/>
        <pt x="439" y="65" on="1"/>
        <pt x="467" y="123" on="0"/>
        <pt x="522" y="270" on="0"/>
        <pt x="570" y="421" on="0"/>
        <pt x="610" y="563" on="0"/>
        <pt x="622" y="616" on="1"/>
        <pt x="624" y="625" on="0"/>
        <pt x="631" y="655" on="0"/>
        <pt x="641" y="684" on="0"/>
        <pt x="654" y="705" on="0"/>
        <pt x="663" y="705" on="1"/>
        <pt x="675" y="701" on="0"/>
        <pt x="688" y="673" on="0"/>
        <pt x="695" y="639" on="0"/>
        <pt x="695" y="605" on="0"/>
        <pt x="694" y="595" on="1"/>
        <pt x="683" y="529" on="0"/>
        <pt x="645" y="378" on="0"/>
        <pt x="617" y="300" on="1"/>
        <pt x="605" y="268" on="0"/>
        <pt x="573" y="182" on="0"/>
        <pt x="533" y="96" on="0"/>
        <pt x="486" y="23" on="0"/>
        <pt x="459" y="4" on="1"/>
        <pt x="440" y="-10" on="0"/>
        <pt x="398" y="-22" on="0"/>
        <pt x="359" y="-18" on="0"/>
        <pt x="325" y="5" on="0"/>
        <pt x="315" y="27" on="1"/>
        <pt x="301" y="56" on="0"/>
        <pt x="289" y="134" on="0"/>
        <pt x="286" y="213" on="0"/>
        <pt x="289" y="283" on="0"/>
      </contour>
    </TTGlyph>
    <TTGlyph name="X" xMin="-11" yMin="-67" xMax="703" yMax="734">
      <contour>
        <pt x="322" y="337" on="1"/>
        <pt x="326" y="311" on="0"/>
        <pt x="350" y="238" on="0"/>
        <pt x="385" y="158" on="0"/>
        <pt x="428" y="77" on="0"/>
        <pt x="476" y="8" on="0"/>
        <pt x="527" y="-40" on="0"/>
        <pt x="551" y="-47" on="1"/>
        <pt x="562" y="-50" on="0"/>
        <pt x="552" y="-67" on="0"/>
        <pt x="544" y="-67" on="1"/>
        <pt x="500" y="-67" on="0"/>
        <pt x="424" y="-27" on="0"/>
        <pt x="360" y="36" on="0"/>
        <pt x="308" y="113" on="0"/>
        <pt x="269" y="188" on="0"/>
        <pt x="242" y="253" on="0"/>
        <pt x="236" y="272" on="1"/>
        <pt x="207" y="248" on="0"/>
        <pt x="156" y="192" on="0"/>
        <pt x="105" y="127" on="0"/>
        <pt x="52" y="53" on="0"/>
        <pt x="21" y="11" on="1"/>
        <pt x="7" y="-8" on="0"/>
        <pt x="-11" y="4" on="0"/>
        <pt x="-2" y="22" on="1"/>
        <pt x="19" y="64" on="0"/>
        <pt x="76" y="150" on="0"/>
        <pt x="137" y="231" on="0"/>
        <pt x="199" y="303" on="0"/>
        <pt x="226" y="332" on="1"/>
        <pt x="198" y="417" on="0"/>
        <pt x="163" y="593" on="0"/>
        <pt x="165" y="682" on="1"/>
        <pt x="168" y="706" on="0"/>
        <pt x="202" y="717" on="0"/>
        <pt x="242" y="705" on="0"/>
        <pt x="273" y="678" on="0"/>
        <pt x="273" y="665" on="1"/>
        <pt x="273" y="641" on="0"/>
        <pt x="276" y="579" on="0"/>
        <pt x="282" y="511" on="0"/>
        <pt x="292" y="444" on="0"/>
        <pt x="298" y="414" on="1"/>
        <pt x="314" y="435" on="0"/>
        <pt x="368" y="494" on="0"/>
        <pt x="433" y="560" on="0"/>
        <pt x="504" y="626" on="0"/>
        <pt x="571" y="682" on="0"/>
        <pt x="627" y="722" on="0"/>
        <pt x="645" y="729" on="1"/>
        <pt x="658" y="734" on="0"/>
        <pt x="685" y="721" on="0"/>
        <pt x="702" y="700" on="0"/>
        <pt x="703" y="676" on="0"/>
        <pt x="691" y="670" on="1"/>
        <pt x="668" y="658" on="0"/>
        <pt x="604" y="611" on="0"/>
        <pt x="533" y="551" on="0"/>
        <pt x="460" y="483" on="0"/>
        <pt x="394" y="417" on="0"/>
        <pt x="339" y="358" on="0"/>
      </contour>
    </TTGlyph>
    <TTGlyph name="Y" xMin="21" yMin="-91" xMax="556" yMax="727">
      <contour>
        <pt x="154" y="171" on="1"/>
        <pt x="133" y="151" on="0"/>
        <pt x="104" y="77" on="0"/>
        <pt x="96" y="6" on="0"/>
        <pt x="112" y="-43" on="0"/>
        <pt x="138" y="-39" on="1"/>
        <pt x="155" y="-38" on="0"/>
        <pt x="208" y="14" on="0"/>
        <pt x="269" y="99" on="0"/>
        <pt x="333" y="208" on="0"/>
        <pt x="389" y="325" on="0"/>
        <pt x="430" y="443" on="0"/>
        <pt x="438" y="493" on="1"/>
        <pt x="418" y="460" on="0"/>
        <pt x="370" y="382" on="0"/>
        <pt x="310" y="314" on="0"/>
        <pt x="238" y="269" on="0"/>
        <pt x="195" y="268" on="1"/>
        <pt x="164" y="269" on="0"/>
        <pt x="120" y="294" on="0"/>
        <pt x="104" y="314" on="1"/>
        <pt x="86" y="337" on="0"/>
        <pt x="97" y="423" on="0"/>
        <pt x="132" y="519" on="0"/>
        <pt x="177" y="612" on="0"/>
        <pt x="193" y="643" on="1"/>
        <pt x="168" y="634" on="0"/>
        <pt x="126" y="599" on="0"/>
        <pt x="90" y="559" on="0"/>
        <pt x="61" y="521" on="0"/>
        <pt x="51" y="509" on="1"/>
        <pt x="46" y="501" on="0"/>
        <pt x="35" y="502" on="0"/>
        <pt x="26" y="514" on="0"/>
        <pt x="21" y="535" on="0"/>
        <pt x="23" y="549" on="1"/>
        <pt x="30" y="592" on="0"/>
        <pt x="85" y="663" on="0"/>
        <pt x="161" y="709" on="0"/>
        <pt x="248" y="727" on="0"/>
        <pt x="287" y="717" on="1"/>
        <pt x="290" y="717" on="0"/>
        <pt x="296" y="714" on="0"/>
        <pt x="298" y="712" on="1"/>
        <pt x="307" y="705" on="0"/>
        <pt x="308" y="694" on="0"/>
        <pt x="301" y="686" on="1"/>
        <pt x="296" y="680" on="0"/>
        <pt x="295" y="674" on="1"/>
        <pt x="286" y="655" on="0"/>
        <pt x="254" y="589" on="0"/>
        <pt x="221" y="511" on="0"/>
        <pt x="190" y="428" on="0"/>
        <pt x="174" y="356" on="0"/>
        <pt x="177" y="305" on="0"/>
        <pt x="194" y="298" on="1"/>
        <pt x="206" y="296" on="0"/>
        <pt x="250" y="339" on="0"/>
        <pt x="304" y="407" on="0"/>
        <pt x="361" y="494" on="0"/>
        <pt x="412" y="580" on="0"/>
        <pt x="450" y="656" on="0"/>
        <pt x="458" y="680" on="1"/>
        <pt x="462" y="690" on="0"/>
        <pt x="472" y="707" on="0"/>
        <pt x="480" y="707" on="1"/>
        <pt x="489" y="707" on="0"/>
        <pt x="516" y="693" on="0"/>
        <pt x="540" y="673" on="0"/>
        <pt x="556" y="654" on="0"/>
        <pt x="555" y="648" on="1"/>
        <pt x="553" y="604" on="0"/>
        <pt x="538" y="521" on="0"/>
        <pt x="516" y="436" on="0"/>
        <pt x="489" y="347" on="0"/>
        <pt x="474" y="299" on="1"/>
        <pt x="456" y="252" on="0"/>
        <pt x="407" y="137" on="0"/>
        <pt x="341" y="28" on="0"/>
        <pt x="258" y="-61" on="0"/>
        <pt x="207" y="-82" on="1"/>
        <pt x="187" y="-91" on="0"/>
        <pt x="145" y="-90" on="0"/>
        <pt x="104" y="-78" on="0"/>
        <pt x="69" y="-56" on="0"/>
        <pt x="57" y="-44" on="1"/>
        <pt x="29" y="-14" on="0"/>
        <pt x="21" y="69" on="0"/>
        <pt x="48" y="145" on="0"/>
        <pt x="103" y="201" on="0"/>
        <pt x="137" y="205" on="1"/>
        <pt x="155" y="205" on="0"/>
        <pt x="167" y="198" on="0"/>
        <pt x="166" y="188" on="0"/>
        <pt x="157" y="175" on="0"/>
      </contour>
    </TTGlyph>
    <TTGlyph name="Yacute" xMin="21" yMin="-91" xMax="556" yMax="913">
      <component glyphName="Y" x="0" y="0" flags="0x204"/>
      <component glyphName="acute" x="277" y="179" flags="0x4"/>
    </TTGlyph>
    <TTGlyph name="Ydieresis" xMin="21" yMin="-91" xMax="556" yMax="861">
      <component glyphName="Y" x="0" y="0" flags="0x204"/>
      <component glyphName="dieresis" x="201" y="174" flags="0x4"/>
    </TTGlyph>
    <TTGlyph name="Z" xMin="-6" yMin="-57" xMax="598" yMax="733">
      <contour>
        <pt x="493" y="678" on="1"/>
        <pt x="427" y="671" on="0"/>
        <pt x="295" y="634" on="0"/>
        <pt x="241" y="601" on="1"/>
        <pt x="228" y="590" on="0"/>
        <pt x="211" y="599" on="0"/>
        <pt x="207" y="624" on="0"/>
        <pt x="215" y="658" on="0"/>
        <pt x="226" y="673" on="1"/>
        <pt x="244" y="696" on="0"/>
        <pt x="309" y="722" on="0"/>
        <pt x="383" y="733" on="0"/>
        <pt x="455" y="732" on="0"/>
        <pt x="481" y="729" on="1"/>
        <pt x="500" y="726" on="0"/>
        <pt x="542" y="707" on="0"/>
        <pt x="572" y="679" on="0"/>
        <pt x="586" y="643" on="0"/>
        <pt x="577" y="623" on="1"/>
        <pt x="567" y="599" on="0"/>
        <pt x="525" y="557" on="0"/>
        <pt x="475" y="521" on="0"/>
        <pt x="423" y="492" on="0"/>
        <pt x="402" y="481" on="1"/>
        <pt x="439" y="479" on="0"/>
        <pt x="509" y="461" on="0"/>
        <pt x="563" y="426" on="0"/>
        <pt x="596" y="373" on="0"/>
        <pt x="598" y="337" on="1"/>
        <pt x="598" y="327" on="0"/>
        <pt x="598" y="307" on="0"/>
        <pt x="597" y="297" on="1"/>
        <pt x="595" y="288" on="0"/>
        <pt x="591" y="269" on="0"/>
        <pt x="587" y="261" on="1"/>
        <pt x="574" y="228" on="0"/>
        <pt x="525" y="158" on="0"/>
        <pt x="458" y="90" on="0"/>
        <pt x="379" y="27" on="0"/>
        <pt x="294" y="-21" on="0"/>
        <pt x="207" y="-52" on="0"/>
        <pt x="167" y="-55" on="1"/>
        <pt x="144" y="-57" on="0"/>
        <pt x="91" y="-48" on="0"/>
        <pt x="43" y="-18" on="0"/>
        <pt x="6" y="35" on="0"/>
        <pt x="0" y="79" on="1"/>
        <pt x="-6" y="122" on="0"/>
        <pt x="43" y="199" on="0"/>
        <pt x="122" y="258" on="0"/>
        <pt x="215" y="295" on="0"/>
        <pt x="253" y="298" on="1"/>
        <pt x="300" y="302" on="0"/>
        <pt x="347" y="293" on="1"/>
        <pt x="363" y="290" on="0"/>
        <pt x="363" y="283" on="0"/>
        <pt x="347" y="275" on="0"/>
        <pt x="325" y="269" on="0"/>
        <pt x="319" y="268" on="1"/>
        <pt x="283" y="256" on="0"/>
        <pt x="212" y="219" on="0"/>
        <pt x="144" y="173" on="0"/>
        <pt x="84" y="120" on="0"/>
        <pt x="60" y="92" on="1"/>
        <pt x="36" y="58" on="0"/>
        <pt x="68" y="38" on="1"/>
        <pt x="82" y="27" on="0"/>
        <pt x="145" y="35" on="0"/>
        <pt x="227" y="67" on="0"/>
        <pt x="319" y="118" on="0"/>
        <pt x="406" y="179" on="0"/>
        <pt x="480" y="247" on="0"/>
        <pt x="525" y="312" on="0"/>
        <pt x="534" y="372" on="0"/>
        <pt x="513" y="394" on="1"/>
        <pt x="493" y="414" on="0"/>
        <pt x="417" y="429" on="0"/>
        <pt x="333" y="429" on="0"/>
        <pt x="259" y="421" on="0"/>
        <pt x="242" y="419" on="1"/>
        <pt x="231" y="414" on="0"/>
        <pt x="203" y="416" on="0"/>
        <pt x="198" y="426" on="1"/>
        <pt x="195" y="434" on="0"/>
        <pt x="203" y="445" on="0"/>
        <pt x="208" y="450" on="1"/>
        <pt x="216" y="460" on="0"/>
        <pt x="260" y="492" on="0"/>
        <pt x="318" y="529" on="0"/>
        <pt x="382" y="569" on="0"/>
        <pt x="441" y="607" on="0"/>
        <pt x="489" y="640" on="0"/>
        <pt x="500" y="651" on="1"/>
        <pt x="511" y="662" on="0"/>
        <pt x="511" y="677" on="0"/>
      </contour>
    </TTGlyph>
    <TTGlyph name="a" xMin="-37" yMin="-6" xMax="397" yMax="341">
      <contour>
        <pt x="119" y="61" on="1"/>
        <pt x="110" y="54" on="0"/>
        <pt x="88" y="37" on="0"/>
        <pt x="62" y="24" on="0"/>
        <pt x="33" y="17" on="0"/>
        <pt x="17" y="20" on="1"/>
        <pt x="5" y="22" on="0"/>
        <pt x="-15" y="35" on="0"/>
        <pt x="-24" y="44" on="1"/>
        <pt x="-33" y="53" on="0"/>
        <pt x="-37" y="87" on="0"/>
        <pt x="-36" y="97" on="1"/>
        <pt x="-31" y="123" on="0"/>
        <pt x="-13" y="181" on="0"/>
        <pt x="0" y="209" on="1"/>
        <pt x="22" y="255" on="0"/>
        <pt x="90" y="327" on="0"/>
        <pt x="138" y="337" on="1"/>
        <pt x="154" y="341" on="0"/>
        <pt x="189" y="336" on="0"/>
        <pt x="215" y="318" on="0"/>
        <pt x="229" y="291" on="0"/>
        <pt x="225" y="275" on="1"/>
        <pt x="223" y="269" on="0"/>
        <pt x="218" y="257" on="0"/>
        <pt x="211" y="249" on="0"/>
        <pt x="205" y="248" on="0"/>
        <pt x="202" y="254" on="1"/>
        <pt x="201" y="257" on="0"/>
        <pt x="198" y="268" on="0"/>
        <pt x="192" y="279" on="0"/>
        <pt x="181" y="288" on="0"/>
        <pt x="172" y="288" on="1"/>
        <pt x="153" y="288" on="0"/>
        <pt x="105" y="241" on="0"/>
        <pt x="61" y="178" on="0"/>
        <pt x="29" y="115" on="0"/>
        <pt x="25" y="99" on="1"/>
        <pt x="19" y="73" on="0"/>
        <pt x="33" y="70" on="0"/>
        <pt x="63" y="95" on="0"/>
        <pt x="101" y="139" on="0"/>
        <pt x="135" y="182" on="0"/>
        <pt x="160" y="215" on="0"/>
        <pt x="161" y="216" on="1"/>
        <pt x="174" y="226" on="0"/>
        <pt x="200" y="224" on="0"/>
        <pt x="219" y="207" on="0"/>
        <pt x="226" y="182" on="0"/>
        <pt x="220" y="169" on="1"/>
        <pt x="213" y="153" on="0"/>
        <pt x="190" y="109" on="0"/>
        <pt x="187" y="92" on="1"/>
        <pt x="184" y="66" on="0"/>
        <pt x="202" y="50" on="0"/>
        <pt x="226" y="59" on="1"/>
        <pt x="245" y="67" on="0"/>
        <pt x="287" y="108" on="0"/>
        <pt x="328" y="154" on="0"/>
        <pt x="364" y="196" on="0"/>
        <pt x="376" y="206" on="1"/>
        <pt x="379" y="209" on="0"/>
        <pt x="388" y="216" on="0"/>
        <pt x="391" y="214" on="1"/>
        <pt x="396" y="212" on="0"/>
        <pt x="397" y="205" on="0"/>
        <pt x="397" y="201" on="1"/>
        <pt x="384" y="169" on="0"/>
        <pt x="348" y="107" on="0"/>
        <pt x="303" y="54" on="0"/>
        <pt x="248" y="13" on="0"/>
        <pt x="216" y="1" on="1"/>
        <pt x="196" y="-6" on="0"/>
        <pt x="164" y="-1" on="0"/>
        <pt x="138" y="17" on="0"/>
        <pt x="122" y="45" on="0"/>
      </contour>
    </TTGlyph>
    <TTGlyph name="aacute" xMin="-37" yMin="-6" xMax="397" yMax="734">
      <component glyphName="a" x="0" y="0" flags="0x204"/>
      <component glyphName="acute" x="35" y="0" flags="0x4"/>
    </TTGlyph>
    <TTGlyph name="acircumflex" xMin="-37" yMin="-6" xMax="397" yMax="710">
      <component glyphName="a" x="0" y="0" flags="0x204"/>
      <component glyphName="circumflex" x="38" y="0" flags="0x4"/>
    </TTGlyph>
    <TTGlyph name="acute" xMin="91" yMin="603" xMax="226" yMax="734">
      <contour>
        <pt x="134" y="624" on="1"/>
        <pt x="127" y="620" on="0"/>
        <pt x="107" y="608" on="0"/>
        <pt x="93" y="603" on="0"/>
        <pt x="91" y="611" on="0"/>
        <pt x="103" y="629" on="1"/>
        <pt x="114" y="642" on="0"/>
        <pt x="136" y="667" on="0"/>
        <pt x="147" y="678" on="1"/>
        <pt x="172" y="704" on="0"/>
        <pt x="202" y="727" on="1"/>
        <pt x="210" y="734" on="0"/>
        <pt x="226" y="724" on="0"/>
        <pt x="226" y="715" on="1"/>
        <pt x="226" y="704" on="0"/>
        <pt x="205" y="677" on="0"/>
        <pt x="175" y="651" on="0"/>
        <pt x="144" y="630" on="0"/>
      </contour>
    </TTGlyph>
    <TTGlyph name="adieresis" xMin="-37" yMin="-6" xMax="397" yMax="687">
      <component glyphName="a" x="0" y="0" flags="0x204"/>
      <component glyphName="dieresis" x="-10" y="0" flags="0x4"/>
    </TTGlyph>
    <TTGlyph name="ae" xMin="-37" yMin="-2" xMax="465" yMax="340">
      <contour>
        <pt x="291" y="323" on="1"/>
        <pt x="312" y="318" on="0"/>
        <pt x="335" y="286" on="0"/>
        <pt x="330" y="263" on="1"/>
        <pt x="326" y="241" on="0"/>
        <pt x="311" y="210" on="0"/>
        <pt x="293" y="193" on="1"/>
        <pt x="284" y="185" on="0"/>
        <pt x="252" y="159" on="0"/>
        <pt x="222" y="131" on="0"/>
        <pt x="200" y="102" on="0"/>
        <pt x="200" y="92" on="1"/>
        <pt x="197" y="66" on="0"/>
        <pt x="219" y="51" on="0"/>
        <pt x="254" y="54" on="0"/>
        <pt x="290" y="70" on="0"/>
        <pt x="301" y="76" on="1"/>
        <pt x="314" y="85" on="0"/>
        <pt x="346" y="112" on="0"/>
        <pt x="378" y="142" on="0"/>
        <pt x="408" y="170" on="0"/>
        <pt x="418" y="179" on="1"/>
        <pt x="426" y="187" on="0"/>
        <pt x="439" y="201" on="0"/>
        <pt x="448" y="206" on="1"/>
        <pt x="456" y="208" on="0"/>
        <pt x="465" y="206" on="0"/>
        <pt x="459" y="192" on="1"/>
        <pt x="451" y="175" on="0"/>
        <pt x="428" y="145" on="0"/>
        <pt x="415" y="130" on="1"/>
        <pt x="397" y="110" on="0"/>
        <pt x="356" y="66" on="0"/>
        <pt x="311" y="29" on="0"/>
        <pt x="262" y="2" on="0"/>
        <pt x="236" y="-2" on="1"/>
        <pt x="228" y="-2" on="0"/>
        <pt x="213" y="-2" on="0"/>
        <pt x="205" y="-1" on="1"/>
        <pt x="175" y="1" on="0"/>
        <pt x="125" y="33" on="0"/>
        <pt x="119" y="61" on="1"/>
        <pt x="110" y="54" on="0"/>
        <pt x="88" y="37" on="0"/>
        <pt x="62" y="24" on="0"/>
        <pt x="33" y="17" on="0"/>
        <pt x="17" y="20" on="1"/>
        <pt x="5" y="22" on="0"/>
        <pt x="-15" y="35" on="0"/>
        <pt x="-24" y="44" on="1"/>
        <pt x="-33" y="53" on="0"/>
        <pt x="-37" y="87" on="0"/>
        <pt x="-36" y="97" on="1"/>
        <pt x="-31" y="123" on="0"/>
        <pt x="-13" y="181" on="0"/>
        <pt x="0" y="209" on="1"/>
        <pt x="22" y="255" on="0"/>
        <pt x="90" y="327" on="0"/>
        <pt x="138" y="337" on="1"/>
        <pt x="151" y="340" on="0"/>
        <pt x="177" y="338" on="0"/>
        <pt x="201" y="329" on="0"/>
        <pt x="219" y="312" on="0"/>
        <pt x="223" y="302" on="1"/>
        <pt x="253" y="322" on="0"/>
      </contour>
      <contour>
        <pt x="193" y="276" on="1"/>
        <pt x="186" y="288" on="0"/>
        <pt x="172" y="288" on="1"/>
        <pt x="153" y="288" on="0"/>
        <pt x="105" y="241" on="0"/>
        <pt x="61" y="178" on="0"/>
        <pt x="29" y="115" on="0"/>
        <pt x="25" y="99" on="1"/>
        <pt x="20" y="77" on="0"/>
        <pt x="29" y="68" on="0"/>
        <pt x="50" y="83" on="0"/>
        <pt x="80" y="114" on="0"/>
        <pt x="111" y="151" on="0"/>
        <pt x="140" y="188" on="0"/>
        <pt x="149" y="200" on="1"/>
        <pt x="164" y="244" on="0"/>
      </contour>
      <contour>
        <pt x="291" y="277" on="1"/>
        <pt x="264" y="267" on="0"/>
        <pt x="233" y="235" on="0"/>
        <pt x="226" y="204" on="1"/>
        <pt x="248" y="220" on="0"/>
        <pt x="283" y="253" on="0"/>
      </contour>
    </TTGlyph>
    <TTGlyph name="agrave" xMin="-37" yMin="-6" xMax="397" yMax="734">
      <component glyphName="a" x="0" y="0" flags="0x204"/>
      <component glyphName="grave" x="35" y="0" flags="0x4"/>
    </TTGlyph>
    <TTGlyph name="ampersand" xMin="0" yMin="-71" xMax="575" yMax="587">
      <contour>
        <pt x="376" y="278" on="1"/>
        <pt x="332" y="267" on="0"/>
        <pt x="246" y="236" on="0"/>
        <pt x="171" y="193" on="0"/>
        <pt x="114" y="137" on="0"/>
        <pt x="99" y="100" on="1"/>
        <pt x="79" y="52" on="0"/>
        <pt x="106" y="7" on="0"/>
        <pt x="135" y="3" on="1"/>
        <pt x="165" y="-2" on="0"/>
        <pt x="242" y="23" on="0"/>
        <pt x="317" y="62" on="0"/>
        <pt x="380" y="107" on="0"/>
        <pt x="395" y="124" on="1"/>
        <pt x="393" y="150" on="0"/>
        <pt x="393" y="203" on="0"/>
        <pt x="402" y="226" on="1"/>
        <pt x="405" y="236" on="0"/>
        <pt x="425" y="244" on="0"/>
        <pt x="448" y="241" on="0"/>
        <pt x="466" y="226" on="0"/>
        <pt x="466" y="214" on="1"/>
        <pt x="467" y="196" on="0"/>
        <pt x="466" y="178" on="0"/>
        <pt x="466" y="161" on="1"/>
        <pt x="473" y="164" on="0"/>
        <pt x="496" y="182" on="0"/>
        <pt x="521" y="199" on="0"/>
        <pt x="543" y="209" on="0"/>
        <pt x="548" y="205" on="1"/>
        <pt x="553" y="200" on="0"/>
        <pt x="555" y="177" on="0"/>
        <pt x="553" y="172" on="1"/>
        <pt x="537" y="141" on="0"/>
        <pt x="501" y="93" on="0"/>
        <pt x="483" y="69" on="1"/>
        <pt x="490" y="47" on="0"/>
        <pt x="506" y="15" on="0"/>
        <pt x="524" y="-11" on="0"/>
        <pt x="545" y="-35" on="0"/>
        <pt x="557" y="-48" on="1"/>
        <pt x="575" y="-64" on="0"/>
        <pt x="560" y="-71" on="0"/>
        <pt x="525" y="-65" on="0"/>
        <pt x="487" y="-52" on="0"/>
        <pt x="481" y="-49" on="1"/>
        <pt x="461" y="-37" on="0"/>
        <pt x="431" y="-4" on="0"/>
        <pt x="420" y="16" on="1"/>
        <pt x="354" y="-23" on="0"/>
        <pt x="237" y="-71" on="0"/>
        <pt x="172" y="-71" on="1"/>
        <pt x="118" y="-71" on="0"/>
        <pt x="36" y="-11" on="0"/>
        <pt x="13" y="34" on="1"/>
        <pt x="3" y="58" on="0"/>
        <pt x="0" y="106" on="0"/>
        <pt x="5" y="129" on="1"/>
        <pt x="12" y="166" on="0"/>
        <pt x="50" y="223" on="0"/>
        <pt x="98" y="266" on="0"/>
        <pt x="150" y="296" on="0"/>
        <pt x="172" y="306" on="1"/>
        <pt x="152" y="327" on="0"/>
        <pt x="140" y="377" on="0"/>
        <pt x="147" y="427" on="0"/>
        <pt x="169" y="475" on="0"/>
        <pt x="183" y="495" on="1"/>
        <pt x="209" y="528" on="0"/>
        <pt x="290" y="574" on="0"/>
        <pt x="376" y="587" on="0"/>
        <pt x="455" y="559" on="0"/>
        <pt x="479" y="518" on="1"/>
        <pt x="488" y="501" on="0"/>
        <pt x="493" y="474" on="0"/>
        <pt x="493" y="457" on="1"/>
        <pt x="490" y="445" on="0"/>
        <pt x="480" y="453" on="1"/>
        <pt x="472" y="460" on="0"/>
        <pt x="465" y="468" on="1"/>
        <pt x="443" y="498" on="0"/>
        <pt x="368" y="510" on="0"/>
        <pt x="290" y="489" on="0"/>
        <pt x="225" y="442" on="0"/>
        <pt x="213" y="413" on="1"/>
        <pt x="204" y="390" on="0"/>
        <pt x="236" y="353" on="0"/>
        <pt x="291" y="327" on="0"/>
        <pt x="357" y="316" on="0"/>
        <pt x="381" y="320" on="1"/>
        <pt x="396" y="324" on="0"/>
        <pt x="403" y="314" on="0"/>
        <pt x="397" y="298" on="0"/>
        <pt x="383" y="281" on="0"/>
      </contour>
    </TTGlyph>
    <TTGlyph name="aring" xMin="-37" yMin="-6" xMax="397" yMax="730">
      <component glyphName="a" x="0" y="0" flags="0x204"/>
      <component glyphName="ring" x="31" y="0" flags="0x4"/>
    </TTGlyph>
    <TTGlyph name="asciicircum" xMin="57" yMin="573" xMax="241" yMax="710">
      <contour>
        <pt x="218" y="594" on="1"/>
        <pt x="207" y="602" on="0"/>
        <pt x="188" y="641" on="0"/>
        <pt x="172" y="660" on="1"/>
        <pt x="152" y="640" on="0"/>
        <pt x="119" y="598" on="0"/>
        <pt x="99" y="581" on="1"/>
        <pt x="90" y="573" on="0"/>
        <pt x="72" y="577" on="0"/>
        <pt x="60" y="591" on="0"/>
        <pt x="57" y="611" on="0"/>
        <pt x="64" y="619" on="1"/>
        <pt x="79" y="636" on="0"/>
        <pt x="107" y="671" on="0"/>
        <pt x="122" y="688" on="1"/>
        <pt x="138" y="708" on="0"/>
        <pt x="184" y="710" on="0"/>
        <pt x="201" y="684" on="1"/>
        <pt x="215" y="664" on="0"/>
        <pt x="234" y="618" on="0"/>
        <pt x="238" y="596" on="1"/>
        <pt x="241" y="588" on="0"/>
        <pt x="239" y="583" on="0"/>
        <pt x="232" y="585" on="0"/>
        <pt x="223" y="591" on="0"/>
      </contour>
    </TTGlyph>
    <TTGlyph name="asciitilde" xMin="9" yMin="106" xMax="304" yMax="224">
      <contour>
        <pt x="302" y="186" on="1"/>
        <pt x="282" y="122" on="0"/>
        <pt x="220" y="110" on="1"/>
        <pt x="201" y="106" on="0"/>
        <pt x="174" y="118" on="0"/>
        <pt x="152" y="139" on="0"/>
        <pt x="134" y="163" on="0"/>
        <pt x="116" y="180" on="0"/>
        <pt x="97" y="183" on="0"/>
        <pt x="84" y="173" on="1"/>
        <pt x="70" y="163" on="0"/>
        <pt x="46" y="141" on="0"/>
        <pt x="34" y="130" on="1"/>
        <pt x="28" y="124" on="0"/>
        <pt x="19" y="128" on="1"/>
        <pt x="9" y="136" on="0"/>
        <pt x="20" y="162" on="0"/>
        <pt x="43" y="189" on="0"/>
        <pt x="69" y="210" on="0"/>
        <pt x="75" y="214" on="1"/>
        <pt x="91" y="224" on="0"/>
        <pt x="124" y="224" on="0"/>
        <pt x="140" y="213" on="1"/>
        <pt x="155" y="201" on="0"/>
        <pt x="176" y="177" on="0"/>
        <pt x="196" y="160" on="0"/>
        <pt x="220" y="157" on="0"/>
        <pt x="237" y="168" on="1"/>
        <pt x="250" y="176" on="0"/>
        <pt x="276" y="192" on="0"/>
        <pt x="288" y="200" on="1"/>
        <pt x="298" y="206" on="0"/>
        <pt x="304" y="195" on="0"/>
      </contour>
    </TTGlyph>
    <TTGlyph name="asterisk" xMin="64" yMin="573" xMax="247" yMax="757">
      <contour>
        <pt x="176" y="635" on="1"/>
        <pt x="168" y="622" on="0"/>
        <pt x="155" y="600" on="0"/>
        <pt x="148" y="589" on="1"/>
        <pt x="144" y="583" on="0"/>
        <pt x="136" y="573" on="0"/>
        <pt x="128" y="575" on="1"/>
        <pt x="122" y="576" on="0"/>
        <pt x="118" y="596" on="0"/>
        <pt x="117" y="619" on="0"/>
        <pt x="119" y="640" on="0"/>
        <pt x="119" y="643" on="1"/>
        <pt x="111" y="638" on="0"/>
        <pt x="100" y="631" on="0"/>
        <pt x="95" y="628" on="1"/>
        <pt x="83" y="619" on="0"/>
        <pt x="74" y="625" on="1"/>
        <pt x="64" y="633" on="0"/>
        <pt x="69" y="646" on="1"/>
        <pt x="77" y="660" on="0"/>
        <pt x="96" y="679" on="0"/>
        <pt x="109" y="687" on="1"/>
        <pt x="102" y="693" on="0"/>
        <pt x="89" y="703" on="0"/>
        <pt x="84" y="710" on="1"/>
        <pt x="80" y="715" on="0"/>
        <pt x="81" y="728" on="0"/>
        <pt x="86" y="731" on="1"/>
        <pt x="95" y="743" on="0"/>
        <pt x="109" y="735" on="1"/>
        <pt x="118" y="730" on="0"/>
        <pt x="135" y="721" on="0"/>
        <pt x="144" y="716" on="1"/>
        <pt x="148" y="724" on="0"/>
        <pt x="155" y="738" on="0"/>
        <pt x="160" y="745" on="1"/>
        <pt x="166" y="754" on="0"/>
        <pt x="181" y="757" on="0"/>
        <pt x="193" y="751" on="0"/>
        <pt x="201" y="738" on="0"/>
        <pt x="201" y="729" on="1"/>
        <pt x="201" y="726" on="0"/>
        <pt x="193" y="706" on="0"/>
        <pt x="193" y="702" on="1"/>
        <pt x="204" y="704" on="0"/>
        <pt x="225" y="705" on="0"/>
        <pt x="236" y="700" on="1"/>
        <pt x="247" y="695" on="0"/>
        <pt x="240" y="684" on="0"/>
        <pt x="232" y="682" on="1"/>
        <pt x="223" y="680" on="0"/>
        <pt x="203" y="679" on="0"/>
        <pt x="194" y="671" on="1"/>
        <pt x="219" y="647" on="0"/>
        <pt x="225" y="618" on="1"/>
        <pt x="231" y="594" on="0"/>
        <pt x="219" y="595" on="0"/>
        <pt x="206" y="603" on="1"/>
        <pt x="199" y="611" on="0"/>
        <pt x="184" y="626" on="0"/>
      </contour>
    </TTGlyph>
    <TTGlyph name="at" xMin="42" yMin="-38" xMax="507" yMax="420">
      <contour>
        <pt x="282" y="118" on="1"/>
        <pt x="259" y="106" on="0"/>
        <pt x="214" y="80" on="0"/>
        <pt x="188" y="86" on="1"/>
        <pt x="164" y="91" on="0"/>
        <pt x="139" y="127" on="0"/>
        <pt x="142" y="149" on="1"/>
        <pt x="145" y="169" on="0"/>
        <pt x="171" y="215" on="0"/>
        <pt x="208" y="249" on="0"/>
        <pt x="253" y="262" on="0"/>
        <pt x="274" y="250" on="1"/>
        <pt x="280" y="256" on="0"/>
        <pt x="286" y="259" on="1"/>
        <pt x="299" y="268" on="0"/>
        <pt x="327" y="256" on="0"/>
        <pt x="329" y="242" on="1"/>
        <pt x="330" y="234" on="0"/>
        <pt x="329" y="219" on="0"/>
        <pt x="329" y="211" on="1"/>
        <pt x="329" y="201" on="0"/>
        <pt x="328" y="177" on="0"/>
        <pt x="332" y="159" on="0"/>
        <pt x="345" y="149" on="0"/>
        <pt x="359" y="152" on="1"/>
        <pt x="411" y="172" on="0"/>
        <pt x="434" y="221" on="1"/>
        <pt x="448" y="252" on="0"/>
        <pt x="439" y="300" on="0"/>
        <pt x="407" y="334" on="0"/>
        <pt x="357" y="351" on="0"/>
        <pt x="301" y="350" on="0"/>
        <pt x="244" y="331" on="0"/>
        <pt x="222" y="311" on="1"/>
        <pt x="210" y="300" on="0"/>
        <pt x="175" y="260" on="0"/>
        <pt x="140" y="211" on="0"/>
        <pt x="111" y="157" on="0"/>
        <pt x="97" y="107" on="0"/>
        <pt x="105" y="64" on="0"/>
        <pt x="125" y="51" on="1"/>
        <pt x="144" y="40" on="0"/>
        <pt x="194" y="30" on="0"/>
        <pt x="246" y="28" on="0"/>
        <pt x="298" y="33" on="0"/>
        <pt x="319" y="37" on="1"/>
        <pt x="339" y="40" on="0"/>
        <pt x="379" y="48" on="0"/>
        <pt x="399" y="50" on="1"/>
        <pt x="408" y="52" on="0"/>
        <pt x="412" y="49" on="0"/>
        <pt x="409" y="43" on="0"/>
        <pt x="401" y="35" on="0"/>
        <pt x="397" y="32" on="1"/>
        <pt x="354" y="4" on="0"/>
        <pt x="262" y="-32" on="0"/>
        <pt x="212" y="-37" on="1"/>
        <pt x="184" y="-38" on="0"/>
        <pt x="131" y="-24" on="0"/>
        <pt x="87" y="4" on="0"/>
        <pt x="56" y="45" on="0"/>
        <pt x="50" y="72" on="1"/>
        <pt x="42" y="118" on="0"/>
        <pt x="67" y="215" on="0"/>
        <pt x="118" y="302" on="0"/>
        <pt x="187" y="373" on="0"/>
        <pt x="223" y="394" on="1"/>
        <pt x="257" y="411" on="0"/>
        <pt x="325" y="420" on="0"/>
        <pt x="361" y="407" on="1"/>
        <pt x="398" y="395" on="0"/>
        <pt x="463" y="349" on="0"/>
        <pt x="502" y="288" on="0"/>
        <pt x="507" y="216" on="0"/>
        <pt x="485" y="179" on="1"/>
        <pt x="444" y="114" on="0"/>
        <pt x="372" y="89" on="1"/>
        <pt x="348" y="83" on="0"/>
        <pt x="305" y="94" on="0"/>
        <pt x="288" y="113" on="1"/>
        <pt x="286" y="114" on="0"/>
        <pt x="284" y="117" on="0"/>
      </contour>
      <contour>
        <pt x="207" y="151" on="1"/>
        <pt x="219" y="152" on="0"/>
        <pt x="241" y="161" on="0"/>
        <pt x="258" y="175" on="0"/>
        <pt x="267" y="194" on="0"/>
        <pt x="264" y="206" on="1"/>
        <pt x="244" y="197" on="0"/>
        <pt x="215" y="172" on="0"/>
      </contour>
    </TTGlyph>
    <TTGlyph name="atilde" xMin="-37" yMin="-6" xMax="397" yMax="694">
      <component glyphName="a" x="0" y="0" flags="0x204"/>
      <component glyphName="tilde" x="12" y="0" flags="0x4"/>
    </TTGlyph>
    <TTGlyph name="b" xMin="-68" yMin="-116" xMax="424" yMax="773">
      <contour>
        <pt x="96" y="118" on="1"/>
        <pt x="116" y="104" on="0"/>
        <pt x="160" y="108" on="0"/>
        <pt x="198" y="132" on="0"/>
        <pt x="224" y="172" on="0"/>
        <pt x="226" y="194" on="1"/>
        <pt x="192" y="179" on="0"/>
        <pt x="125" y="138" on="0"/>
      </contour>
      <contour>
        <pt x="48" y="126" on="1"/>
        <pt x="60" y="126" on="0"/>
        <pt x="72" y="137" on="0"/>
        <pt x="79" y="142" on="1"/>
        <pt x="102" y="166" on="0"/>
        <pt x="159" y="203" on="0"/>
        <pt x="190" y="218" on="1"/>
        <pt x="205" y="224" on="0"/>
        <pt x="215" y="231" on="1"/>
        <pt x="207" y="231" on="1"/>
        <pt x="204" y="229" on="0"/>
        <pt x="198" y="228" on="0"/>
        <pt x="193" y="226" on="1"/>
        <pt x="117" y="199" on="0"/>
        <pt x="57" y="140" on="1"/>
        <pt x="54" y="138" on="0"/>
        <pt x="52" y="130" on="0"/>
      </contour>
      <contour>
        <pt x="74" y="204" on="1"/>
        <pt x="93" y="218" on="0"/>
        <pt x="130" y="238" on="0"/>
        <pt x="148" y="248" on="1"/>
        <pt x="164" y="257" on="0"/>
        <pt x="206" y="270" on="0"/>
        <pt x="245" y="271" on="0"/>
        <pt x="277" y="255" on="0"/>
        <pt x="285" y="234" on="1"/>
        <pt x="285" y="228" on="0"/>
        <pt x="289" y="226" on="0"/>
        <pt x="293" y="226" on="1"/>
        <pt x="327" y="226" on="0"/>
        <pt x="396" y="215" on="0"/>
        <pt x="417" y="200" on="1"/>
        <pt x="424" y="195" on="0"/>
        <pt x="422" y="191" on="0"/>
        <pt x="413" y="189" on="0"/>
        <pt x="401" y="189" on="0"/>
        <pt x="400" y="189" on="1"/>
        <pt x="377" y="191" on="0"/>
        <pt x="336" y="198" on="0"/>
        <pt x="315" y="198" on="1"/>
        <pt x="293" y="198" on="1"/>
        <pt x="288" y="167" on="0"/>
        <pt x="262" y="99" on="0"/>
        <pt x="220" y="42" on="0"/>
        <pt x="162" y="6" on="0"/>
        <pt x="126" y="8" on="1"/>
        <pt x="102" y="7" on="0"/>
        <pt x="71" y="23" on="0"/>
        <pt x="52" y="48" on="0"/>
        <pt x="41" y="78" on="0"/>
        <pt x="38" y="91" on="1"/>
        <pt x="38" y="89" on="0"/>
        <pt x="34" y="86" on="0"/>
        <pt x="34" y="84" on="1"/>
        <pt x="27" y="64" on="0"/>
        <pt x="13" y="24" on="0"/>
        <pt x="-4" y="-21" on="0"/>
        <pt x="-25" y="-72" on="0"/>
        <pt x="-38" y="-103" on="1"/>
        <pt x="-40" y="-108" on="0"/>
        <pt x="-44" y="-110" on="0"/>
        <pt x="-47" y="-112" on="1"/>
        <pt x="-52" y="-116" on="0"/>
        <pt x="-63" y="-114" on="0"/>
        <pt x="-65" y="-109" on="1"/>
        <pt x="-68" y="-61" on="0"/>
        <pt x="-53" y="38" on="0"/>
        <pt x="-28" y="136" on="0"/>
        <pt x="3" y="230" on="0"/>
        <pt x="16" y="274" on="1"/>
        <pt x="51" y="375" on="0"/>
        <pt x="129" y="548" on="0"/>
        <pt x="173" y="633" on="1"/>
        <pt x="191" y="666" on="0"/>
        <pt x="226" y="730" on="0"/>
        <pt x="249" y="756" on="1"/>
        <pt x="256" y="765" on="0"/>
        <pt x="277" y="773" on="0"/>
        <pt x="288" y="768" on="1"/>
        <pt x="310" y="758" on="0"/>
        <pt x="307" y="731" on="1"/>
        <pt x="302" y="693" on="0"/>
        <pt x="285" y="616" on="0"/>
        <pt x="270" y="579" on="1"/>
        <pt x="240" y="507" on="0"/>
        <pt x="166" y="376" on="0"/>
        <pt x="118" y="317" on="1"/>
        <pt x="112" y="311" on="0"/>
        <pt x="100" y="281" on="0"/>
        <pt x="89" y="247" on="0"/>
        <pt x="79" y="214" on="0"/>
      </contour>
      <contour>
        <pt x="286" y="684" on="1"/>
        <pt x="243" y="612" on="0"/>
        <pt x="175" y="460" on="0"/>
        <pt x="141" y="384" on="1"/>
        <pt x="150" y="393" on="0"/>
        <pt x="177" y="436" on="0"/>
        <pt x="207" y="491" on="0"/>
        <pt x="237" y="555" on="0"/>
        <pt x="263" y="615" on="0"/>
        <pt x="282" y="668" on="0"/>
      </contour>
    </TTGlyph>
    <TTGlyph name="backslash" xMin="-77" yMin="-93" xMax="377" yMax="736">
      <contour>
        <pt x="369" y="-63" on="1"/>
        <pt x="377" y="-85" on="0"/>
        <pt x="357" y="-93" on="0"/>
        <pt x="343" y="-75" on="1"/>
        <pt x="332" y="-61" on="0"/>
        <pt x="312" y="-34" on="0"/>
        <pt x="302" y="-19" on="1"/>
        <pt x="257" y="56" on="0"/>
        <pt x="160" y="236" on="0"/>
        <pt x="63" y="424" on="0"/>
        <pt x="-29" y="607" on="0"/>
        <pt x="-69" y="687" on="1"/>
        <pt x="-71" y="692" on="0"/>
        <pt x="-74" y="701" on="0"/>
        <pt x="-76" y="707" on="1"/>
        <pt x="-77" y="713" on="0"/>
        <pt x="-76" y="725" on="0"/>
        <pt x="-70" y="734" on="0"/>
        <pt x="-57" y="736" on="0"/>
        <pt x="-46" y="730" on="1"/>
        <pt x="-35" y="724" on="0"/>
        <pt x="-19" y="707" on="0"/>
        <pt x="-12" y="698" on="1"/>
        <pt x="38" y="631" on="0"/>
        <pt x="140" y="463" on="0"/>
        <pt x="234" y="283" on="0"/>
        <pt x="316" y="100" on="0"/>
        <pt x="346" y="18" on="1"/>
        <pt x="353" y="-2" on="0"/>
        <pt x="364" y="-42" on="0"/>
      </contour>
    </TTGlyph>
    <TTGlyph name="bar" xMin="73" yMin="-139" xMax="239" yMax="787">
      <contour>
        <pt x="103" y="-116" on="1"/>
        <pt x="96" y="-139" on="0"/>
        <pt x="76" y="-134" on="0"/>
        <pt x="74" y="-111" on="1"/>
        <pt x="74" y="-94" on="0"/>
        <pt x="73" y="-59" on="0"/>
        <pt x="73" y="-42" on="1"/>
        <pt x="80" y="46" on="0"/>
        <pt x="107" y="248" on="0"/>
        <pt x="138" y="457" on="0"/>
        <pt x="170" y="660" on="0"/>
        <pt x="184" y="749" on="1"/>
        <pt x="186" y="754" on="0"/>
        <pt x="188" y="763" on="0"/>
        <pt x="190" y="769" on="1"/>
        <pt x="193" y="774" on="0"/>
        <pt x="201" y="784" on="0"/>
        <pt x="211" y="787" on="0"/>
        <pt x="222" y="781" on="0"/>
        <pt x="228" y="770" on="1"/>
        <pt x="233" y="759" on="0"/>
        <pt x="236" y="735" on="0"/>
        <pt x="237" y="724" on="1"/>
        <pt x="239" y="641" on="0"/>
        <pt x="224" y="445" on="0"/>
        <pt x="195" y="243" on="0"/>
        <pt x="155" y="47" on="0"/>
        <pt x="132" y="-37" on="1"/>
        <pt x="126" y="-57" on="0"/>
        <pt x="111" y="-96" on="0"/>
      </contour>
    </TTGlyph>
    <TTGlyph name="braceleft" xMin="-2" yMin="-124" xMax="331" yMax="674">
      <contour>
        <pt x="122" y="306" on="1"/>
        <pt x="141" y="287" on="0"/>
        <pt x="156" y="242" on="0"/>
        <pt x="157" y="194" on="0"/>
        <pt x="147" y="143" on="0"/>
        <pt x="142" y="118" on="1"/>
        <pt x="133" y="86" on="0"/>
        <pt x="119" y="26" on="0"/>
        <pt x="119" y="-25" on="0"/>
        <pt x="136" y="-68" on="0"/>
        <pt x="157" y="-83" on="1"/>
        <pt x="169" y="-93" on="0"/>
        <pt x="155" y="-105" on="1"/>
        <pt x="129" y="-124" on="0"/>
        <pt x="72" y="-104" on="0"/>
        <pt x="62" y="-72" on="1"/>
        <pt x="50" y="-36" on="0"/>
        <pt x="52" y="34" on="0"/>
        <pt x="59" y="68" on="1"/>
        <pt x="63" y="88" on="0"/>
        <pt x="76" y="133" on="0"/>
        <pt x="87" y="179" on="0"/>
        <pt x="94" y="223" on="0"/>
        <pt x="91" y="241" on="1"/>
        <pt x="88" y="261" on="0"/>
        <pt x="52" y="283" on="0"/>
        <pt x="38" y="285" on="1"/>
        <pt x="29" y="287" on="0"/>
        <pt x="12" y="306" on="0"/>
        <pt x="0" y="329" on="0"/>
        <pt x="-2" y="353" on="0"/>
        <pt x="5" y="359" on="1"/>
        <pt x="13" y="366" on="0"/>
        <pt x="36" y="362" on="0"/>
        <pt x="47" y="362" on="1"/>
        <pt x="82" y="362" on="0"/>
        <pt x="123" y="402" on="0"/>
        <pt x="147" y="461" on="0"/>
        <pt x="162" y="529" on="0"/>
        <pt x="170" y="557" on="1"/>
        <pt x="180" y="593" on="0"/>
        <pt x="212" y="646" on="0"/>
        <pt x="252" y="674" on="0"/>
        <pt x="298" y="671" on="0"/>
        <pt x="324" y="652" on="1"/>
        <pt x="331" y="648" on="0"/>
        <pt x="331" y="634" on="0"/>
        <pt x="324" y="632" on="1"/>
        <pt x="317" y="628" on="0"/>
        <pt x="303" y="622" on="0"/>
        <pt x="296" y="618" on="1"/>
        <pt x="268" y="607" on="0"/>
        <pt x="242" y="556" on="0"/>
        <pt x="234" y="528" on="1"/>
        <pt x="225" y="496" on="0"/>
        <pt x="207" y="431" on="0"/>
        <pt x="182" y="373" on="0"/>
        <pt x="147" y="323" on="0"/>
      </contour>
    </TTGlyph>
    <TTGlyph name="braceright" xMin="-50" yMin="-118" xMax="310" yMax="674">
      <contour>
        <pt x="167" y="306" on="1"/>
        <pt x="149" y="323" on="0"/>
        <pt x="135" y="373" on="0"/>
        <pt x="135" y="431" on="0"/>
        <pt x="145" y="496" on="0"/>
        <pt x="150" y="528" on="1"/>
        <pt x="154" y="556" on="0"/>
        <pt x="149" y="607" on="0"/>
        <pt x="126" y="618" on="1"/>
        <pt x="121" y="622" on="0"/>
        <pt x="110" y="628" on="0"/>
        <pt x="105" y="632" on="1"/>
        <pt x="99" y="634" on="0"/>
        <pt x="105" y="648" on="0"/>
        <pt x="113" y="652" on="1"/>
        <pt x="147" y="671" on="0"/>
        <pt x="194" y="674" on="0"/>
        <pt x="223" y="646" on="0"/>
        <pt x="231" y="593" on="0"/>
        <pt x="226" y="557" on="1"/>
        <pt x="223" y="529" on="0"/>
        <pt x="208" y="461" on="0"/>
        <pt x="207" y="402" on="0"/>
        <pt x="231" y="362" on="0"/>
        <pt x="266" y="362" on="1"/>
        <pt x="277" y="362" on="0"/>
        <pt x="301" y="366" on="0"/>
        <pt x="306" y="359" on="1"/>
        <pt x="310" y="353" on="0"/>
        <pt x="299" y="329" on="0"/>
        <pt x="277" y="306" on="0"/>
        <pt x="251" y="287" on="0"/>
        <pt x="242" y="285" on="1"/>
        <pt x="227" y="283" on="0"/>
        <pt x="181" y="261" on="0"/>
        <pt x="170" y="241" on="1"/>
        <pt x="159" y="223" on="0"/>
        <pt x="147" y="179" on="0"/>
        <pt x="139" y="133" on="0"/>
        <pt x="132" y="88" on="0"/>
        <pt x="128" y="68" on="1"/>
        <pt x="120" y="34" on="0"/>
        <pt x="92" y="-36" on="0"/>
        <pt x="64" y="-72" on="1"/>
        <pt x="52" y="-88" on="0"/>
        <pt x="23" y="-109" on="0"/>
        <pt x="-7" y="-118" on="0"/>
        <pt x="-33" y="-114" on="0"/>
        <pt x="-42" y="-105" on="1"/>
        <pt x="-50" y="-94" on="0"/>
        <pt x="-35" y="-83" on="1"/>
        <pt x="-8" y="-68" on="0"/>
        <pt x="27" y="-25" on="0"/>
        <pt x="49" y="26" on="0"/>
        <pt x="61" y="86" on="0"/>
        <pt x="66" y="118" on="1"/>
        <pt x="71" y="143" on="0"/>
        <pt x="84" y="194" on="0"/>
        <pt x="105" y="242" on="0"/>
        <pt x="140" y="287" on="0"/>
      </contour>
    </TTGlyph>
    <TTGlyph name="bracketleft" xMin="1" yMin="-91" xMax="359" yMax="761">
      <contour>
        <pt x="203" y="701" on="1"/>
        <pt x="201" y="705" on="0"/>
        <pt x="198" y="709" on="0"/>
        <pt x="196" y="711" on="1"/>
        <pt x="191" y="719" on="0"/>
        <pt x="188" y="738" on="0"/>
        <pt x="192" y="753" on="0"/>
        <pt x="206" y="761" on="0"/>
        <pt x="217" y="760" on="1"/>
        <pt x="249" y="755" on="0"/>
        <pt x="308" y="755" on="0"/>
        <pt x="337" y="748" on="1"/>
        <pt x="354" y="746" on="0"/>
        <pt x="359" y="732" on="0"/>
        <pt x="351" y="723" on="1"/>
        <pt x="341" y="712" on="0"/>
        <pt x="323" y="703" on="0"/>
        <pt x="303" y="701" on="0"/>
        <pt x="282" y="703" on="0"/>
        <pt x="270" y="703" on="1"/>
        <pt x="245" y="619" on="0"/>
        <pt x="195" y="438" on="0"/>
        <pt x="146" y="252" on="0"/>
        <pt x="99" y="69" on="0"/>
        <pt x="77" y="-16" on="1"/>
        <pt x="89" y="-18" on="0"/>
        <pt x="123" y="-25" on="0"/>
        <pt x="154" y="-37" on="0"/>
        <pt x="175" y="-56" on="0"/>
        <pt x="173" y="-69" on="1"/>
        <pt x="170" y="-83" on="0"/>
        <pt x="129" y="-91" on="0"/>
        <pt x="78" y="-90" on="0"/>
        <pt x="31" y="-85" on="0"/>
        <pt x="21" y="-85" on="1"/>
        <pt x="10" y="-85" on="0"/>
        <pt x="1" y="-69" on="0"/>
        <pt x="1" y="-48" on="0"/>
        <pt x="10" y="-28" on="0"/>
        <pt x="17" y="-24" on="1"/>
        <pt x="19" y="-22" on="0"/>
        <pt x="24" y="-21" on="0"/>
        <pt x="27" y="-19" on="1"/>
        <pt x="25" y="32" on="0"/>
        <pt x="45" y="161" on="0"/>
        <pt x="77" y="300" on="0"/>
        <pt x="118" y="440" on="0"/>
        <pt x="158" y="566" on="0"/>
        <pt x="193" y="669" on="0"/>
      </contour>
    </TTGlyph>
    <TTGlyph name="bracketright" xMin="-78" yMin="-91" xMax="316" yMax="761">
      <contour>
        <pt x="280" y="701" on="1"/>
        <pt x="274" y="669" on="0"/>
        <pt x="257" y="566" on="0"/>
        <pt x="234" y="440" on="0"/>
        <pt x="204" y="300" on="0"/>
        <pt x="167" y="161" on="0"/>
        <pt x="122" y="32" on="0"/>
        <pt x="95" y="-19" on="1"/>
        <pt x="97" y="-21" on="0"/>
        <pt x="101" y="-22" on="0"/>
        <pt x="103" y="-24" on="1"/>
        <pt x="108" y="-28" on="0"/>
        <pt x="106" y="-48" on="0"/>
        <pt x="96" y="-69" on="0"/>
        <pt x="79" y="-85" on="0"/>
        <pt x="68" y="-85" on="1"/>
        <pt x="58" y="-85" on="0"/>
        <pt x="9" y="-90" on="0"/>
        <pt x="-42" y="-91" on="0"/>
        <pt x="-78" y="-83" on="0"/>
        <pt x="-75" y="-69" on="1"/>
        <pt x="-70" y="-56" on="0"/>
        <pt x="-40" y="-37" on="0"/>
        <pt x="-3" y="-25" on="0"/>
        <pt x="34" y="-18" on="0"/>
        <pt x="47" y="-16" on="1"/>
        <pt x="68" y="69" on="0"/>
        <pt x="112" y="252" on="0"/>
        <pt x="156" y="438" on="0"/>
        <pt x="197" y="619" on="0"/>
        <pt x="214" y="703" on="1"/>
        <pt x="202" y="703" on="0"/>
        <pt x="179" y="701" on="0"/>
        <pt x="161" y="703" on="0"/>
        <pt x="147" y="712" on="0"/>
        <pt x="143" y="723" on="1"/>
        <pt x="134" y="743" on="0"/>
        <pt x="169" y="748" on="1"/>
        <pt x="202" y="755" on="0"/>
        <pt x="261" y="755" on="0"/>
        <pt x="295" y="760" on="1"/>
        <pt x="307" y="761" on="0"/>
        <pt x="316" y="753" on="0"/>
        <pt x="314" y="738" on="0"/>
        <pt x="301" y="719" on="0"/>
        <pt x="292" y="711" on="1"/>
        <pt x="289" y="709" on="0"/>
        <pt x="284" y="705" on="0"/>
      </contour>
    </TTGlyph>
    <TTGlyph name="c" xMin="-31" yMin="10" xMax="313" yMax="298">
      <contour>
        <pt x="297" y="198" on="1"/>
        <pt x="308" y="203" on="0"/>
        <pt x="313" y="192" on="0"/>
        <pt x="309" y="184" on="1"/>
        <pt x="303" y="172" on="0"/>
        <pt x="285" y="152" on="0"/>
        <pt x="274" y="143" on="1"/>
        <pt x="251" y="122" on="0"/>
        <pt x="220" y="95" on="0"/>
        <pt x="199" y="79" on="0"/>
        <pt x="185" y="69" on="0"/>
        <pt x="179" y="65" on="1"/>
        <pt x="156" y="51" on="0"/>
        <pt x="111" y="25" on="0"/>
        <pt x="91" y="19" on="1"/>
        <pt x="60" y="10" on="0"/>
        <pt x="1" y="27" on="0"/>
        <pt x="-14" y="54" on="1"/>
        <pt x="-31" y="85" on="0"/>
        <pt x="-25" y="166" on="0"/>
        <pt x="10" y="241" on="0"/>
        <pt x="68" y="294" on="0"/>
        <pt x="103" y="296" on="1"/>
        <pt x="114" y="298" on="0"/>
        <pt x="137" y="281" on="0"/>
        <pt x="140" y="270" on="1"/>
        <pt x="143" y="261" on="0"/>
        <pt x="139" y="239" on="0"/>
        <pt x="132" y="212" on="0"/>
        <pt x="124" y="180" on="0"/>
        <pt x="121" y="163" on="1"/>
        <pt x="119" y="157" on="0"/>
        <pt x="112" y="156" on="0"/>
        <pt x="109" y="161" on="1"/>
        <pt x="98" y="178" on="0"/>
        <pt x="93" y="209" on="0"/>
        <pt x="90" y="223" on="1"/>
        <pt x="84" y="223" on="0"/>
        <pt x="65" y="200" on="0"/>
        <pt x="47" y="166" on="0"/>
        <pt x="35" y="127" on="0"/>
        <pt x="35" y="112" on="1"/>
        <pt x="35" y="92" on="0"/>
        <pt x="47" y="72" on="0"/>
        <pt x="65" y="68" on="0"/>
        <pt x="89" y="74" on="0"/>
        <pt x="101" y="80" on="1"/>
        <pt x="154" y="105" on="0"/>
        <pt x="252" y="162" on="0"/>
      </contour>
    </TTGlyph>
    <TTGlyph name="ccedilla" xMin="-31" yMin="-118" xMax="313" yMax="298">
      <contour>
        <pt x="30" y="-71" on="1"/>
        <pt x="52" y="-69" on="0"/>
        <pt x="97" y="-53" on="0"/>
        <pt x="105" y="-32" on="1"/>
        <pt x="92" y="-31" on="0"/>
        <pt x="69" y="-30" on="0"/>
        <pt x="58" y="-32" on="1"/>
        <pt x="49" y="-32" on="0"/>
        <pt x="39" y="-19" on="0"/>
        <pt x="41" y="-11" on="1"/>
        <pt x="47" y="15" on="1"/>
        <pt x="28" y="17" on="0"/>
        <pt x="-4" y="36" on="0"/>
        <pt x="-14" y="54" on="1"/>
        <pt x="-31" y="85" on="0"/>
        <pt x="-25" y="166" on="0"/>
        <pt x="10" y="241" on="0"/>
        <pt x="68" y="294" on="0"/>
        <pt x="103" y="296" on="1"/>
        <pt x="114" y="298" on="0"/>
        <pt x="137" y="281" on="0"/>
        <pt x="140" y="270" on="1"/>
        <pt x="143" y="261" on="0"/>
        <pt x="139" y="239" on="0"/>
        <pt x="132" y="212" on="0"/>
        <pt x="124" y="180" on="0"/>
        <pt x="121" y="163" on="1"/>
        <pt x="119" y="157" on="0"/>
        <pt x="112" y="156" on="0"/>
        <pt x="109" y="161" on="1"/>
        <pt x="98" y="178" on="0"/>
        <pt x="93" y="209" on="0"/>
        <pt x="90" y="223" on="1"/>
        <pt x="84" y="223" on="0"/>
        <pt x="65" y="200" on="0"/>
        <pt x="47" y="166" on="0"/>
        <pt x="35" y="127" on="0"/>
        <pt x="35" y="112" on="1"/>
        <pt x="35" y="92" on="0"/>
        <pt x="47" y="72" on="0"/>
        <pt x="65" y="68" on="0"/>
        <pt x="89" y="74" on="0"/>
        <pt x="101" y="80" on="1"/>
        <pt x="154" y="105" on="0"/>
        <pt x="252" y="162" on="0"/>
        <pt x="297" y="198" on="1"/>
        <pt x="308" y="203" on="0"/>
        <pt x="313" y="192" on="0"/>
        <pt x="309" y="184" on="1"/>
        <pt x="303" y="172" on="0"/>
        <pt x="285" y="152" on="0"/>
        <pt x="274" y="143" on="1"/>
        <pt x="251" y="122" on="0"/>
        <pt x="220" y="95" on="0"/>
        <pt x="199" y="79" on="0"/>
        <pt x="185" y="69" on="0"/>
        <pt x="179" y="65" on="1"/>
        <pt x="156" y="51" on="0"/>
        <pt x="111" y="25" on="0"/>
        <pt x="91" y="19" on="1"/>
        <pt x="85" y="17" on="0"/>
        <pt x="74" y="15" on="0"/>
        <pt x="69" y="14" on="1"/>
        <pt x="69" y="10" on="0"/>
        <pt x="68" y="1" on="0"/>
        <pt x="68" y="-4" on="1"/>
        <pt x="78" y="-4" on="0"/>
        <pt x="102" y="-5" on="0"/>
        <pt x="123" y="-10" on="0"/>
        <pt x="137" y="-23" on="0"/>
        <pt x="136" y="-36" on="1"/>
        <pt x="132" y="-67" on="0"/>
        <pt x="105" y="-86" on="1"/>
        <pt x="65" y="-118" on="0"/>
        <pt x="22" y="-89" on="1"/>
        <pt x="4" y="-78" on="0"/>
        <pt x="18" y="-71" on="0"/>
      </contour>
    </TTGlyph>
    <TTGlyph name="cedilla" xMin="63" yMin="-168" xMax="227" yMax="37">
      <contour>
        <pt x="90" y="-108" on="1"/>
        <pt x="119" y="-105" on="0"/>
        <pt x="175" y="-84" on="0"/>
        <pt x="186" y="-57" on="1"/>
        <pt x="169" y="-56" on="0"/>
        <pt x="140" y="-55" on="0"/>
        <pt x="126" y="-57" on="1"/>
        <pt x="115" y="-57" on="0"/>
        <pt x="102" y="-41" on="0"/>
        <pt x="104" y="-31" on="1"/>
        <pt x="107" y="-20" on="0"/>
        <pt x="113" y="4" on="0"/>
        <pt x="117" y="16" on="1"/>
        <pt x="118" y="21" on="0"/>
        <pt x="123" y="29" on="0"/>
        <pt x="126" y="32" on="1"/>
        <pt x="131" y="37" on="0"/>
        <pt x="139" y="35" on="0"/>
        <pt x="139" y="29" on="1"/>
        <pt x="141" y="22" on="0"/>
        <pt x="140" y="9" on="0"/>
        <pt x="140" y="2" on="1"/>
        <pt x="140" y="-3" on="0"/>
        <pt x="139" y="-15" on="0"/>
        <pt x="139" y="-22" on="1"/>
        <pt x="151" y="-22" on="0"/>
        <pt x="183" y="-22" on="0"/>
        <pt x="210" y="-29" on="0"/>
        <pt x="227" y="-46" on="0"/>
        <pt x="226" y="-63" on="1"/>
        <pt x="224" y="-83" on="0"/>
        <pt x="203" y="-115" on="0"/>
        <pt x="187" y="-127" on="1"/>
        <pt x="135" y="-168" on="0"/>
        <pt x="80" y="-131" on="1"/>
        <pt x="68" y="-124" on="0"/>
        <pt x="63" y="-115" on="0"/>
        <pt x="69" y="-110" on="0"/>
        <pt x="82" y="-108" on="0"/>
      </contour>
    </TTGlyph>
    <TTGlyph name="cent" xMin="1" yMin="56" xMax="246" yMax="431">
      <contour>
        <pt x="172" y="370" on="1"/>
        <pt x="183" y="370" on="0"/>
        <pt x="209" y="369" on="0"/>
        <pt x="231" y="362" on="0"/>
        <pt x="246" y="347" on="0"/>
        <pt x="246" y="332" on="1"/>
        <pt x="246" y="320" on="0"/>
        <pt x="232" y="299" on="0"/>
        <pt x="221" y="304" on="1"/>
        <pt x="216" y="305" on="0"/>
        <pt x="195" y="307" on="0"/>
        <pt x="174" y="304" on="0"/>
        <pt x="157" y="297" on="0"/>
        <pt x="156" y="290" on="1"/>
        <pt x="153" y="278" on="0"/>
        <pt x="144" y="247" on="0"/>
        <pt x="135" y="216" on="0"/>
        <pt x="127" y="186" on="0"/>
        <pt x="126" y="176" on="1"/>
        <pt x="133" y="173" on="0"/>
        <pt x="158" y="181" on="0"/>
        <pt x="182" y="193" on="0"/>
        <pt x="202" y="204" on="0"/>
        <pt x="205" y="205" on="1"/>
        <pt x="210" y="207" on="0"/>
        <pt x="215" y="201" on="0"/>
        <pt x="214" y="197" on="1"/>
        <pt x="209" y="182" on="0"/>
        <pt x="188" y="152" on="0"/>
        <pt x="159" y="128" on="0"/>
        <pt x="126" y="113" on="0"/>
        <pt x="111" y="113" on="1"/>
        <pt x="102" y="111" on="0"/>
        <pt x="99" y="103" on="1"/>
        <pt x="96" y="96" on="0"/>
        <pt x="92" y="84" on="0"/>
        <pt x="89" y="76" on="1"/>
        <pt x="79" y="56" on="0"/>
        <pt x="65" y="59" on="0"/>
        <pt x="65" y="79" on="1"/>
        <pt x="65" y="87" on="0"/>
        <pt x="68" y="103" on="0"/>
        <pt x="69" y="111" on="1"/>
        <pt x="53" y="111" on="0"/>
        <pt x="28" y="126" on="0"/>
        <pt x="10" y="150" on="0"/>
        <pt x="1" y="180" on="0"/>
        <pt x="2" y="194" on="1"/>
        <pt x="5" y="221" on="0"/>
        <pt x="26" y="267" on="0"/>
        <pt x="43" y="287" on="1"/>
        <pt x="60" y="307" on="0"/>
        <pt x="101" y="338" on="0"/>
        <pt x="120" y="349" on="1"/>
        <pt x="125" y="351" on="0"/>
        <pt x="126" y="363" on="0"/>
        <pt x="127" y="368" on="1"/>
        <pt x="128" y="374" on="0"/>
        <pt x="132" y="395" on="0"/>
        <pt x="138" y="415" on="0"/>
        <pt x="146" y="430" on="0"/>
        <pt x="152" y="431" on="1"/>
        <pt x="163" y="430" on="0"/>
        <pt x="171" y="411" on="0"/>
        <pt x="171" y="403" on="1"/>
        <pt x="173" y="395" on="0"/>
        <pt x="172" y="378" on="0"/>
      </contour>
      <contour>
        <pt x="111" y="293" on="1"/>
        <pt x="102" y="288" on="0"/>
        <pt x="81" y="254" on="0"/>
        <pt x="67" y="216" on="0"/>
        <pt x="66" y="182" on="0"/>
        <pt x="78" y="177" on="1"/>
        <pt x="80" y="185" on="0"/>
        <pt x="89" y="217" on="0"/>
        <pt x="100" y="253" on="0"/>
        <pt x="109" y="285" on="0"/>
      </contour>
    </TTGlyph>
    <TTGlyph name="circumflex" xMin="57" yMin="573" xMax="241" yMax="710">
      <contour>
        <pt x="218" y="594" on="1"/>
        <pt x="207" y="602" on="0"/>
        <pt x="188" y="641" on="0"/>
        <pt x="172" y="660" on="1"/>
        <pt x="152" y="640" on="0"/>
        <pt x="119" y="598" on="0"/>
        <pt x="99" y="581" on="1"/>
        <pt x="90" y="573" on="0"/>
        <pt x="72" y="577" on="0"/>
        <pt x="60" y="591" on="0"/>
        <pt x="57" y="611" on="0"/>
        <pt x="64" y="619" on="1"/>
        <pt x="79" y="636" on="0"/>
        <pt x="107" y="671" on="0"/>
        <pt x="122" y="688" on="1"/>
        <pt x="138" y="708" on="0"/>
        <pt x="184" y="710" on="0"/>
        <pt x="201" y="684" on="1"/>
        <pt x="215" y="664" on="0"/>
        <pt x="234" y="618" on="0"/>
        <pt x="238" y="596" on="1"/>
        <pt x="241" y="588" on="0"/>
        <pt x="239" y="583" on="0"/>
        <pt x="232" y="585" on="0"/>
        <pt x="223" y="591" on="0"/>
      </contour>
    </TTGlyph>
    <TTGlyph name="colon" xMin="64" yMin="33" xMax="168" yMax="262">
      <contour>
        <pt x="107" y="34" on="1"/>
        <pt x="64" y="37" on="0"/>
        <pt x="64" y="68" on="1"/>
        <pt x="65" y="87" on="0"/>
        <pt x="92" y="115" on="0"/>
        <pt x="111" y="115" on="1"/>
        <pt x="126" y="115" on="0"/>
        <pt x="146" y="93" on="0"/>
        <pt x="145" y="79" on="1"/>
        <pt x="143" y="59" on="0"/>
        <pt x="125" y="33" on="0"/>
      </contour>
      <contour>
        <pt x="129" y="181" on="1"/>
        <pt x="86" y="184" on="0"/>
        <pt x="86" y="215" on="1"/>
        <pt x="87" y="234" on="0"/>
        <pt x="114" y="262" on="0"/>
        <pt x="133" y="262" on="1"/>
        <pt x="148" y="262" on="0"/>
        <pt x="168" y="240" on="0"/>
        <pt x="167" y="226" on="1"/>
        <pt x="165" y="206" on="0"/>
        <pt x="147" y="180" on="0"/>
      </contour>
    </TTGlyph>
    <TTGlyph name="comma" xMin="95" yMin="-54" xMax="184" yMax="110">
      <contour>
        <pt x="104" y="-36" on="1"/>
        <pt x="107" y="-25" on="0"/>
        <pt x="114" y="-3" on="0"/>
        <pt x="117" y="8" on="1"/>
        <pt x="120" y="19" on="0"/>
        <pt x="113" y="24" on="1"/>
        <pt x="99" y="35" on="0"/>
        <pt x="95" y="67" on="0"/>
        <pt x="108" y="94" on="0"/>
        <pt x="134" y="110" on="0"/>
        <pt x="151" y="105" on="1"/>
        <pt x="165" y="100" on="0"/>
        <pt x="184" y="71" on="0"/>
        <pt x="176" y="40" on="1"/>
        <pt x="171" y="15" on="0"/>
        <pt x="144" y="-23" on="0"/>
        <pt x="127" y="-40" on="1"/>
        <pt x="113" y="-54" on="0"/>
        <pt x="100" y="-50" on="0"/>
      </contour>
    </TTGlyph>
    <TTGlyph name="currency" xMin="26" yMin="70" xMax="272" yMax="396">
      <contour>
        <pt x="69" y="150" on="1"/>
        <pt x="51" y="165" on="0"/>
        <pt x="40" y="206" on="0"/>
        <pt x="45" y="249" on="0"/>
        <pt x="63" y="289" on="0"/>
        <pt x="74" y="303" on="1"/>
        <pt x="64" y="315" on="0"/>
        <pt x="40" y="345" on="0"/>
        <pt x="30" y="362" on="1"/>
        <pt x="28" y="364" on="0"/>
        <pt x="27" y="370" on="0"/>
        <pt x="26" y="372" on="1"/>
        <pt x="27" y="386" on="0"/>
        <pt x="48" y="392" on="0"/>
        <pt x="56" y="382" on="1"/>
        <pt x="70" y="368" on="0"/>
        <pt x="88" y="343" on="0"/>
        <pt x="98" y="332" on="1"/>
        <pt x="108" y="336" on="0"/>
        <pt x="126" y="343" on="0"/>
        <pt x="134" y="346" on="1"/>
        <pt x="134" y="356" on="0"/>
        <pt x="135" y="358" on="1"/>
        <pt x="142" y="365" on="0"/>
        <pt x="163" y="371" on="0"/>
        <pt x="186" y="370" on="0"/>
        <pt x="206" y="365" on="0"/>
        <pt x="214" y="361" on="1"/>
        <pt x="217" y="361" on="0"/>
        <pt x="218" y="359" on="1"/>
        <pt x="219" y="359" on="0"/>
        <pt x="220" y="358" on="1"/>
        <pt x="224" y="364" on="0"/>
        <pt x="229" y="377" on="0"/>
        <pt x="234" y="382" on="1"/>
        <pt x="237" y="387" on="0"/>
        <pt x="242" y="390" on="1"/>
        <pt x="251" y="396" on="0"/>
        <pt x="268" y="388" on="0"/>
        <pt x="270" y="377" on="1"/>
        <pt x="272" y="365" on="0"/>
        <pt x="268" y="341" on="0"/>
        <pt x="260" y="331" on="1"/>
        <pt x="252" y="322" on="0"/>
        <pt x="257" y="311" on="1"/>
        <pt x="268" y="285" on="0"/>
        <pt x="259" y="238" on="0"/>
        <pt x="245" y="215" on="1"/>
        <pt x="230" y="194" on="1"/>
        <pt x="244" y="185" on="0"/>
        <pt x="258" y="158" on="0"/>
        <pt x="263" y="143" on="1"/>
        <pt x="266" y="129" on="0"/>
        <pt x="255" y="121" on="1"/>
        <pt x="250" y="118" on="0"/>
        <pt x="238" y="119" on="0"/>
        <pt x="233" y="126" on="1"/>
        <pt x="226" y="136" on="0"/>
        <pt x="211" y="155" on="0"/>
        <pt x="203" y="166" on="1"/>
        <pt x="180" y="147" on="0"/>
        <pt x="128" y="128" on="0"/>
        <pt x="97" y="134" on="1"/>
        <pt x="91" y="124" on="0"/>
        <pt x="80" y="105" on="0"/>
        <pt x="75" y="96" on="1"/>
        <pt x="71" y="88" on="0"/>
        <pt x="69" y="85" on="1"/>
        <pt x="57" y="70" on="0"/>
        <pt x="43" y="80" on="1"/>
        <pt x="31" y="87" on="0"/>
        <pt x="35" y="103" on="1"/>
        <pt x="45" y="128" on="0"/>
        <pt x="62" y="146" on="1"/>
        <pt x="64" y="147" on="0"/>
        <pt x="66" y="148" on="0"/>
      </contour>
      <contour>
        <pt x="174" y="312" on="1"/>
        <pt x="170" y="310" on="0"/>
        <pt x="165" y="304" on="0"/>
        <pt x="161" y="302" on="1"/>
        <pt x="119" y="276" on="0"/>
        <pt x="109" y="228" on="1"/>
        <pt x="106" y="212" on="0"/>
        <pt x="113" y="203" on="1"/>
        <pt x="117" y="198" on="0"/>
        <pt x="127" y="201" on="0"/>
        <pt x="132" y="203" on="1"/>
        <pt x="154" y="211" on="0"/>
        <pt x="183" y="242" on="0"/>
        <pt x="195" y="262" on="1"/>
        <pt x="204" y="280" on="0"/>
        <pt x="190" y="296" on="1"/>
      </contour>
    </TTGlyph>
    <TTGlyph name="d" xMin="-28" yMin="-53" xMax="533" yMax="765">
      <contour>
        <pt x="204" y="277" on="1"/>
        <pt x="204" y="279" on="0"/>
        <pt x="205" y="280" on="1"/>
        <pt x="205" y="281" on="0"/>
        <pt x="206" y="281" on="1"/>
        <pt x="237" y="347" on="0"/>
        <pt x="298" y="470" on="0"/>
        <pt x="361" y="584" on="0"/>
        <pt x="430" y="690" on="0"/>
        <pt x="469" y="740" on="1"/>
        <pt x="491" y="765" on="0"/>
        <pt x="518" y="759" on="0"/>
        <pt x="531" y="724" on="0"/>
        <pt x="533" y="676" on="0"/>
        <pt x="531" y="661" on="1"/>
        <pt x="516" y="599" on="0"/>
        <pt x="465" y="475" on="0"/>
        <pt x="401" y="352" on="0"/>
        <pt x="327" y="230" on="0"/>
        <pt x="289" y="169" on="1"/>
        <pt x="284" y="163" on="0"/>
        <pt x="279" y="150" on="0"/>
        <pt x="277" y="142" on="1"/>
        <pt x="275" y="133" on="0"/>
        <pt x="270" y="100" on="0"/>
        <pt x="269" y="64" on="0"/>
        <pt x="275" y="34" on="0"/>
        <pt x="283" y="30" on="1"/>
        <pt x="295" y="24" on="0"/>
        <pt x="341" y="41" on="0"/>
        <pt x="393" y="75" on="0"/>
        <pt x="446" y="119" on="0"/>
        <pt x="465" y="139" on="1"/>
        <pt x="467" y="141" on="0"/>
        <pt x="475" y="136" on="0"/>
        <pt x="480" y="126" on="0"/>
        <pt x="479" y="113" on="0"/>
        <pt x="472" y="107" on="1"/>
        <pt x="449" y="87" on="0"/>
        <pt x="382" y="26" on="0"/>
        <pt x="309" y="-26" on="0"/>
        <pt x="239" y="-53" on="0"/>
        <pt x="214" y="-40" on="1"/>
        <pt x="191" y="-28" on="0"/>
        <pt x="172" y="25" on="0"/>
        <pt x="170" y="88" on="0"/>
        <pt x="177" y="149" on="0"/>
        <pt x="180" y="167" on="1"/>
        <pt x="178" y="165" on="0"/>
        <pt x="175" y="158" on="0"/>
        <pt x="173" y="155" on="1"/>
        <pt x="159" y="139" on="0"/>
        <pt x="123" y="94" on="0"/>
        <pt x="80" y="56" on="0"/>
        <pt x="32" y="36" on="0"/>
        <pt x="7" y="45" on="1"/>
        <pt x="-7" y="53" on="0"/>
        <pt x="-28" y="76" on="0"/>
        <pt x="-28" y="95" on="1"/>
        <pt x="-28" y="132" on="0"/>
        <pt x="1" y="208" on="0"/>
        <pt x="51" y="267" on="0"/>
        <pt x="119" y="302" on="0"/>
        <pt x="158" y="299" on="1"/>
        <pt x="169" y="297" on="0"/>
        <pt x="192" y="290" on="0"/>
        <pt x="200" y="281" on="1"/>
      </contour>
      <contour>
        <pt x="496" y="625" on="1"/>
        <pt x="433" y="528" on="0"/>
        <pt x="335" y="324" on="0"/>
        <pt x="298" y="215" on="1"/>
        <pt x="321" y="257" on="0"/>
        <pt x="384" y="365" on="0"/>
        <pt x="444" y="478" on="0"/>
        <pt x="490" y="585" on="0"/>
      </contour>
      <contour>
        <pt x="47" y="126" on="1"/>
        <pt x="49" y="123" on="1"/>
        <pt x="83" y="150" on="0"/>
        <pt x="152" y="203" on="0"/>
        <pt x="189" y="229" on="1"/>
        <pt x="168" y="239" on="0"/>
        <pt x="119" y="224" on="0"/>
        <pt x="76" y="189" on="0"/>
        <pt x="47" y="144" on="0"/>
      </contour>
    </TTGlyph>
    <TTGlyph name="dieresis" xMin="93" yMin="605" xMax="295" yMax="687">
      <contour>
        <pt x="136" y="606" on="1"/>
        <pt x="93" y="609" on="0"/>
        <pt x="93" y="640" on="1"/>
        <pt x="94" y="659" on="0"/>
        <pt x="121" y="687" on="0"/>
        <pt x="140" y="687" on="1"/>
        <pt x="155" y="687" on="0"/>
        <pt x="175" y="665" on="0"/>
        <pt x="174" y="651" on="1"/>
        <pt x="172" y="631" on="0"/>
        <pt x="154" y="605" on="0"/>
      </contour>
      <contour>
        <pt x="256" y="606" on="1"/>
        <pt x="213" y="609" on="0"/>
        <pt x="213" y="640" on="1"/>
        <pt x="214" y="659" on="0"/>
        <pt x="241" y="687" on="0"/>
        <pt x="260" y="687" on="1"/>
        <pt x="275" y="687" on="0"/>
        <pt x="295" y="665" on="0"/>
        <pt x="294" y="651" on="1"/>
        <pt x="292" y="631" on="0"/>
        <pt x="274" y="605" on="0"/>
      </contour>
    </TTGlyph>
    <TTGlyph name="dollar" xMin="5" yMin="-102" xMax="401" yMax="632">
      <contour>
        <pt x="137" y="-80" on="1"/>
        <pt x="138" y="-57" on="0"/>
        <pt x="140" y="-13" on="0"/>
        <pt x="140" y="9" on="1"/>
        <pt x="112" y="11" on="0"/>
        <pt x="63" y="36" on="0"/>
        <pt x="26" y="75" on="0"/>
        <pt x="5" y="125" on="0"/>
        <pt x="5" y="152" on="1"/>
        <pt x="5" y="187" on="0"/>
        <pt x="20" y="217" on="1"/>
        <pt x="33" y="244" on="0"/>
        <pt x="82" y="290" on="0"/>
        <pt x="107" y="299" on="1"/>
        <pt x="124" y="308" on="0"/>
        <pt x="130" y="303" on="0"/>
        <pt x="122" y="290" on="0"/>
        <pt x="108" y="272" on="0"/>
        <pt x="105" y="267" on="1"/>
        <pt x="94" y="245" on="0"/>
        <pt x="77" y="188" on="0"/>
        <pt x="79" y="135" on="0"/>
        <pt x="108" y="98" on="0"/>
        <pt x="143" y="95" on="1"/>
        <pt x="157" y="164" on="0"/>
        <pt x="183" y="291" on="0"/>
        <pt x="197" y="360" on="1"/>
        <pt x="183" y="366" on="0"/>
        <pt x="161" y="373" on="0"/>
        <pt x="139" y="378" on="0"/>
        <pt x="113" y="385" on="0"/>
        <pt x="96" y="391" on="1"/>
        <pt x="72" y="400" on="0"/>
        <pt x="61" y="439" on="0"/>
        <pt x="72" y="482" on="0"/>
        <pt x="98" y="520" on="0"/>
        <pt x="111" y="529" on="1"/>
        <pt x="145" y="549" on="0"/>
        <pt x="207" y="564" on="0"/>
        <pt x="243" y="560" on="1"/>
        <pt x="248" y="560" on="0"/>
        <pt x="251" y="559" on="1"/>
        <pt x="256" y="575" on="0"/>
        <pt x="263" y="603" on="0"/>
        <pt x="269" y="616" on="1"/>
        <pt x="276" y="628" on="0"/>
        <pt x="286" y="632" on="0"/>
        <pt x="286" y="615" on="1"/>
        <pt x="283" y="593" on="0"/>
        <pt x="278" y="565" on="0"/>
        <pt x="276" y="552" on="1"/>
        <pt x="304" y="537" on="0"/>
        <pt x="345" y="507" on="0"/>
        <pt x="355" y="475" on="1"/>
        <pt x="357" y="465" on="0"/>
        <pt x="347" y="460" on="1"/>
        <pt x="340" y="457" on="0"/>
        <pt x="331" y="464" on="1"/>
        <pt x="314" y="474" on="0"/>
        <pt x="285" y="488" on="0"/>
        <pt x="267" y="492" on="1"/>
        <pt x="262" y="473" on="0"/>
        <pt x="254" y="436" on="0"/>
        <pt x="250" y="418" on="1"/>
        <pt x="275" y="407" on="0"/>
        <pt x="320" y="387" on="0"/>
        <pt x="356" y="359" on="0"/>
        <pt x="382" y="319" on="0"/>
        <pt x="389" y="290" on="1"/>
        <pt x="401" y="239" on="0"/>
        <pt x="374" y="134" on="0"/>
        <pt x="310" y="52" on="0"/>
        <pt x="220" y="5" on="0"/>
        <pt x="169" y="11" on="1"/>
        <pt x="164" y="-10" on="0"/>
        <pt x="160" y="-56" on="0"/>
        <pt x="153" y="-79" on="1"/>
        <pt x="148" y="-98" on="0"/>
        <pt x="137" y="-102" on="0"/>
      </contour>
      <contour>
        <pt x="236" y="350" on="1"/>
        <pt x="222" y="284" on="0"/>
        <pt x="199" y="155" on="0"/>
        <pt x="186" y="91" on="1"/>
        <pt x="214" y="95" on="0"/>
        <pt x="260" y="124" on="0"/>
        <pt x="295" y="165" on="0"/>
        <pt x="318" y="214" on="0"/>
        <pt x="323" y="239" on="1"/>
        <pt x="329" y="285" on="0"/>
        <pt x="275" y="339" on="0"/>
      </contour>
      <contour>
        <pt x="109" y="444" on="1"/>
        <pt x="131" y="436" on="0"/>
        <pt x="194" y="432" on="0"/>
        <pt x="216" y="426" on="1"/>
        <pt x="225" y="461" on="0"/>
        <pt x="235" y="492" on="1"/>
        <pt x="223" y="494" on="0"/>
        <pt x="185" y="492" on="0"/>
        <pt x="147" y="482" on="0"/>
        <pt x="115" y="461" on="0"/>
      </contour>
    </TTGlyph>
    <TTGlyph name="e" xMin="-29" yMin="-5" xMax="307" yMax="323">
      <contour>
        <pt x="-27" y="89" on="1"/>
        <pt x="-29" y="127" on="0"/>
        <pt x="-9" y="209" on="0"/>
        <pt x="31" y="278" on="0"/>
        <pt x="92" y="322" on="0"/>
        <pt x="133" y="323" on="1"/>
        <pt x="154" y="318" on="0"/>
        <pt x="177" y="286" on="0"/>
        <pt x="172" y="263" on="1"/>
        <pt x="168" y="241" on="0"/>
        <pt x="153" y="210" on="0"/>
        <pt x="135" y="193" on="1"/>
        <pt x="126" y="185" on="0"/>
        <pt x="94" y="159" on="0"/>
        <pt x="64" y="131" on="0"/>
        <pt x="42" y="102" on="0"/>
        <pt x="42" y="92" on="1"/>
        <pt x="39" y="66" on="0"/>
        <pt x="61" y="51" on="0"/>
        <pt x="96" y="54" on="0"/>
        <pt x="132" y="70" on="0"/>
        <pt x="143" y="76" on="1"/>
        <pt x="156" y="85" on="0"/>
        <pt x="188" y="112" on="0"/>
        <pt x="220" y="142" on="0"/>
        <pt x="250" y="170" on="0"/>
        <pt x="260" y="179" on="1"/>
        <pt x="268" y="187" on="0"/>
        <pt x="281" y="201" on="0"/>
        <pt x="290" y="206" on="1"/>
        <pt x="298" y="208" on="0"/>
        <pt x="307" y="206" on="0"/>
        <pt x="301" y="192" on="1"/>
        <pt x="293" y="175" on="0"/>
        <pt x="270" y="145" on="0"/>
        <pt x="257" y="130" on="1"/>
        <pt x="239" y="110" on="0"/>
        <pt x="198" y="66" on="0"/>
        <pt x="153" y="29" on="0"/>
        <pt x="104" y="2" on="0"/>
        <pt x="78" y="-2" on="1"/>
        <pt x="32" y="-5" on="0"/>
        <pt x="-27" y="39" on="0"/>
      </contour>
      <contour>
        <pt x="133" y="277" on="1"/>
        <pt x="106" y="267" on="0"/>
        <pt x="75" y="235" on="0"/>
        <pt x="68" y="204" on="1"/>
        <pt x="90" y="220" on="0"/>
        <pt x="125" y="253" on="0"/>
      </contour>
    </TTGlyph>
    <TTGlyph name="eacute" xMin="-29" yMin="-5" xMax="307" yMax="734">
      <component glyphName="e" x="0" y="0" flags="0x204"/>
      <component glyphName="acute" x="-15" y="0" flags="0x4"/>
    </TTGlyph>
    <TTGlyph name="ecircumflex" xMin="-29" yMin="-5" xMax="307" yMax="710">
      <component glyphName="e" x="0" y="0" flags="0x204"/>
      <component glyphName="circumflex" x="-12" y="0" flags="0x4"/>
    </TTGlyph>
    <TTGlyph name="edieresis" xMin="-29" yMin="-5" xMax="307" yMax="687">
      <component glyphName="e" x="0" y="0" flags="0x204"/>
      <component glyphName="dieresis" x="-61" y="0" flags="0x4"/>
    </TTGlyph>
    <TTGlyph name="ee" xMin="-29" yMin="-15" xMax="592" yMax="349">
      <contour>
        <pt x="-27" y="89" on="1"/>
        <pt x="-29" y="127" on="0"/>
        <pt x="-9" y="209" on="0"/>
        <pt x="31" y="278" on="0"/>
        <pt x="92" y="322" on="0"/>
        <pt x="133" y="323" on="1"/>
        <pt x="154" y="318" on="0"/>
        <pt x="177" y="286" on="0"/>
        <pt x="172" y="263" on="1"/>
        <pt x="168" y="241" on="0"/>
        <pt x="153" y="210" on="0"/>
        <pt x="135" y="193" on="1"/>
        <pt x="126" y="185" on="0"/>
        <pt x="94" y="159" on="0"/>
        <pt x="64" y="131" on="0"/>
        <pt x="42" y="102" on="0"/>
        <pt x="42" y="92" on="1"/>
        <pt x="39" y="68" on="0"/>
        <pt x="60" y="52" on="0"/>
        <pt x="93" y="59" on="0"/>
        <pt x="135" y="84" on="0"/>
        <pt x="174" y="117" on="0"/>
        <pt x="205" y="154" on="0"/>
        <pt x="210" y="170" on="1"/>
        <pt x="225" y="208" on="0"/>
        <pt x="265" y="276" on="0"/>
        <pt x="315" y="325" on="0"/>
        <pt x="377" y="349" on="0"/>
        <pt x="415" y="344" on="1"/>
        <pt x="437" y="332" on="0"/>
        <pt x="452" y="286" on="0"/>
        <pt x="440" y="259" on="1"/>
        <pt x="424" y="235" on="0"/>
        <pt x="396" y="209" on="0"/>
        <pt x="366" y="191" on="0"/>
        <pt x="331" y="175" on="0"/>
        <pt x="308" y="162" on="1"/>
        <pt x="294" y="154" on="0"/>
        <pt x="278" y="114" on="0"/>
        <pt x="278" y="72" on="0"/>
        <pt x="296" y="38" on="0"/>
        <pt x="317" y="36" on="1"/>
        <pt x="354" y="31" on="0"/>
        <pt x="433" y="66" on="0"/>
        <pt x="505" y="115" on="0"/>
        <pt x="564" y="164" on="0"/>
        <pt x="582" y="174" on="1"/>
        <pt x="592" y="175" on="0"/>
        <pt x="588" y="157" on="0"/>
        <pt x="577" y="143" on="1"/>
        <pt x="559" y="117" on="0"/>
        <pt x="492" y="59" on="0"/>
        <pt x="411" y="12" on="0"/>
        <pt x="326" y="-15" on="0"/>
        <pt x="289" y="-9" on="1"/>
        <pt x="244" y="1" on="0"/>
        <pt x="194" y="54" on="0"/>
        <pt x="198" y="102" on="1"/>
        <pt x="181" y="84" on="0"/>
        <pt x="153" y="51" on="0"/>
        <pt x="123" y="25" on="0"/>
        <pt x="88" y="7" on="0"/>
        <pt x="66" y="4" on="1"/>
        <pt x="23" y="2" on="0"/>
        <pt x="-22" y="41" on="0"/>
      </contour>
      <contour>
        <pt x="404" y="288" on="1"/>
        <pt x="375" y="279" on="0"/>
        <pt x="320" y="240" on="0"/>
        <pt x="300" y="210" on="1"/>
        <pt x="325" y="220" on="0"/>
        <pt x="362" y="243" on="0"/>
        <pt x="386" y="265" on="0"/>
        <pt x="401" y="283" on="0"/>
      </contour>
      <contour>
        <pt x="133" y="277" on="1"/>
        <pt x="106" y="267" on="0"/>
        <pt x="75" y="235" on="0"/>
        <pt x="68" y="204" on="1"/>
        <pt x="90" y="220" on="0"/>
        <pt x="125" y="253" on="0"/>
      </contour>
    </TTGlyph>
    <TTGlyph name="egrave" xMin="-29" yMin="-5" xMax="307" yMax="734">
      <component glyphName="e" x="0" y="0" flags="0x204"/>
      <component glyphName="grave" x="-15" y="0" flags="0x4"/>
    </TTGlyph>
    <TTGlyph name="eight" xMin="-3" yMin="-2" xMax="359" yMax="592">
      <contour>
        <pt x="296" y="526" on="1"/>
        <pt x="271" y="521" on="0"/>
        <pt x="220" y="505" on="0"/>
        <pt x="175" y="480" on="0"/>
        <pt x="138" y="446" on="0"/>
        <pt x="126" y="422" on="1"/>
        <pt x="120" y="408" on="0"/>
        <pt x="126" y="383" on="0"/>
        <pt x="141" y="362" on="0"/>
        <pt x="163" y="343" on="0"/>
        <pt x="172" y="335" on="1"/>
        <pt x="193" y="315" on="0"/>
        <pt x="238" y="275" on="0"/>
        <pt x="272" y="230" on="0"/>
        <pt x="289" y="178" on="0"/>
        <pt x="280" y="148" on="1"/>
        <pt x="271" y="123" on="0"/>
        <pt x="236" y="70" on="0"/>
        <pt x="190" y="26" on="0"/>
        <pt x="138" y="-2" on="0"/>
        <pt x="113" y="-1" on="1"/>
        <pt x="82" y="2" on="0"/>
        <pt x="38" y="25" on="0"/>
        <pt x="10" y="60" on="0"/>
        <pt x="-3" y="104" on="0"/>
        <pt x="-2" y="127" on="1"/>
        <pt x="6" y="186" on="0"/>
        <pt x="39" y="286" on="0"/>
        <pt x="77" y="324" on="1"/>
        <pt x="60" y="361" on="0"/>
        <pt x="61" y="429" on="0"/>
        <pt x="88" y="488" on="0"/>
        <pt x="136" y="536" on="0"/>
        <pt x="167" y="554" on="1"/>
        <pt x="177" y="560" on="0"/>
        <pt x="219" y="576" on="0"/>
        <pt x="264" y="588" on="0"/>
        <pt x="305" y="592" on="0"/>
        <pt x="315" y="586" on="1"/>
        <pt x="341" y="574" on="0"/>
        <pt x="359" y="524" on="0"/>
        <pt x="353" y="498" on="1"/>
        <pt x="336" y="441" on="0"/>
        <pt x="296" y="354" on="0"/>
        <pt x="272" y="312" on="1"/>
        <pt x="260" y="295" on="0"/>
        <pt x="251" y="298" on="0"/>
        <pt x="251" y="317" on="0"/>
        <pt x="255" y="343" on="0"/>
        <pt x="256" y="349" on="1"/>
        <pt x="260" y="373" on="0"/>
        <pt x="276" y="432" on="0"/>
        <pt x="291" y="484" on="0"/>
        <pt x="300" y="523" on="0"/>
      </contour>
      <contour>
        <pt x="118" y="275" on="1"/>
        <pt x="92" y="233" on="0"/>
        <pt x="56" y="135" on="0"/>
        <pt x="58" y="87" on="1"/>
        <pt x="60" y="41" on="0"/>
        <pt x="101" y="52" on="1"/>
        <pt x="118" y="57" on="0"/>
        <pt x="152" y="79" on="0"/>
        <pt x="181" y="108" on="0"/>
        <pt x="204" y="141" on="0"/>
        <pt x="210" y="157" on="1"/>
        <pt x="213" y="175" on="0"/>
        <pt x="194" y="209" on="0"/>
        <pt x="164" y="240" on="0"/>
        <pt x="130" y="266" on="0"/>
      </contour>
    </TTGlyph>
    <TTGlyph name="equal" xMin="41" yMin="71" xMax="351" yMax="214">
      <contour>
        <pt x="333" y="162" on="1"/>
        <pt x="279" y="154" on="0"/>
        <pt x="175" y="160" on="0"/>
        <pt x="121" y="160" on="1"/>
        <pt x="111" y="160" on="0"/>
        <pt x="89" y="162" on="0"/>
        <pt x="71" y="167" on="0"/>
        <pt x="59" y="178" on="0"/>
        <pt x="59" y="187" on="1"/>
        <pt x="59" y="203" on="0"/>
        <pt x="76" y="206" on="1"/>
        <pt x="140" y="214" on="0"/>
        <pt x="278" y="206" on="0"/>
        <pt x="337" y="183" on="1"/>
        <pt x="351" y="178" on="0"/>
        <pt x="350" y="162" on="0"/>
      </contour>
      <contour>
        <pt x="315" y="79" on="1"/>
        <pt x="261" y="71" on="0"/>
        <pt x="157" y="77" on="0"/>
        <pt x="103" y="77" on="1"/>
        <pt x="93" y="77" on="0"/>
        <pt x="71" y="79" on="0"/>
        <pt x="53" y="84" on="0"/>
        <pt x="41" y="95" on="0"/>
        <pt x="41" y="104" on="1"/>
        <pt x="41" y="120" on="0"/>
        <pt x="58" y="123" on="1"/>
        <pt x="122" y="131" on="0"/>
        <pt x="260" y="123" on="0"/>
        <pt x="319" y="100" on="1"/>
        <pt x="333" y="95" on="0"/>
        <pt x="332" y="79" on="0"/>
      </contour>
    </TTGlyph>
    <TTGlyph name="exclam" xMin="-1" yMin="31" xMax="223" yMax="626">
      <contour>
        <pt x="168" y="619" on="1"/>
        <pt x="175" y="626" on="0"/>
        <pt x="196" y="626" on="0"/>
        <pt x="213" y="618" on="0"/>
        <pt x="223" y="602" on="0"/>
        <pt x="220" y="592" on="1"/>
        <pt x="216" y="577" on="0"/>
        <pt x="198" y="520" on="0"/>
        <pt x="173" y="448" on="0"/>
        <pt x="144" y="367" on="0"/>
        <pt x="114" y="288" on="0"/>
        <pt x="85" y="217" on="0"/>
        <pt x="74" y="192" on="1"/>
        <pt x="70" y="183" on="0"/>
        <pt x="56" y="187" on="0"/>
        <pt x="53" y="195" on="1"/>
        <pt x="47" y="229" on="0"/>
        <pt x="49" y="291" on="0"/>
        <pt x="54" y="322" on="1"/>
        <pt x="59" y="350" on="0"/>
        <pt x="82" y="438" on="0"/>
        <pt x="113" y="528" on="0"/>
        <pt x="150" y="604" on="0"/>
      </contour>
      <contour>
        <pt x="40" y="33" on="1"/>
        <pt x="25" y="31" on="0"/>
        <pt x="4" y="56" on="0"/>
        <pt x="-1" y="89" on="0"/>
        <pt x="11" y="122" on="0"/>
        <pt x="29" y="129" on="1"/>
        <pt x="51" y="136" on="0"/>
        <pt x="76" y="110" on="0"/>
        <pt x="80" y="71" on="0"/>
        <pt x="61" y="35" on="0"/>
      </contour>
    </TTGlyph>
    <TTGlyph name="exclamdown" xMin="138" yMin="-51" xMax="361" yMax="544">
      <component glyphName="exclam" x="361" y="575" scale="-0.99994" flags="0x4"/>
    </TTGlyph>
    <TTGlyph name="f" xMin="-48" yMin="-238" xMax="292" yMax="619">
      <contour>
        <pt x="85" y="164" on="1"/>
        <pt x="135" y="151" on="0"/>
        <pt x="231" y="154" on="0"/>
        <pt x="282" y="158" on="1"/>
        <pt x="292" y="158" on="0"/>
        <pt x="290" y="149" on="0"/>
        <pt x="288" y="148" on="1"/>
        <pt x="242" y="123" on="0"/>
        <pt x="151" y="109" on="0"/>
        <pt x="101" y="120" on="1"/>
        <pt x="106" y="93" on="0"/>
        <pt x="113" y="23" on="0"/>
        <pt x="112" y="-52" on="0"/>
        <pt x="104" y="-125" on="0"/>
        <pt x="85" y="-186" on="0"/>
        <pt x="54" y="-230" on="0"/>
        <pt x="32" y="-237" on="1"/>
        <pt x="15" y="-238" on="0"/>
        <pt x="-16" y="-232" on="0"/>
        <pt x="-25" y="-215" on="1"/>
        <pt x="-48" y="-170" on="0"/>
        <pt x="-47" y="-78" on="0"/>
        <pt x="-43" y="-33" on="1"/>
        <pt x="-31" y="51" on="0"/>
        <pt x="12" y="223" on="0"/>
        <pt x="70" y="386" on="0"/>
        <pt x="141" y="532" on="0"/>
        <pt x="182" y="591" on="1"/>
        <pt x="191" y="602" on="0"/>
        <pt x="213" y="619" on="0"/>
        <pt x="228" y="617" on="1"/>
        <pt x="242" y="617" on="0"/>
        <pt x="257" y="596" on="0"/>
        <pt x="252" y="583" on="1"/>
        <pt x="252" y="567" on="1"/>
        <pt x="252" y="541" on="0"/>
        <pt x="249" y="485" on="0"/>
        <pt x="241" y="458" on="1"/>
        <pt x="217" y="371" on="0"/>
        <pt x="135" y="234" on="0"/>
        <pt x="86" y="169" on="1"/>
        <pt x="86" y="167" on="0"/>
      </contour>
      <contour>
        <pt x="95" y="226" on="1"/>
        <pt x="120" y="256" on="0"/>
        <pt x="166" y="337" on="0"/>
        <pt x="203" y="424" on="0"/>
        <pt x="229" y="510" on="0"/>
        <pt x="235" y="547" on="1"/>
        <pt x="217" y="524" on="0"/>
        <pt x="174" y="434" on="0"/>
        <pt x="134" y="336" on="0"/>
        <pt x="102" y="248" on="0"/>
      </contour>
      <contour>
        <pt x="24" y="-125" on="1"/>
        <pt x="33" y="-128" on="0"/>
        <pt x="48" y="-101" on="0"/>
        <pt x="58" y="-55" on="0"/>
        <pt x="63" y="2" on="0"/>
        <pt x="64" y="55" on="0"/>
        <pt x="59" y="96" on="0"/>
        <pt x="54" y="103" on="1"/>
        <pt x="43" y="46" on="0"/>
        <pt x="22" y="-65" on="0"/>
      </contour>
    </TTGlyph>
    <TTGlyph name="ff" xMin="-48" yMin="-238" xMax="511" yMax="732">
      <contour>
        <pt x="302" y="235" on="1"/>
        <pt x="314" y="220" on="0"/>
        <pt x="360" y="202" on="0"/>
        <pt x="416" y="195" on="0"/>
        <pt x="476" y="195" on="0"/>
        <pt x="501" y="197" on="1"/>
        <pt x="511" y="197" on="0"/>
        <pt x="509" y="188" on="0"/>
        <pt x="507" y="187" on="1"/>
        <pt x="484" y="175" on="0"/>
        <pt x="434" y="158" on="0"/>
        <pt x="383" y="153" on="0"/>
        <pt x="335" y="164" on="0"/>
        <pt x="314" y="179" on="1"/>
        <pt x="322" y="151" on="0"/>
        <pt x="333" y="78" on="0"/>
        <pt x="338" y="-1" on="0"/>
        <pt x="333" y="-79" on="0"/>
        <pt x="314" y="-143" on="0"/>
        <pt x="281" y="-189" on="0"/>
        <pt x="255" y="-195" on="1"/>
        <pt x="238" y="-196" on="0"/>
        <pt x="207" y="-190" on="0"/>
        <pt x="198" y="-173" on="1"/>
        <pt x="190" y="-158" on="0"/>
        <pt x="181" y="-114" on="0"/>
        <pt x="179" y="-88" on="1"/>
        <pt x="176" y="-51" on="0"/>
        <pt x="179" y="20" on="0"/>
        <pt x="189" y="91" on="0"/>
        <pt x="204" y="164" on="0"/>
        <pt x="212" y="205" on="1"/>
        <pt x="197" y="204" on="0"/>
        <pt x="171" y="199" on="0"/>
        <pt x="146" y="186" on="0"/>
        <pt x="116" y="163" on="0"/>
        <pt x="97" y="144" on="1"/>
        <pt x="102" y="117" on="0"/>
        <pt x="110" y="43" on="0"/>
        <pt x="110" y="-37" on="0"/>
        <pt x="102" y="-116" on="0"/>
        <pt x="84" y="-183" on="0"/>
        <pt x="54" y="-230" on="0"/>
        <pt x="32" y="-237" on="1"/>
        <pt x="15" y="-238" on="0"/>
        <pt x="-16" y="-232" on="0"/>
        <pt x="-25" y="-215" on="1"/>
        <pt x="-48" y="-170" on="0"/>
        <pt x="-47" y="-78" on="0"/>
        <pt x="-43" y="-33" on="1"/>
        <pt x="-31" y="51" on="0"/>
        <pt x="12" y="223" on="0"/>
        <pt x="70" y="386" on="0"/>
        <pt x="141" y="532" on="0"/>
        <pt x="182" y="591" on="1"/>
        <pt x="191" y="602" on="0"/>
        <pt x="213" y="619" on="0"/>
        <pt x="228" y="617" on="1"/>
        <pt x="242" y="617" on="0"/>
        <pt x="257" y="596" on="0"/>
        <pt x="252" y="583" on="1"/>
        <pt x="252" y="567" on="1"/>
        <pt x="252" y="541" on="0"/>
        <pt x="249" y="485" on="0"/>
        <pt x="241" y="458" on="1"/>
        <pt x="229" y="414" on="0"/>
        <pt x="199" y="344" on="0"/>
        <pt x="163" y="283" on="0"/>
        <pt x="121" y="223" on="0"/>
        <pt x="98" y="190" on="1"/>
        <pt x="124" y="208" on="0"/>
        <pt x="162" y="226" on="0"/>
        <pt x="190" y="232" on="0"/>
        <pt x="210" y="231" on="0"/>
        <pt x="218" y="231" on="1"/>
        <pt x="247" y="365" on="0"/>
        <pt x="351" y="607" on="0"/>
        <pt x="417" y="704" on="1"/>
        <pt x="426" y="715" on="0"/>
        <pt x="448" y="732" on="0"/>
        <pt x="463" y="730" on="1"/>
        <pt x="470" y="730" on="0"/>
        <pt x="483" y="721" on="0"/>
        <pt x="492" y="707" on="0"/>
        <pt x="495" y="691" on="0"/>
        <pt x="493" y="685" on="1"/>
        <pt x="490" y="681" on="1"/>
        <pt x="489" y="665" on="0"/>
        <pt x="485" y="633" on="0"/>
        <pt x="479" y="617" on="1"/>
        <pt x="473" y="600" on="0"/>
        <pt x="452" y="547" on="0"/>
        <pt x="424" y="486" on="0"/>
        <pt x="393" y="420" on="0"/>
        <pt x="362" y="361" on="0"/>
        <pt x="334" y="314" on="0"/>
        <pt x="323" y="302" on="1"/>
        <pt x="316" y="281" on="0"/>
        <pt x="311" y="270" on="0"/>
        <pt x="309" y="266" on="0"/>
        <pt x="306" y="256" on="0"/>
      </contour>
      <contour>
        <pt x="295" y="-41" on="1"/>
        <pt x="300" y="-7" on="0"/>
        <pt x="301" y="61" on="0"/>
        <pt x="297" y="119" on="0"/>
        <pt x="289" y="161" on="0"/>
        <pt x="284" y="168" on="1"/>
        <pt x="279" y="144" on="0"/>
        <pt x="269" y="101" on="0"/>
        <pt x="260" y="53" on="0"/>
        <pt x="254" y="-2" on="0"/>
        <pt x="254" y="-36" on="1"/>
        <pt x="254" y="-57" on="0"/>
        <pt x="263" y="-89" on="0"/>
        <pt x="276" y="-98" on="0"/>
        <pt x="290" y="-75" on="0"/>
      </contour>
      <contour>
        <pt x="95" y="226" on="1"/>
        <pt x="120" y="256" on="0"/>
        <pt x="166" y="337" on="0"/>
        <pt x="203" y="424" on="0"/>
        <pt x="229" y="510" on="0"/>
        <pt x="235" y="547" on="1"/>
        <pt x="217" y="524" on="0"/>
        <pt x="174" y="434" on="0"/>
        <pt x="134" y="336" on="0"/>
        <pt x="102" y="248" on="0"/>
      </contour>
      <contour>
        <pt x="24" y="-125" on="1"/>
        <pt x="33" y="-128" on="0"/>
        <pt x="48" y="-101" on="0"/>
        <pt x="58" y="-55" on="0"/>
        <pt x="63" y="2" on="0"/>
        <pt x="64" y="55" on="0"/>
        <pt x="59" y="96" on="0"/>
        <pt x="54" y="103" on="1"/>
        <pt x="43" y="46" on="0"/>
        <pt x="22" y="-65" on="0"/>
      </contour>
      <contour>
        <pt x="470" y="660" on="1"/>
        <pt x="453" y="634" on="0"/>
        <pt x="413" y="546" on="0"/>
        <pt x="372" y="450" on="0"/>
        <pt x="337" y="361" on="0"/>
        <pt x="327" y="333" on="1"/>
        <pt x="339" y="351" on="0"/>
        <pt x="369" y="407" on="0"/>
        <pt x="400" y="472" on="0"/>
        <pt x="429" y="541" on="0"/>
        <pt x="454" y="603" on="0"/>
        <pt x="472" y="653" on="0"/>
        <pt x="476" y="666" on="1"/>
      </contour>
    </TTGlyph>
    <TTGlyph name="five" xMin="-1" yMin="-3" xMax="399" yMax="584">
      <contour>
        <pt x="140" y="535" on="1"/>
        <pt x="136" y="542" on="0"/>
        <pt x="129" y="562" on="0"/>
        <pt x="143" y="560" on="1"/>
        <pt x="222" y="560" on="0"/>
        <pt x="336" y="564" on="0"/>
        <pt x="384" y="581" on="1"/>
        <pt x="393" y="584" on="0"/>
        <pt x="399" y="574" on="0"/>
        <pt x="395" y="557" on="0"/>
        <pt x="382" y="537" on="0"/>
        <pt x="372" y="530" on="1"/>
        <pt x="321" y="500" on="0"/>
        <pt x="234" y="487" on="0"/>
        <pt x="181" y="508" on="1"/>
        <pt x="181" y="504" on="1"/>
        <pt x="175" y="486" on="0"/>
        <pt x="163" y="447" on="0"/>
        <pt x="157" y="427" on="1"/>
        <pt x="196" y="427" on="0"/>
        <pt x="257" y="418" on="0"/>
        <pt x="305" y="397" on="0"/>
        <pt x="341" y="361" on="0"/>
        <pt x="355" y="333" on="1"/>
        <pt x="363" y="316" on="0"/>
        <pt x="367" y="299" on="1"/>
        <pt x="376" y="250" on="0"/>
        <pt x="329" y="150" on="0"/>
        <pt x="247" y="66" on="0"/>
        <pt x="148" y="6" on="0"/>
        <pt x="106" y="-2" on="1"/>
        <pt x="94" y="-3" on="0"/>
        <pt x="79" y="0" on="1"/>
        <pt x="45" y="5" on="0"/>
        <pt x="-1" y="56" on="0"/>
        <pt x="1" y="90" on="1"/>
        <pt x="3" y="140" on="0"/>
        <pt x="57" y="205" on="0"/>
        <pt x="94" y="229" on="1"/>
        <pt x="100" y="232" on="0"/>
        <pt x="124" y="241" on="0"/>
        <pt x="144" y="246" on="0"/>
        <pt x="152" y="242" on="0"/>
        <pt x="143" y="233" on="1"/>
        <pt x="130" y="219" on="0"/>
        <pt x="96" y="180" on="0"/>
        <pt x="66" y="138" on="0"/>
        <pt x="46" y="96" on="0"/>
        <pt x="46" y="78" on="1"/>
        <pt x="47" y="66" on="0"/>
        <pt x="63" y="58" on="0"/>
        <pt x="83" y="59" on="0"/>
        <pt x="104" y="65" on="0"/>
        <pt x="110" y="67" on="1"/>
        <pt x="140" y="84" on="0"/>
        <pt x="214" y="136" on="0"/>
        <pt x="278" y="199" on="0"/>
        <pt x="319" y="269" on="0"/>
        <pt x="315" y="304" on="1"/>
        <pt x="310" y="323" on="0"/>
        <pt x="267" y="347" on="0"/>
        <pt x="210" y="358" on="0"/>
        <pt x="150" y="355" on="0"/>
        <pt x="130" y="347" on="1"/>
        <pt x="119" y="343" on="0"/>
        <pt x="102" y="349" on="0"/>
        <pt x="91" y="364" on="0"/>
        <pt x="88" y="383" on="0"/>
        <pt x="91" y="392" on="1"/>
        <pt x="104" y="431" on="0"/>
        <pt x="129" y="500" on="0"/>
      </contour>
    </TTGlyph>
    <TTGlyph name="four" xMin="0" yMin="-2" xMax="412" yMax="585">
      <contour>
        <pt x="293" y="345" on="1"/>
        <pt x="263" y="334" on="0"/>
        <pt x="191" y="293" on="0"/>
        <pt x="119" y="242" on="0"/>
        <pt x="53" y="188" on="0"/>
        <pt x="30" y="165" on="1"/>
        <pt x="28" y="161" on="0"/>
        <pt x="19" y="155" on="0"/>
        <pt x="14" y="156" on="1"/>
        <pt x="4" y="159" on="0"/>
        <pt x="2" y="173" on="1"/>
        <pt x="0" y="190" on="0"/>
        <pt x="1" y="224" on="0"/>
        <pt x="3" y="241" on="1"/>
        <pt x="15" y="288" on="0"/>
        <pt x="52" y="376" on="0"/>
        <pt x="96" y="458" on="0"/>
        <pt x="146" y="536" on="0"/>
        <pt x="170" y="574" on="1"/>
        <pt x="179" y="585" on="0"/>
        <pt x="200" y="581" on="0"/>
        <pt x="216" y="563" on="0"/>
        <pt x="225" y="538" on="0"/>
        <pt x="224" y="528" on="1"/>
        <pt x="222" y="513" on="0"/>
        <pt x="204" y="486" on="0"/>
        <pt x="196" y="470" on="1"/>
        <pt x="188" y="456" on="0"/>
        <pt x="155" y="397" on="0"/>
        <pt x="121" y="332" on="0"/>
        <pt x="94" y="276" on="0"/>
        <pt x="92" y="264" on="1"/>
        <pt x="117" y="280" on="0"/>
        <pt x="170" y="317" on="0"/>
        <pt x="224" y="350" on="0"/>
        <pt x="277" y="375" on="0"/>
        <pt x="302" y="380" on="1"/>
        <pt x="305" y="382" on="0"/>
        <pt x="317" y="415" on="0"/>
        <pt x="331" y="456" on="0"/>
        <pt x="346" y="495" on="0"/>
        <pt x="351" y="503" on="1"/>
        <pt x="358" y="517" on="0"/>
        <pt x="383" y="514" on="0"/>
        <pt x="403" y="491" on="0"/>
        <pt x="412" y="456" on="0"/>
        <pt x="402" y="439" on="1"/>
        <pt x="380" y="383" on="0"/>
        <pt x="345" y="274" on="0"/>
        <pt x="312" y="168" on="0"/>
        <pt x="279" y="66" on="0"/>
        <pt x="258" y="17" on="1"/>
        <pt x="256" y="13" on="0"/>
        <pt x="250" y="4" on="0"/>
        <pt x="243" y="-2" on="0"/>
        <pt x="236" y="-2" on="0"/>
        <pt x="233" y="4" on="1"/>
        <pt x="231" y="9" on="0"/>
        <pt x="229" y="21" on="0"/>
        <pt x="229" y="26" on="1"/>
        <pt x="227" y="75" on="0"/>
        <pt x="237" y="153" on="0"/>
        <pt x="255" y="225" on="0"/>
        <pt x="279" y="299" on="0"/>
      </contour>
    </TTGlyph>
</ttFont>
